# Blender 4.4.1
# www.blender.org
mtllib hold.mtl
o テキスト
v -0.229165 0.000000 0.000000
v -0.229165 0.041667 0.000000
v -0.187498 0.041667 0.000000
v -0.187498 0.291667 0.000000
v -0.229165 0.291667 0.000000
v -0.229165 0.333333 0.000000
v -0.354165 0.333333 0.000000
v -0.354165 0.416667 0.000000
v -0.437498 0.416667 0.000000
v -0.437498 0.000000 0.000000
v -0.354165 0.250000 0.000000
v -0.270832 0.250000 0.000000
v -0.270832 0.083333 0.000000
v -0.354165 0.083333 0.000000
v -0.145832 0.416667 0.000000
v -0.145832 0.000000 0.000000
v -0.062498 0.000000 0.000000
v -0.062498 0.416667 0.000000
v 0.229168 0.041667 0.000000
v 0.229168 0.291667 0.000000
v 0.187502 0.291667 0.000000
v 0.187502 0.333333 0.000000
v 0.020835 0.333333 0.000000
v 0.020835 0.291667 0.000000
v -0.020832 0.291667 0.000000
v -0.020832 0.041667 0.000000
v 0.020835 0.041667 0.000000
v 0.020835 0.000000 0.000000
v 0.187502 0.000000 0.000000
v 0.187502 0.041667 0.000000
v 0.062502 0.083333 0.000000
v 0.062502 0.250000 0.000000
v 0.145835 0.250000 0.000000
v 0.145835 0.083333 0.000000
v 0.437502 0.416667 -0.000000
v 0.437502 0.333333 -0.000000
v 0.312502 0.333333 0.000000
v 0.312502 0.291667 0.000000
v 0.270835 0.291667 0.000000
v 0.270835 0.000000 0.000000
v 0.354168 0.000000 0.000000
v 0.354168 0.250000 0.000000
v 0.437502 0.250000 -0.000000
v 0.437502 0.000000 0.000000
v 0.520835 0.000000 0.000000
v 0.520835 0.416667 -0.000000
vn -0.0000 -0.0000 -1.0000
vt 0.461538 0.000000
vt 0.615385 0.000000
vt 0.538462 0.000000
vt 0.692308 0.000000
vt 0.307692 0.000000
vt 0.384615 0.000000
vt 0.769231 0.000000
vt 0.153846 0.000000
vt 0.230769 0.000000
vt 0.846154 0.000000
vt 0.923077 0.000000
vt 1.000000 0.000000
vt 0.076923 0.000000
vt 0.000000 0.000000
vt 0.666667 0.000000
vt 0.333333 0.000000
vt 0.133333 0.000000
vt 0.266667 0.000000
vt 0.200000 0.000000
vt 0.066667 0.000000
vt 0.933333 0.000000
vt 0.400000 0.000000
vt 0.866667 0.000000
vt 0.466667 0.000000
vt 0.800000 0.000000
vt 0.733333 0.000000
vt 0.533333 0.000000
vt 0.600000 0.000000
vt 0.909091 0.000000
vt 0.090909 0.000000
vt 0.727273 0.000000
vt 0.181818 0.000000
vt 0.272727 0.000000
vt 0.363636 0.000000
vt 0.636364 0.000000
vt 0.454545 0.000000
vt 0.818182 0.000000
vt 0.545455 0.000000
s 0
usemtl Material
f 7/1/1 9/2/1 8/3/1
f 7/1/1 10/4/1 9/2/1
f 5/5/1 7/1/1 6/6/1
f 5/5/1 11/7/1 7/1/1
f 11/7/1 10/4/1 7/1/1
f 3/8/1 5/5/1 4/9/1
f 3/8/1 12/10/1 5/5/1
f 12/10/1 11/7/1 5/5/1
f 3/8/1 13/11/1 12/10/1
f 14/12/1 10/4/1 11/7/1
f 3/8/1 14/12/1 13/11/1
f 3/8/1 2/13/1 14/12/1
f 2/13/1 10/4/1 14/12/1
f 1/14/1 10/4/1 2/13/1
f 17/15/1 15/14/1 18/12/1
f 17/15/1 16/16/1 15/14/1
f 21/17/1 23/18/1 22/19/1
f 21/17/1 24/16/1 23/18/1
f 19/14/1 21/17/1 20/20/1
f 19/14/1 33/21/1 21/17/1
f 33/21/1 24/16/1 21/17/1
f 33/21/1 25/22/1 24/16/1
f 33/21/1 32/23/1 25/22/1
f 32/23/1 26/24/1 25/22/1
f 19/14/1 34/12/1 33/21/1
f 31/25/1 26/24/1 32/23/1
f 19/14/1 31/25/1 34/12/1
f 19/14/1 26/24/1 31/25/1
f 30/26/1 26/24/1 19/14/1
f 29/15/1 27/27/1 30/26/1
f 27/27/1 26/24/1 30/26/1
f 29/15/1 28/28/1 27/27/1
f 45/29/1 35/14/1 46/12/1
f 45/29/1 36/30/1 35/14/1
f 45/29/1 43/31/1 36/30/1
f 43/31/1 37/32/1 36/30/1
f 43/31/1 38/33/1 37/32/1
f 43/31/1 39/34/1 38/33/1
f 43/31/1 42/35/1 39/34/1
f 42/35/1 40/36/1 39/34/1
f 45/29/1 44/37/1 43/31/1
f 41/38/1 40/36/1 42/35/1
