# Blender 4.4.1
# www.blender.org
mtllib next.mtl
o テキスト
v -0.437498 0.416667 0.000000
v -0.437498 0.333333 0.000000
v -0.520832 0.333333 0.000000
v -0.520832 0.250000 0.000000
v -0.437498 0.250000 0.000000
v -0.437498 0.083333 0.000000
v -0.520832 0.083333 0.000000
v -0.520832 0.000000 0.000000
v -0.395832 0.000000 0.000000
v -0.395832 0.041667 0.000000
v -0.354165 0.041667 0.000000
v -0.354165 0.416667 0.000000
v -0.145832 0.333333 0.000000
v -0.145832 0.208333 0.000000
v -0.062498 0.208333 0.000000
v -0.062498 0.333333 0.000000
v -0.104165 0.166667 0.000000
v -0.145832 0.166667 0.000000
v -0.145832 0.208333 0.000000
v -0.187498 0.208333 0.000000
v -0.187498 0.250000 0.000000
v -0.229165 0.250000 0.000000
v -0.229165 0.333333 0.000000
v -0.312498 0.333333 0.000000
v -0.312498 0.208333 0.000000
v -0.270832 0.208333 0.000000
v -0.270832 0.166667 0.000000
v -0.229165 0.166667 0.000000
v -0.229165 0.125000 0.000000
v -0.187498 0.125000 0.000000
v -0.187498 0.083333 0.000000
v -0.145832 0.083333 0.000000
v -0.145832 0.000000 0.000000
v -0.062498 0.000000 0.000000
v -0.062498 0.125000 0.000000
v -0.104165 0.125000 0.000000
v -0.312498 0.000000 0.000000
v -0.229165 0.000000 0.000000
v -0.229165 0.125000 0.000000
v -0.312498 0.125000 0.000000
v 0.229168 0.041667 0.000000
v 0.229168 0.291667 0.000000
v 0.187502 0.291667 0.000000
v 0.187502 0.333333 0.000000
v 0.020835 0.333333 0.000000
v 0.020835 0.291667 0.000000
v -0.020832 0.291667 0.000000
v -0.020832 0.125000 0.000000
v 0.145835 0.125000 0.000000
v 0.145835 0.083333 0.000000
v -0.020832 0.083333 0.000000
v -0.020832 0.000000 0.000000
v 0.187502 0.000000 0.000000
v 0.187502 0.041667 0.000000
v 0.062502 0.208333 0.000000
v 0.062502 0.250000 0.000000
v 0.145835 0.250000 0.000000
v 0.145835 0.208333 0.000000
v 0.312502 0.333333 0.000000
v 0.312502 0.291667 0.000000
v 0.270835 0.291667 0.000000
v 0.270835 0.000000 0.000000
v 0.354168 0.000000 0.000000
v 0.354168 0.250000 0.000000
v 0.437502 0.250000 -0.000000
v 0.437502 0.000000 0.000000
v 0.520835 0.000000 0.000000
v 0.520835 0.333333 -0.000000
vn -0.0000 -0.0000 -1.0000
vn -0.0000 -0.0000 1.0000
vt 0.909091 0.000000
vt 0.000000 0.000000
vt 1.000000 0.000000
vt 0.090909 0.000000
vt 0.363636 0.000000
vt 0.181818 0.000000
vt 0.272727 0.000000
vt 0.454545 0.000000
vt 0.545455 0.000000
vt 0.818182 0.000000
vt 0.636364 0.000000
vt 0.727273 0.000000
vt 0.074074 0.000000
vt 0.111111 0.000000
vt 0.037037 0.000000
vt 0.333333 0.000000
vt 0.407407 0.000000
vt 0.370370 0.000000
vt 0.444444 0.000000
vt 0.259259 0.000000
vt 0.296296 0.000000
vt 0.185185 0.000000
vt 0.222222 0.000000
vt 0.481481 0.000000
vt 0.518519 0.000000
vt 0.851852 0.000000
vt 0.148148 0.000000
vt 0.555556 0.000000
vt 0.592593 0.000000
vt 0.777778 0.000000
vt 0.814815 0.000000
vt 0.703704 0.000000
vt 0.629630 0.000000
vt 0.666667 0.000000
vt 0.925926 0.000000
vt 0.962963 0.000000
vt 0.888889 0.000000
vt 0.740741 0.000000
vt 0.117647 0.000000
vt 0.235294 0.000000
vt 0.176471 0.000000
vt 0.294118 0.000000
vt 0.058824 0.000000
vt 0.941176 0.000000
vt 0.352941 0.000000
vt 0.882353 0.000000
vt 0.411765 0.000000
vt 0.823529 0.000000
vt 0.470588 0.000000
vt 0.529412 0.000000
vt 0.588235 0.000000
vt 0.764706 0.000000
vt 0.647059 0.000000
vt 0.705882 0.000000
s 0
usemtl Material
f 11/1/1 1/2/1 12/3/1
f 11/1/1 2/4/1 1/2/1
f 11/1/1 5/5/1 2/4/1
f 5/5/1 3/6/1 2/4/1
f 5/5/1 4/7/1 3/6/1
f 11/1/1 6/8/1 5/5/1
f 11/1/1 7/9/1 6/8/1
f 11/1/1 10/10/1 7/9/1
f 10/10/1 8/11/1 7/9/1
f 9/12/1 8/11/1 10/10/1
f 15/13/1 13/2/1 16/14/1
f 15/13/1 14/15/1 13/2/1
f 22/16/1 24/17/1 23/18/1
f 22/16/1 25/19/1 24/17/1
f 20/20/1 22/16/1 21/21/1
f 20/20/1 25/19/1 22/16/1
f 18/22/1 20/20/1 19/23/1
f 18/22/1 26/24/1 20/20/1
f 26/24/1 25/19/1 20/20/1
f 18/22/1 27/25/1 26/24/1
f 36/26/1 18/22/1 17/27/1
f 36/26/1 28/28/1 18/22/1
f 28/28/1 27/25/1 18/22/1
f 36/26/1 29/29/1 28/28/1
f 34/30/1 36/26/1 35/31/1
f 34/30/1 32/32/1 36/26/1
f 32/32/1 30/33/1 36/26/1
f 30/33/1 29/29/1 36/26/1
f 32/32/1 31/34/1 30/33/1
f 38/35/1 40/3/1 39/36/1
f 38/35/1 37/37/1 40/3/1
f 34/30/1 33/38/1 32/32/1
f 43/39/1 45/40/1 44/41/1
f 43/39/1 46/42/1 45/40/1
f 41/2/1 43/39/1 42/43/1
f 41/2/1 57/44/1 43/39/1
f 57/44/1 46/42/1 43/39/1
f 57/44/1 47/45/1 46/42/1
f 57/44/1 56/46/1 47/45/1
f 56/46/1 48/47/1 47/45/1
f 41/2/1 58/3/1 57/44/1
f 55/48/1 48/47/1 56/46/1
f 41/2/1 55/48/1 58/3/1
f 41/2/2 49/49/2 55/48/2
f 49/49/1 48/47/1 55/48/1
f 41/2/1 50/50/1 49/49/1
f 41/2/1 51/51/1 50/50/1
f 41/2/1 54/52/1 51/51/1
f 54/52/1 52/53/1 51/51/1
f 53/54/1 52/53/1 54/52/1
f 67/37/1 65/34/1 68/3/1
f 65/34/1 59/2/1 68/3/1
f 65/34/1 60/14/1 59/2/1
f 65/34/1 61/23/1 60/14/1
f 65/34/1 64/28/1 61/23/1
f 64/28/1 62/16/1 61/23/1
f 67/37/1 66/30/1 65/34/1
f 63/19/1 62/16/1 64/28/1
