# Blender 4.4.1
# www.blender.org
mtllib tabto.mtl
o テキスト
v -2.411349 0.814000 -0.000000
v -2.358349 0.791000 -0.000000
v -2.365213 0.780856 -0.000000
v -2.372261 0.770014 -0.000000
v -2.379427 0.758610 -0.000000
v -2.386646 0.746778 -0.000000
v -2.393850 0.734655 -0.000000
v -2.400974 0.722375 -0.000000
v -2.407953 0.710075 -0.000000
v -2.414719 0.697889 -0.000000
v -2.421208 0.685953 -0.000000
v -2.427354 0.674403 -0.000000
v -2.433089 0.663374 -0.000000
v -2.438349 0.653000 -0.000000
v -2.492349 0.677000 -0.000000
v -2.487242 0.687182 -0.000000
v -2.481488 0.698121 -0.000000
v -2.475193 0.709657 -0.000000
v -2.468460 0.721630 -0.000000
v -2.461395 0.733881 -0.000000
v -2.454099 0.746250 -0.000000
v -2.446679 0.758578 -0.000000
v -2.439238 0.770704 -0.000000
v -2.431881 0.782469 -0.000000
v -2.424711 0.793713 -0.000000
v -2.417832 0.804277 -0.000000
v -2.524349 0.849001 -0.000000
v -2.472349 0.826000 -0.000000
v -2.479214 0.816353 -0.000000
v -2.486270 0.805991 -0.000000
v -2.493459 0.795032 -0.000000
v -2.500720 0.783593 -0.000000
v -2.507995 0.771793 -0.000000
v -2.515225 0.759750 -0.000000
v -2.522350 0.747583 -0.000000
v -2.529312 0.735408 -0.000000
v -2.536052 0.723344 -0.000000
v -2.542511 0.711510 -0.000000
v -2.548630 0.700022 -0.000000
v -2.554349 0.689000 -0.000000
v -2.608349 0.713001 -0.000000
v -2.603221 0.722742 -0.000000
v -2.597405 0.733352 -0.000000
v -2.591006 0.744657 -0.000000
v -2.584127 0.756482 -0.000000
v -2.576874 0.768654 -0.000000
v -2.569349 0.781000 -0.000000
v -2.561658 0.793347 -0.000000
v -2.553905 0.805519 -0.000000
v -2.546193 0.817344 -0.000000
v -2.538627 0.828649 -0.000000
v -2.531311 0.839259 -0.000000
v -2.434349 0.651000 -0.000000
v -2.383349 0.690000 -0.000000
v -2.379143 0.688793 -0.000000
v -2.374530 0.687672 -0.000000
v -2.369521 0.686641 -0.000000
v -2.364127 0.685704 -0.000000
v -2.358358 0.684864 -0.000000
v -2.352224 0.684125 -0.000000
v -2.345736 0.683491 -0.000000
v -2.338905 0.682963 -0.000000
v -2.331740 0.682547 -0.000000
v -2.324252 0.682246 -0.000000
v -2.316451 0.682062 -0.000000
v -2.308349 0.682000 -0.000000
v -2.293746 0.682000 -0.000000
v -2.269687 0.682000 -0.000000
v -2.238053 0.682000 -0.000000
v -2.200720 0.682000 -0.000000
v -2.159568 0.682000 -0.000000
v -2.116474 0.682000 -0.000000
v -2.073319 0.682000 -0.000000
v -2.031979 0.682000 -0.000000
v -1.994334 0.682000 -0.000000
v -1.962261 0.682000 -0.000000
v -1.937640 0.682000 -0.000000
v -1.922349 0.682000 -0.000000
v -1.914327 0.682080 -0.000000
v -1.905423 0.682306 -0.000000
v -1.895880 0.682657 -0.000000
v -1.885942 0.683112 -0.000000
v -1.875850 0.683650 -0.000000
v -1.865849 0.684250 -0.000000
v -1.856181 0.684893 -0.000000
v -1.847090 0.685556 -0.000000
v -1.838818 0.686219 -0.000000
v -1.831609 0.686862 -0.000000
v -1.825704 0.687462 -0.000000
v -1.821349 0.688000 -0.000000
v -1.821349 0.598000 -0.000000
v -1.824979 0.598309 -0.000000
v -1.830220 0.598718 -0.000000
v -1.836849 0.599204 -0.000000
v -1.844645 0.599741 -0.000000
v -1.853386 0.600307 -0.000000
v -1.862849 0.600875 -0.000000
v -1.872812 0.601424 -0.000000
v -1.883053 0.601926 -0.000000
v -1.893349 0.602360 -0.000000
v -1.903478 0.602700 -0.000000
v -1.913219 0.602921 -0.000000
v -1.922349 0.603000 -0.000000
v -1.936688 0.603000 -0.000000
v -1.960891 0.603000 -0.000000
v -1.992990 0.603000 -0.000000
v -2.031016 0.603000 -0.000000
v -2.073000 0.603000 -0.000000
v -2.116974 0.603000 -0.000000
v -2.160969 0.603000 -0.000000
v -2.203016 0.603000 -0.000000
v -2.241146 0.603000 -0.000000
v -2.273391 0.603000 -0.000000
v -2.297782 0.603000 -0.000000
v -2.312349 0.603000 -0.000000
v -2.305130 0.581546 -0.000000
v -2.296095 0.558862 -0.000000
v -2.285427 0.535219 -0.000000
v -2.273312 0.510889 -0.000000
v -2.259933 0.486143 -0.000000
v -2.245474 0.461250 -0.000000
v -2.230119 0.436483 -0.000000
v -2.214053 0.412112 -0.000000
v -2.197459 0.388407 -0.000000
v -2.180520 0.365639 -0.000000
v -2.163422 0.344080 -0.000000
v -2.146349 0.324000 -0.000000
v -2.119680 0.295202 -0.000000
v -2.091247 0.266445 -0.000000
v -2.061162 0.237938 -0.000000
v -2.029535 0.209889 -0.000000
v -1.996477 0.182507 -0.000000
v -1.962100 0.156000 -0.000000
v -1.926514 0.130577 -0.000000
v -1.889831 0.106445 -0.000000
v -1.852162 0.083813 -0.000000
v -1.813617 0.062889 -0.000000
v -1.774309 0.043882 -0.000000
v -1.734349 0.027000 -0.000000
v -1.798349 -0.040000 0.000000
v -1.835069 -0.022165 0.000000
v -1.871196 -0.002740 0.000000
v -1.906677 0.018157 -0.000000
v -1.941460 0.040408 -0.000000
v -1.975493 0.063895 -0.000000
v -2.008723 0.088500 -0.000000
v -2.041100 0.114106 -0.000000
v -2.072571 0.140593 -0.000000
v -2.103083 0.167844 -0.000000
v -2.132585 0.195741 -0.000000
v -2.161024 0.224166 -0.000000
v -2.188349 0.253000 -0.000000
v -2.213907 0.229510 -0.000000
v -2.239483 0.205162 -0.000000
v -2.264927 0.180141 -0.000000
v -2.290090 0.154630 -0.000000
v -2.314822 0.128814 -0.000000
v -2.338974 0.102875 -0.000000
v -2.362397 0.077000 -0.000000
v -2.384942 0.051371 -0.000000
v -2.406459 0.026172 -0.000000
v -2.426798 0.001588 -0.000000
v -2.445812 -0.022197 0.000000
v -2.463349 -0.045000 0.000000
v -2.533349 0.016000 -0.000000
v -2.515955 0.036531 -0.000000
v -2.496442 0.058908 -0.000000
v -2.475068 0.082813 -0.000000
v -2.452091 0.107926 -0.000000
v -2.427765 0.133929 -0.000000
v -2.402350 0.160500 -0.000000
v -2.376101 0.187322 -0.000000
v -2.349275 0.214075 -0.000000
v -2.322130 0.240438 -0.000000
v -2.294923 0.266093 -0.000000
v -2.267910 0.290720 -0.000000
v -2.241349 0.314000 -0.000000
v -2.258920 0.337030 -0.000000
v -2.276085 0.360987 -0.000000
v -2.292771 0.385672 -0.000000
v -2.308905 0.410889 -0.000000
v -2.324414 0.436440 -0.000000
v -2.339224 0.462125 -0.000000
v -2.353264 0.487749 -0.000000
v -2.366460 0.513112 -0.000000
v -2.378740 0.538016 -0.000000
v -2.390030 0.562264 -0.000000
v -2.400257 0.585658 -0.000000
v -2.409349 0.608000 -0.000000
v -2.410987 0.611425 -0.000000
v -2.412868 0.615144 -0.000000
v -2.414943 0.619079 -0.000000
v -2.417164 0.623149 -0.000000
v -2.419482 0.627274 -0.000000
v -2.421849 0.631375 -0.000000
v -2.424217 0.635373 -0.000000
v -2.426535 0.639186 -0.000000
v -2.428756 0.642735 -0.000000
v -2.430831 0.645940 -0.000000
v -2.432712 0.648722 -0.000000
v -0.756349 0.433000 -0.000000
v -0.756349 0.335000 -0.000000
v -0.764546 0.335729 -0.000000
v -0.773590 0.336412 -0.000000
v -0.783411 0.337047 -0.000000
v -0.793941 0.337630 -0.000000
v -0.805110 0.338157 -0.000000
v -0.816849 0.338625 -0.000000
v -0.829087 0.339031 -0.000000
v -0.841756 0.339371 -0.000000
v -0.854786 0.339641 -0.000000
v -0.868108 0.339838 -0.000000
v -0.881652 0.339959 -0.000000
v -0.895349 0.340000 -0.000000
v -0.920474 0.340000 -0.000000
v -0.956849 0.340000 -0.000000
v -1.002224 0.340000 -0.000000
v -1.054349 0.340000 -0.000000
v -1.110974 0.340000 -0.000000
v -1.169849 0.340000 -0.000000
v -1.228724 0.340000 -0.000000
v -1.285349 0.340000 -0.000000
v -1.337474 0.340000 -0.000000
v -1.382849 0.340000 -0.000000
v -1.419225 0.340000 -0.000000
v -1.444349 0.340000 -0.000000
v -1.455526 0.339921 -0.000000
v -1.466511 0.339699 -0.000000
v -1.477239 0.339360 -0.000000
v -1.487645 0.338926 -0.000000
v -1.497662 0.338423 -0.000000
v -1.507224 0.337875 -0.000000
v -1.516265 0.337307 -0.000000
v -1.524719 0.336741 -0.000000
v -1.532521 0.336204 -0.000000
v -1.539603 0.335718 -0.000000
v -1.545902 0.335309 -0.000000
v -1.551349 0.335000 -0.000000
v -1.551349 0.433000 -0.000000
v -1.545557 0.432482 -0.000000
v -1.539182 0.431936 -0.000000
v -1.532224 0.431375 -0.000000
v -1.524682 0.430815 -0.000000
v -1.516557 0.430269 -0.000000
v -1.507849 0.429750 -0.000000
v -1.498557 0.429273 -0.000000
v -1.488683 0.428852 -0.000000
v -1.478224 0.428500 -0.000000
v -1.467182 0.428232 -0.000000
v -1.455558 0.428061 -0.000000
v -1.443349 0.428000 -0.000000
v -1.418434 0.428000 -0.000000
v -1.382201 0.428000 -0.000000
v -1.336911 0.428000 -0.000000
v -1.284830 0.428000 -0.000000
v -1.228222 0.428000 -0.000000
v -1.169349 0.428000 -0.000000
v -1.110476 0.428000 -0.000000
v -1.053868 0.428000 -0.000000
v -1.001786 0.428000 -0.000000
v -0.956497 0.428000 -0.000000
v -0.920263 0.428000 -0.000000
v -0.895349 0.428000 -0.000000
v -0.881423 0.428061 -0.000000
v -0.867691 0.428232 -0.000000
v -0.854224 0.428500 -0.000000
v -0.841089 0.428852 -0.000000
v -0.828358 0.429273 -0.000000
v -0.816099 0.429750 -0.000000
v -0.804381 0.430269 -0.000000
v -0.793275 0.430815 -0.000000
v -0.782849 0.431375 -0.000000
v -0.773173 0.431936 -0.000000
v -0.764316 0.432482 -0.000000
v -0.409349 0.739000 -0.000000
v -0.409920 0.747612 -0.000000
v -0.411585 0.755894 -0.000000
v -0.414271 0.763766 -0.000000
v -0.417905 0.771148 -0.000000
v -0.422413 0.777961 -0.000000
v -0.427724 0.784125 -0.000000
v -0.433764 0.789560 -0.000000
v -0.440460 0.794185 -0.000000
v -0.447740 0.797922 -0.000000
v -0.455529 0.800690 -0.000000
v -0.463757 0.802409 -0.000000
v -0.472349 0.803000 -0.000000
v -0.481190 0.802409 -0.000000
v -0.489664 0.800690 -0.000000
v -0.497693 0.797922 -0.000000
v -0.505201 0.794186 -0.000000
v -0.512112 0.789560 -0.000000
v -0.518349 0.784125 -0.000000
v -0.523836 0.777962 -0.000000
v -0.528497 0.771148 -0.000000
v -0.532255 0.763766 -0.000000
v -0.535034 0.755894 -0.000000
v -0.536757 0.747612 -0.000000
v -0.537349 0.739000 -0.000000
v -0.536757 0.730179 -0.000000
v -0.535034 0.721760 -0.000000
v -0.532255 0.713813 -0.000000
v -0.528497 0.706408 -0.000000
v -0.523836 0.699614 -0.000000
v -0.518349 0.693500 -0.000000
v -0.512112 0.688137 -0.000000
v -0.505201 0.683593 -0.000000
v -0.497693 0.679938 -0.000000
v -0.489664 0.677241 -0.000000
v -0.481190 0.675572 -0.000000
v -0.472349 0.675000 -0.000000
v -0.463757 0.675572 -0.000000
v -0.455529 0.677241 -0.000000
v -0.447740 0.679938 -0.000000
v -0.440460 0.683593 -0.000000
v -0.433764 0.688137 -0.000000
v -0.427724 0.693500 -0.000000
v -0.422413 0.699614 -0.000000
v -0.417905 0.706408 -0.000000
v -0.414271 0.713813 -0.000000
v -0.411585 0.721759 -0.000000
v -0.409920 0.730178 -0.000000
v -0.363349 0.739000 -0.000000
v -0.364348 0.724041 -0.000000
v -0.367256 0.709746 -0.000000
v -0.371943 0.696235 -0.000000
v -0.378275 0.683630 -0.000000
v -0.386121 0.672053 -0.000000
v -0.395349 0.661625 -0.000000
v -0.405827 0.652469 -0.000000
v -0.417423 0.644704 -0.000000
v -0.430005 0.638453 -0.000000
v -0.443441 0.633838 -0.000000
v -0.457600 0.630980 -0.000000
v -0.472349 0.630000 -0.000000
v -0.487328 0.630980 -0.000000
v -0.501678 0.633838 -0.000000
v -0.515271 0.638453 -0.000000
v -0.527979 0.644704 -0.000000
v -0.539673 0.652469 -0.000000
v -0.550224 0.661625 -0.000000
v -0.559505 0.672053 -0.000000
v -0.567386 0.683630 -0.000000
v -0.573740 0.696235 -0.000000
v -0.578437 0.709746 -0.000000
v -0.581350 0.724041 -0.000000
v -0.582349 0.739000 -0.000000
v -0.581349 0.753769 -0.000000
v -0.578437 0.767982 -0.000000
v -0.573740 0.781500 -0.000000
v -0.567386 0.794186 -0.000000
v -0.559505 0.805898 -0.000000
v -0.550224 0.816500 -0.000000
v -0.539672 0.825852 -0.000000
v -0.527978 0.833815 -0.000000
v -0.515271 0.840250 -0.000000
v -0.501678 0.845019 -0.000000
v -0.487327 0.847982 -0.000000
v -0.472349 0.849000 -0.000000
v -0.457600 0.847982 -0.000000
v -0.443442 0.845019 -0.000000
v -0.430005 0.840250 -0.000000
v -0.417423 0.833815 -0.000000
v -0.405827 0.825852 -0.000000
v -0.395349 0.816500 -0.000000
v -0.386121 0.805898 -0.000000
v -0.378275 0.794185 -0.000000
v -0.371943 0.781500 -0.000000
v -0.367257 0.767982 -0.000000
v -0.364348 0.753769 -0.000000
v 0.023651 0.367000 -0.000000
v 0.093651 0.401000 -0.000000
v 0.104342 0.380014 -0.000000
v 0.116758 0.357773 -0.000000
v 0.130667 0.334610 -0.000000
v 0.145836 0.310852 -0.000000
v 0.162034 0.286831 -0.000000
v 0.179026 0.262875 -0.000000
v 0.196581 0.239316 -0.000000
v 0.214466 0.216482 -0.000000
v 0.232448 0.194703 -0.000000
v 0.250295 0.174310 -0.000000
v 0.267773 0.155633 -0.000000
v 0.284651 0.139000 -0.000000
v 0.215651 0.093000 -0.000000
v 0.200912 0.109563 -0.000000
v 0.184901 0.128505 -0.000000
v 0.167932 0.149453 -0.000000
v 0.150318 0.172037 -0.000000
v 0.132370 0.195885 -0.000000
v 0.114401 0.220625 -0.000000
v 0.096724 0.245886 -0.000000
v 0.079651 0.271297 -0.000000
v 0.063495 0.296485 -0.000000
v 0.048568 0.321079 -0.000000
v 0.035182 0.344708 -0.000000
v -0.394349 0.400000 -0.000000
v -0.326349 0.364000 -0.000000
v -0.340024 0.347022 -0.000000
v -0.354414 0.327838 -0.000000
v -0.369318 0.306828 -0.000000
v -0.384534 0.284371 -0.000000
v -0.399862 0.260843 -0.000000
v -0.415099 0.236625 -0.000000
v -0.430044 0.212095 -0.000000
v -0.444497 0.187630 -0.000000
v -0.458255 0.163610 -0.000000
v -0.471117 0.140412 -0.000000
v -0.482882 0.118416 -0.000000
v -0.493349 0.098000 -0.000000
v -0.567349 0.139000 -0.000000
v -0.556554 0.158038 -0.000000
v -0.544326 0.178889 -0.000000
v -0.530895 0.201157 -0.000000
v -0.516497 0.224445 -0.000000
v -0.501362 0.248358 -0.000000
v -0.485723 0.272500 -0.000000
v -0.469814 0.296476 -0.000000
v -0.453867 0.319889 -0.000000
v -0.438114 0.342344 -0.000000
v -0.422788 0.363445 -0.000000
v -0.408122 0.382795 -0.000000
v 0.253651 0.602000 -0.000000
v 0.253651 0.518000 -0.000000
v 0.246880 0.518479 -0.000000
v 0.240063 0.518917 -0.000000
v 0.233198 0.519313 -0.000000
v 0.226281 0.519667 -0.000000
v 0.219308 0.519979 -0.000000
v 0.212276 0.520250 -0.000000
v 0.205182 0.520479 -0.000000
v 0.198021 0.520667 -0.000000
v 0.190791 0.520813 -0.000000
v 0.183489 0.520917 -0.000000
v 0.176110 0.520980 -0.000000
v 0.168651 0.521000 -0.000000
v -0.109349 0.521000 -0.000000
v -0.109349 0.514000 -0.000000
v -0.109349 0.496231 -0.000000
v -0.109349 0.468264 -0.000000
v -0.109349 0.432110 -0.000000
v -0.109349 0.389778 -0.000000
v -0.109349 0.343280 -0.000000
v -0.109349 0.294625 -0.000000
v -0.109349 0.245825 -0.000000
v -0.109349 0.198889 -0.000000
v -0.109349 0.155828 -0.000000
v -0.109349 0.118653 -0.000000
v -0.109349 0.089373 -0.000000
v -0.109349 0.070000 -0.000000
v -0.108887 0.063791 -0.000000
v -0.107988 0.058158 -0.000000
v -0.106630 0.053094 -0.000000
v -0.104793 0.048593 -0.000000
v -0.102457 0.044647 -0.000000
v -0.099599 0.041250 -0.000000
v -0.096200 0.038395 -0.000000
v -0.092238 0.036074 -0.000000
v -0.087692 0.034281 -0.000000
v -0.082543 0.033009 -0.000000
v -0.076769 0.032251 -0.000000
v -0.070349 0.032000 -0.000000
v -0.063446 0.032084 -0.000000
v -0.055789 0.032334 -0.000000
v -0.047458 0.032750 -0.000000
v -0.038534 0.033334 -0.000000
v -0.029096 0.034084 -0.000000
v -0.019224 0.035000 -0.000000
v -0.008998 0.036084 -0.000000
v 0.001503 0.037334 -0.000000
v 0.012198 0.038750 -0.000000
v 0.023008 0.040334 -0.000000
v 0.033852 0.042084 -0.000000
v 0.044651 0.044000 -0.000000
v 0.037651 -0.036000 0.000000
v 0.027256 -0.036978 0.000000
v 0.016160 -0.037907 0.000000
v 0.004495 -0.038781 0.000000
v -0.007608 -0.039592 0.000000
v -0.020017 -0.040334 0.000000
v -0.032599 -0.041000 0.000000
v -0.045223 -0.041582 0.000000
v -0.057756 -0.042074 0.000000
v -0.070068 -0.042469 0.000000
v -0.082025 -0.042759 0.000000
v -0.093496 -0.042938 0.000000
v -0.104349 -0.043000 0.000000
v -0.118645 -0.042438 0.000000
v -0.131553 -0.040754 0.000000
v -0.143099 -0.037953 0.000000
v -0.153312 -0.034037 0.000000
v -0.162219 -0.029010 0.000000
v -0.169849 -0.022875 0.000000
v -0.176229 -0.015636 0.000000
v -0.181386 -0.007296 0.000000
v -0.185349 0.002141 -0.000000
v -0.188145 0.012672 -0.000000
v -0.189803 0.024292 -0.000000
v -0.190349 0.037000 -0.000000
v -0.190349 0.059735 -0.000000
v -0.190349 0.091292 -0.000000
v -0.190349 0.129953 -0.000000
v -0.190349 0.174000 -0.000000
v -0.190349 0.221714 -0.000000
v -0.190349 0.271375 -0.000000
v -0.190349 0.321266 -0.000000
v -0.190349 0.369667 -0.000000
v -0.190349 0.414860 -0.000000
v -0.190349 0.455125 -0.000000
v -0.190349 0.488745 -0.000000
v -0.190349 0.514000 -0.000000
v -0.190349 0.521000 -0.000000
v -0.455349 0.521000 -0.000000
v -0.461469 0.520999 -0.000000
v -0.467807 0.520991 -0.000000
v -0.474333 0.520969 -0.000000
v -0.481016 0.520926 -0.000000
v -0.487823 0.520856 -0.000000
v -0.494724 0.520750 -0.000000
v -0.501688 0.520603 -0.000000
v -0.508682 0.520408 -0.000000
v -0.515677 0.520157 -0.000000
v -0.522640 0.519843 -0.000000
v -0.529541 0.519460 -0.000000
v -0.536349 0.519000 -0.000000
v -0.536349 0.602000 -0.000000
v -0.529942 0.601272 -0.000000
v -0.523261 0.600588 -0.000000
v -0.516364 0.599953 -0.000000
v -0.509312 0.599371 -0.000000
v -0.502162 0.598844 -0.000000
v -0.494974 0.598375 -0.000000
v -0.487806 0.597970 -0.000000
v -0.480719 0.597630 -0.000000
v -0.473770 0.597360 -0.000000
v -0.467020 0.597162 -0.000000
v -0.460526 0.597041 -0.000000
v -0.454349 0.597000 -0.000000
v -0.190349 0.597000 -0.000000
v -0.190349 0.699000 -0.000000
v -0.190410 0.704771 -0.000000
v -0.190585 0.711000 -0.000000
v -0.190864 0.717563 -0.000000
v -0.191238 0.724334 -0.000000
v -0.191694 0.731188 -0.000000
v -0.192224 0.738000 -0.000000
v -0.192816 0.744646 -0.000000
v -0.193460 0.751000 -0.000000
v -0.194146 0.756938 -0.000000
v -0.194863 0.762334 -0.000000
v -0.195601 0.767063 -0.000000
v -0.196349 0.771000 -0.000000
v -0.102349 0.771000 -0.000000
v -0.103327 0.766872 -0.000000
v -0.104256 0.762060 -0.000000
v -0.105130 0.756672 -0.000000
v -0.105941 0.750815 -0.000000
v -0.106683 0.744597 -0.000000
v -0.107349 0.738125 -0.000000
v -0.107931 0.731508 -0.000000
v -0.108423 0.724852 -0.000000
v -0.108817 0.718266 -0.000000
v -0.109108 0.711857 -0.000000
v -0.109287 0.705732 -0.000000
v -0.109349 0.700000 -0.000000
v -0.109349 0.597000 -0.000000
v 0.168651 0.597000 -0.000000
v 0.176511 0.597041 -0.000000
v 0.184114 0.597162 -0.000000
v 0.191495 0.597360 -0.000000
v 0.198688 0.597630 -0.000000
v 0.205729 0.597970 -0.000000
v 0.212651 0.598375 -0.000000
v 0.219490 0.598843 -0.000000
v 0.226280 0.599371 -0.000000
v 0.233057 0.599953 -0.000000
v 0.239855 0.600588 -0.000000
v 0.246708 0.601272 -0.000000
v 1.266651 0.658000 -0.000000
v 1.257651 0.571000 -0.000000
v 1.227759 0.576763 -0.000000
v 1.192767 0.582523 -0.000000
v 1.153698 0.588234 -0.000000
v 1.111577 0.593852 -0.000000
v 1.067428 0.599331 -0.000000
v 1.022276 0.604625 -0.000000
v 0.977145 0.609690 -0.000000
v 0.933059 0.614482 -0.000000
v 0.891042 0.618953 -0.000000
v 0.852119 0.623060 -0.000000
v 0.817314 0.626758 -0.000000
v 0.787651 0.630000 -0.000000
v 0.810657 0.614775 -0.000000
v 0.833447 0.596699 -0.000000
v 0.855682 0.575922 -0.000000
v 0.877022 0.552593 -0.000000
v 0.897125 0.526861 -0.000000
v 0.915651 0.498875 -0.000000
v 0.932261 0.468785 -0.000000
v 0.946614 0.436741 -0.000000
v 0.958370 0.402891 -0.000000
v 0.967188 0.367384 -0.000000
v 0.972729 0.330371 -0.000000
v 0.974651 0.292000 -0.000000
v 0.970392 0.238815 -0.000000
v 0.958165 0.190685 -0.000000
v 0.938792 0.147500 -0.000000
v 0.913096 0.109148 -0.000000
v 0.881899 0.075519 -0.000000
v 0.846026 0.046500 -0.000000
v 0.806299 0.021982 -0.000000
v 0.763540 0.001852 -0.000000
v 0.718573 -0.014000 0.000000
v 0.672220 -0.025685 0.000000
v 0.625306 -0.033315 0.000000
v 0.578651 -0.037000 0.000000
v 0.549651 0.046000 -0.000000
v 0.590681 0.048711 -0.000000
v 0.631804 0.054023 -0.000000
v 0.672323 0.062203 -0.000000
v 0.711540 0.073519 -0.000000
v 0.748757 0.088237 -0.000000
v 0.783276 0.106625 -0.000000
v 0.814399 0.128951 -0.000000
v 0.841429 0.155482 -0.000000
v 0.863667 0.186485 -0.000000
v 0.880415 0.222227 -0.000000
v 0.890976 0.262976 -0.000000
v 0.894651 0.309000 -0.000000
v 0.892857 0.339357 -0.000000
v 0.887549 0.370607 -0.000000
v 0.878839 0.402266 -0.000000
v 0.866836 0.433852 -0.000000
v 0.851653 0.464883 -0.000000
v 0.833401 0.494875 -0.000000
v 0.812190 0.523347 -0.000000
v 0.788133 0.549815 -0.000000
v 0.761339 0.573797 -0.000000
v 0.731920 0.594810 -0.000000
v 0.699987 0.612372 -0.000000
v 0.665651 0.626000 -0.000000
v 0.652170 0.629466 -0.000000
v 0.637383 0.632394 -0.000000
v 0.621526 0.634828 -0.000000
v 0.604836 0.636815 -0.000000
v 0.587549 0.638399 -0.000000
v 0.569901 0.639625 -0.000000
v 0.552128 0.640539 -0.000000
v 0.534466 0.641185 -0.000000
v 0.517151 0.641610 -0.000000
v 0.500419 0.641857 -0.000000
v 0.484507 0.641972 -0.000000
v 0.469651 0.642000 -0.000000
v 0.469651 0.722000 -0.000000
v 0.486957 0.721188 -0.000000
v 0.505346 0.720250 -0.000000
v 0.524776 0.719188 -0.000000
v 0.545207 0.718000 -0.000000
v 0.566596 0.716688 -0.000000
v 0.588901 0.715250 -0.000000
v 0.612082 0.713688 -0.000000
v 0.636096 0.712000 -0.000000
v 0.660901 0.710188 -0.000000
v 0.686457 0.708250 -0.000000
v 0.712721 0.706188 -0.000000
v 0.739651 0.704000 -0.000000
v 0.785681 0.700176 -0.000000
v 0.831471 0.696241 -0.000000
v 0.876573 0.692250 -0.000000
v 0.920540 0.688259 -0.000000
v 0.962924 0.684324 -0.000000
v 1.003276 0.680500 -0.000000
v 1.041149 0.676843 -0.000000
v 1.076096 0.673408 -0.000000
v 1.107667 0.670250 -0.000000
v 1.135415 0.667426 -0.000000
v 1.158893 0.664991 -0.000000
v 1.177651 0.663000 -0.000000
v 1.182668 0.662501 -0.000000
v 1.188202 0.662005 -0.000000
v 1.194229 0.661516 -0.000000
v 1.200725 0.661037 -0.000000
v 1.207666 0.660573 -0.000000
v 1.215026 0.660125 -0.000000
v 1.222783 0.659699 -0.000000
v 1.230911 0.659296 -0.000000
v 1.239386 0.658922 -0.000000
v 1.248184 0.658579 -0.000000
v 1.257280 0.658270 -0.000000
v 0.613651 0.519000 -0.000000
v 0.664651 0.497000 -0.000000
v 0.657175 0.486530 -0.000000
v 0.649758 0.475653 -0.000000
v 0.642417 0.464422 -0.000000
v 0.635170 0.452889 -0.000000
v 0.628034 0.441106 -0.000000
v 0.621026 0.429125 -0.000000
v 0.614165 0.416998 -0.000000
v 0.607466 0.404778 -0.000000
v 0.600948 0.392516 -0.000000
v 0.594628 0.380264 -0.000000
v 0.588523 0.368075 -0.000000
v 0.582651 0.356000 -0.000000
v 0.531651 0.380000 -0.000000
v 0.537237 0.391348 -0.000000
v 0.543420 0.403283 -0.000000
v 0.550089 0.415641 -0.000000
v 0.557133 0.428259 -0.000000
v 0.564440 0.440975 -0.000000
v 0.571901 0.453625 -0.000000
v 0.579403 0.466046 -0.000000
v 0.586836 0.478074 -0.000000
v 0.594089 0.489547 -0.000000
v 0.601049 0.500301 -0.000000
v 0.607607 0.510173 -0.000000
v 0.504651 0.561000 -0.000000
v 0.553651 0.538000 -0.000000
v 0.545944 0.527358 -0.000000
v 0.538332 0.516449 -0.000000
v 0.530823 0.505297 -0.000000
v 0.523429 0.493926 -0.000000
v 0.516160 0.482361 -0.000000
v 0.509026 0.470625 -0.000000
v 0.502038 0.458744 -0.000000
v 0.495206 0.446741 -0.000000
v 0.488541 0.434641 -0.000000
v 0.482054 0.422468 -0.000000
v 0.475753 0.410246 -0.000000
v 0.469651 0.398000 -0.000000
v 0.417651 0.423000 -0.000000
v 0.423736 0.434328 -0.000000
v 0.430415 0.446209 -0.000000
v 0.437573 0.458485 -0.000000
v 0.445096 0.471000 -0.000000
v 0.452868 0.483599 -0.000000
v 0.460776 0.496125 -0.000000
v 0.468705 0.508422 -0.000000
v 0.476540 0.520334 -0.000000
v 0.484167 0.531703 -0.000000
v 0.491471 0.542375 -0.000000
v 0.498337 0.552193 -0.000000
v 1.697651 0.682000 -0.000000
v 1.786651 0.682000 -0.000000
v 1.786651 0.025000 -0.000000
v 1.775249 0.019920 -0.000000
v 1.763100 0.015190 -0.000000
v 1.750292 0.010828 -0.000000
v 1.736910 0.006852 -0.000000
v 1.723043 0.003278 -0.000000
v 1.708776 0.000125 -0.000000
v 1.694197 -0.002591 0.000000
v 1.679392 -0.004852 0.000000
v 1.664448 -0.006641 0.000000
v 1.649452 -0.007940 0.000000
v 1.634491 -0.008732 0.000000
v 1.619651 -0.009000 0.000000
v 1.583418 -0.007121 0.000000
v 1.549790 -0.001555 0.000000
v 1.518870 0.007594 -0.000000
v 1.490762 0.020222 -0.000000
v 1.465571 0.036226 -0.000000
v 1.443401 0.055500 -0.000000
v 1.424356 0.077941 -0.000000
v 1.408540 0.103445 -0.000000
v 1.396057 0.131906 -0.000000
v 1.387012 0.163222 -0.000000
v 1.381509 0.197288 -0.000000
v 1.379651 0.234000 -0.000000
v 1.381329 0.265507 -0.000000
v 1.386244 0.295384 -0.000000
v 1.394214 0.323422 -0.000000
v 1.405059 0.349408 -0.000000
v 1.418598 0.373129 -0.000000
v 1.434651 0.394375 -0.000000
v 1.453038 0.412934 -0.000000
v 1.473577 0.428593 -0.000000
v 1.496089 0.441141 -0.000000
v 1.520392 0.450366 -0.000000
v 1.546306 0.456056 -0.000000
v 1.573651 0.458000 -0.000000
v 1.584799 0.457728 -0.000000
v 1.595753 0.456908 -0.000000
v 1.606526 0.455531 -0.000000
v 1.617133 0.453593 -0.000000
v 1.627586 0.451085 -0.000000
v 1.637901 0.448000 -0.000000
v 1.648091 0.444332 -0.000000
v 1.658170 0.440074 -0.000000
v 1.668151 0.435219 -0.000000
v 1.678049 0.429759 -0.000000
v 1.687878 0.423689 -0.000000
v 1.697651 0.417000 -0.000000
v 1.697651 0.332000 -0.000000
v 1.688368 0.340048 -0.000000
v 1.679471 0.347213 -0.000000
v 1.670886 0.353531 -0.000000
v 1.662540 0.359037 -0.000000
v 1.654361 0.363765 -0.000000
v 1.646276 0.367750 -0.000000
v 1.638212 0.371027 -0.000000
v 1.630096 0.373630 -0.000000
v 1.621854 0.375594 -0.000000
v 1.613415 0.376954 -0.000000
v 1.604705 0.377744 -0.000000
v 1.595651 0.378000 -0.000000
v 1.577436 0.376725 -0.000000
v 1.560350 0.372968 -0.000000
v 1.544479 0.366828 -0.000000
v 1.529910 0.358408 -0.000000
v 1.516730 0.347806 -0.000000
v 1.505026 0.335125 -0.000000
v 1.494884 0.320465 -0.000000
v 1.486392 0.303926 -0.000000
v 1.479635 0.285610 -0.000000
v 1.474702 0.265616 -0.000000
v 1.471678 0.244046 -0.000000
v 1.470651 0.221000 -0.000000
v 1.471819 0.200272 -0.000000
v 1.475244 0.180671 -0.000000
v 1.480807 0.162328 -0.000000
v 1.488392 0.145370 -0.000000
v 1.497879 0.129927 -0.000000
v 1.509151 0.116125 -0.000000
v 1.522090 0.104094 -0.000000
v 1.536577 0.093963 -0.000000
v 1.552495 0.085859 -0.000000
v 1.569725 0.079912 -0.000000
v 1.588150 0.076250 -0.000000
v 1.607651 0.075000 -0.000000
v 1.614387 0.075123 -0.000000
v 1.621540 0.075482 -0.000000
v 1.629026 0.076063 -0.000000
v 1.636762 0.076852 -0.000000
v 1.644665 0.077836 -0.000000
v 1.652651 0.079000 -0.000000
v 1.660637 0.080331 -0.000000
v 1.668540 0.081815 -0.000000
v 1.676276 0.083438 -0.000000
v 1.683762 0.085185 -0.000000
v 1.690915 0.087044 -0.000000
v 1.697651 0.089000 -0.000000
v 1.861651 0.080000 -0.000000
v 1.866605 0.076377 -0.000000
v 1.871452 0.073014 -0.000000
v 1.876167 0.069922 -0.000000
v 1.880725 0.067111 -0.000000
v 1.885103 0.064592 -0.000000
v 1.889276 0.062375 -0.000000
v 1.893220 0.060471 -0.000000
v 1.896910 0.058889 -0.000000
v 1.900323 0.057641 -0.000000
v 1.903434 0.056736 -0.000000
v 1.906218 0.056186 -0.000000
v 1.908651 0.056000 -0.000000
v 1.911296 0.056128 -0.000000
v 1.913730 0.056523 -0.000000
v 1.915948 0.057203 -0.000000
v 1.917948 0.058185 -0.000000
v 1.919725 0.059487 -0.000000
v 1.921276 0.061125 -0.000000
v 1.922598 0.063118 -0.000000
v 1.923688 0.065482 -0.000000
v 1.924542 0.068234 -0.000000
v 1.925156 0.071394 -0.000000
v 1.925527 0.074976 -0.000000
v 1.925651 0.079000 -0.000000
v 1.925651 0.310000 -0.000000
v 1.927120 0.334339 -0.000000
v 1.931406 0.356380 -0.000000
v 1.938323 0.376156 -0.000000
v 1.947688 0.393704 -0.000000
v 1.959317 0.409057 -0.000000
v 1.973026 0.422250 -0.000000
v 1.988631 0.433318 -0.000000
v 2.005947 0.442296 -0.000000
v 2.024792 0.449219 -0.000000
v 2.044980 0.454120 -0.000000
v 2.066328 0.457036 -0.000000
v 2.088651 0.458000 -0.000000
v 2.104569 0.457583 -0.000000
v 2.119827 0.456329 -0.000000
v 2.134432 0.454234 -0.000000
v 2.148392 0.451296 -0.000000
v 2.161712 0.447511 -0.000000
v 2.174401 0.442875 -0.000000
v 2.186465 0.437385 -0.000000
v 2.197910 0.431037 -0.000000
v 2.208745 0.423828 -0.000000
v 2.218975 0.415755 -0.000000
v 2.228608 0.406813 -0.000000
v 2.237651 0.397000 -0.000000
v 2.237651 0.300000 -0.000000
v 2.226760 0.312170 -0.000000
v 2.215605 0.323190 -0.000000
v 2.204214 0.333078 -0.000000
v 2.192614 0.341852 -0.000000
v 2.180834 0.349528 -0.000000
v 2.168901 0.356125 -0.000000
v 2.156843 0.361659 -0.000000
v 2.144688 0.366148 -0.000000
v 2.132464 0.369609 -0.000000
v 2.120198 0.372060 -0.000000
v 2.107917 0.373518 -0.000000
v 2.095651 0.374000 -0.000000
v 2.082714 0.373515 -0.000000
v 2.070901 0.372037 -0.000000
v 2.060214 0.369531 -0.000000
v 2.050651 0.365963 -0.000000
v 2.042214 0.361298 -0.000000
v 2.034901 0.355500 -0.000000
v 2.028714 0.348536 -0.000000
v 2.023651 0.340370 -0.000000
v 2.019714 0.330969 -0.000000
v 2.016901 0.320296 -0.000000
v 2.015213 0.308318 -0.000000
v 2.014651 0.295000 -0.000000
v 2.014651 0.271000 -0.000000
v 2.093651 0.243000 -0.000000
v 2.111787 0.236444 -0.000000
v 2.129984 0.229634 -0.000000
v 2.147933 0.222359 -0.000000
v 2.165318 0.214407 -0.000000
v 2.181828 0.205567 -0.000000
v 2.197151 0.195625 -0.000000
v 2.210974 0.184371 -0.000000
v 2.222985 0.171593 -0.000000
v 2.232870 0.157078 -0.000000
v 2.240318 0.140616 -0.000000
v 2.245016 0.121994 -0.000000
v 2.246651 0.101000 -0.000000
v 2.245747 0.086652 -0.000000
v 2.243086 0.072713 -0.000000
v 2.238745 0.059344 -0.000000
v 2.232799 0.046704 -0.000000
v 2.225326 0.034953 -0.000000
v 2.216401 0.024250 -0.000000
v 2.206101 0.014756 -0.000000
v 2.194503 0.006630 -0.000000
v 2.181682 0.000031 -0.000000
v 2.167716 -0.004880 0.000000
v 2.152680 -0.007943 0.000000
v 2.136651 -0.009000 0.000000
v 2.126402 -0.008687 0.000000
v 2.116160 -0.007745 0.000000
v 2.105932 -0.006172 0.000000
v 2.095725 -0.003963 0.000000
v 2.085546 -0.001115 0.000000
v 2.075401 0.002375 -0.000000
v 2.065298 0.006511 -0.000000
v 2.055244 0.011296 -0.000000
v 2.045245 0.016734 -0.000000
v 2.035309 0.022829 -0.000000
v 2.025442 0.029583 -0.000000
v 2.015651 0.037000 -0.000000
v 2.013377 0.029373 -0.000000
v 2.010545 0.022482 -0.000000
v 2.007135 0.016313 -0.000000
v 2.003133 0.010852 -0.000000
v 1.998519 0.006086 -0.000000
v 1.993276 0.002000 -0.000000
v 1.987388 -0.001419 0.000000
v 1.980836 -0.004185 0.000000
v 1.973604 -0.006312 0.000000
v 1.965674 -0.007815 0.000000
v 1.957029 -0.008706 0.000000
v 1.947651 -0.009000 0.000000
v 1.940860 -0.008827 0.000000
v 1.934406 -0.008282 0.000000
v 1.928167 -0.007328 0.000000
v 1.922022 -0.005926 0.000000
v 1.915848 -0.004038 0.000000
v 1.909526 -0.001625 0.000000
v 1.902933 0.001350 -0.000000
v 1.895947 0.004926 -0.000000
v 1.888448 0.009141 -0.000000
v 1.880313 0.014032 -0.000000
v 1.871421 0.019640 -0.000000
v 1.861651 0.026000 -0.000000
v 2.014651 0.091000 -0.000000
v 2.020693 0.085440 -0.000000
v 2.026818 0.080273 -0.000000
v 2.033026 0.075516 -0.000000
v 2.039318 0.071185 -0.000000
v 2.045693 0.067299 -0.000000
v 2.052151 0.063875 -0.000000
v 2.058693 0.060930 -0.000000
v 2.065318 0.058482 -0.000000
v 2.072026 0.056547 -0.000000
v 2.078818 0.055144 -0.000000
v 2.085693 0.054289 -0.000000
v 2.092651 0.054000 -0.000000
v 2.101683 0.054533 -0.000000
v 2.110239 0.056097 -0.000000
v 2.118260 0.058641 -0.000000
v 2.125688 0.062111 -0.000000
v 2.132463 0.066457 -0.000000
v 2.138526 0.071625 -0.000000
v 2.143818 0.077564 -0.000000
v 2.148281 0.084222 -0.000000
v 2.151854 0.091547 -0.000000
v 2.154480 0.099486 -0.000000
v 2.156098 0.107988 -0.000000
v 2.156651 0.117000 -0.000000
v 2.155308 0.129703 -0.000000
v 2.151410 0.141375 -0.000000
v 2.145151 0.152109 -0.000000
v 2.136725 0.162000 -0.000000
v 2.126327 0.171141 -0.000000
v 2.114151 0.179625 -0.000000
v 2.100392 0.187547 -0.000000
v 2.085244 0.195000 -0.000000
v 2.068901 0.202078 -0.000000
v 2.051558 0.208875 -0.000000
v 2.033411 0.215484 -0.000000
v 2.014651 0.222000 -0.000000
v 2.438651 0.542000 -0.000000
v 2.605651 0.379000 -0.000000
v 2.605651 0.369000 -0.000000
v 2.527651 0.369000 -0.000000
v 2.527651 0.132000 -0.000000
v 2.526631 0.112210 -0.000000
v 2.523572 0.093431 -0.000000
v 2.518479 0.075797 -0.000000
v 2.511355 0.059444 -0.000000
v 2.502203 0.044509 -0.000000
v 2.491026 0.031125 -0.000000
v 2.477829 0.019429 -0.000000
v 2.462614 0.009556 -0.000000
v 2.445385 0.001641 -0.000000
v 2.426147 -0.004181 0.000000
v 2.404901 -0.007773 0.000000
v 2.381651 -0.009000 0.000000
v 2.374026 -0.008734 0.000000
v 2.365735 -0.007958 0.000000
v 2.356901 -0.006703 0.000000
v 2.347651 -0.005000 0.000000
v 2.338109 -0.002880 0.000000
v 2.328401 -0.000375 0.000000
v 2.318651 0.002484 -0.000000
v 2.308985 0.005667 -0.000000
v 2.299526 0.009141 -0.000000
v 2.290401 0.012875 -0.000000
v 2.281734 0.016839 -0.000000
v 2.273651 0.021000 -0.000000
v 2.273651 0.104000 -0.000000
v 2.282590 0.098729 -0.000000
v 2.291410 0.093917 -0.000000
v 2.300120 0.089563 -0.000000
v 2.308725 0.085667 -0.000000
v 2.317233 0.082229 -0.000000
v 2.325651 0.079250 -0.000000
v 2.333986 0.076729 -0.000000
v 2.342244 0.074667 -0.000000
v 2.350432 0.073063 -0.000000
v 2.358559 0.071917 -0.000000
v 2.366629 0.071229 -0.000000
v 2.374651 0.071000 -0.000000
v 2.381372 0.071326 -0.000000
v 2.388420 0.072357 -0.000000
v 2.395620 0.074172 -0.000000
v 2.402799 0.076852 -0.000000
v 2.409784 0.080476 -0.000000
v 2.416401 0.085125 -0.000000
v 2.422476 0.090878 -0.000000
v 2.427836 0.097815 -0.000000
v 2.432307 0.106016 -0.000000
v 2.435716 0.115560 -0.000000
v 2.437888 0.126528 -0.000000
v 2.438651 0.139000 -0.000000
v 2.438651 0.369000 -0.000000
v 2.296651 0.369000 -0.000000
v 2.296651 0.449000 -0.000000
v 2.438651 0.449000 -0.000000
vn -0.0000 -0.0000 -1.0000
vn -0.0000 -0.0000 1.0000
vt 0.135678 0.000000
vt 0.256281 0.000000
vt 0.130653 0.000000
vt 0.251256 0.000000
vt 0.246231 0.000000
vt 0.140704 0.000000
vt 0.241206 0.000000
vt 0.145729 0.000000
vt 0.005025 0.000000
vt 0.125628 0.000000
vt 0.000000 0.000000
vt 0.150754 0.000000
vt 0.236181 0.000000
vt 0.120603 0.000000
vt 0.155779 0.000000
vt 0.115578 0.000000
vt 0.231156 0.000000
vt 0.010050 0.000000
vt 0.160804 0.000000
vt 0.110553 0.000000
vt 0.226131 0.000000
vt 0.015075 0.000000
vt 0.165829 0.000000
vt 0.105528 0.000000
vt 0.020101 0.000000
vt 0.221106 0.000000
vt 0.170854 0.000000
vt 0.025126 0.000000
vt 0.100503 0.000000
vt 0.216080 0.000000
vt 0.175879 0.000000
vt 0.030151 0.000000
vt 0.095477 0.000000
vt 0.211055 0.000000
vt 0.180905 0.000000
vt 0.035176 0.000000
vt 0.090452 0.000000
vt 0.206030 0.000000
vt 0.185930 0.000000
vt 0.201005 0.000000
vt 0.040201 0.000000
vt 0.085427 0.000000
vt 0.190955 0.000000
vt 0.195980 0.000000
vt 0.045226 0.000000
vt 0.080402 0.000000
vt 0.075377 0.000000
vt 0.050251 0.000000
vt 0.271357 0.000000
vt 0.261307 0.000000
vt 0.266332 0.000000
vt 0.276382 0.000000
vt 0.452261 0.000000
vt 0.442211 0.000000
vt 0.447236 0.000000
vt 0.281407 0.000000
vt 0.437186 0.000000
vt 0.070352 0.000000
vt 0.432161 0.000000
vt 0.286432 0.000000
vt 0.427136 0.000000
vt 0.055276 0.000000
vt 0.291457 0.000000
vt 0.422111 0.000000
vt 0.417085 0.000000
vt 0.296482 0.000000
vt 0.412060 0.000000
vt 0.301508 0.000000
vt 0.407035 0.000000
vt 0.306533 0.000000
vt 0.402010 0.000000
vt 0.311558 0.000000
vt 0.396985 0.000000
vt 0.316583 0.000000
vt 0.391960 0.000000
vt 0.321608 0.000000
vt 0.386935 0.000000
vt 0.326633 0.000000
vt 0.381910 0.000000
vt 0.376884 0.000000
vt 0.371859 0.000000
vt 0.366834 0.000000
vt 0.361809 0.000000
vt 0.356784 0.000000
vt 0.351759 0.000000
vt 0.346734 0.000000
vt 0.341709 0.000000
vt 0.336683 0.000000
vt 0.331658 0.000000
vt 0.060302 0.000000
vt 0.065327 0.000000
vt 0.457286 0.000000
vt 1.000000 0.000000
vt 0.994975 0.000000
vt 0.462312 0.000000
vt 0.989950 0.000000
vt 0.467337 0.000000
vt 0.472362 0.000000
vt 0.984925 0.000000
vt 0.477387 0.000000
vt 0.979900 0.000000
vt 0.482412 0.000000
vt 0.487437 0.000000
vt 0.974874 0.000000
vt 0.492462 0.000000
vt 0.969849 0.000000
vt 0.497487 0.000000
vt 0.964824 0.000000
vt 0.502513 0.000000
vt 0.959799 0.000000
vt 0.954774 0.000000
vt 0.507538 0.000000
vt 0.949749 0.000000
vt 0.944724 0.000000
vt 0.512563 0.000000
vt 0.522613 0.000000
vt 0.527638 0.000000
vt 0.532663 0.000000
vt 0.537688 0.000000
vt 0.542714 0.000000
vt 0.547739 0.000000
vt 0.552764 0.000000
vt 0.557789 0.000000
vt 0.562814 0.000000
vt 0.567839 0.000000
vt 0.572864 0.000000
vt 0.939699 0.000000
vt 0.517588 0.000000
vt 0.577889 0.000000
vt 0.934673 0.000000
vt 0.582915 0.000000
vt 0.929648 0.000000
vt 0.587940 0.000000
vt 0.924623 0.000000
vt 0.592965 0.000000
vt 0.919598 0.000000
vt 0.597990 0.000000
vt 0.914573 0.000000
vt 0.603015 0.000000
vt 0.909548 0.000000
vt 0.608040 0.000000
vt 0.613065 0.000000
vt 0.904523 0.000000
vt 0.618090 0.000000
vt 0.899498 0.000000
vt 0.623116 0.000000
vt 0.894472 0.000000
vt 0.628141 0.000000
vt 0.889447 0.000000
vt 0.633166 0.000000
vt 0.884422 0.000000
vt 0.638191 0.000000
vt 0.879397 0.000000
vt 0.643216 0.000000
vt 0.874372 0.000000
vt 0.648241 0.000000
vt 0.758794 0.000000
vt 0.869347 0.000000
vt 0.753769 0.000000
vt 0.763819 0.000000
vt 0.864322 0.000000
vt 0.653266 0.000000
vt 0.768844 0.000000
vt 0.748744 0.000000
vt 0.859297 0.000000
vt 0.658291 0.000000
vt 0.773869 0.000000
vt 0.743719 0.000000
vt 0.854271 0.000000
vt 0.663317 0.000000
vt 0.778894 0.000000
vt 0.738693 0.000000
vt 0.849246 0.000000
vt 0.668342 0.000000
vt 0.783920 0.000000
vt 0.733668 0.000000
vt 0.844221 0.000000
vt 0.673367 0.000000
vt 0.788945 0.000000
vt 0.728643 0.000000
vt 0.839196 0.000000
vt 0.678392 0.000000
vt 0.793970 0.000000
vt 0.723618 0.000000
vt 0.683417 0.000000
vt 0.834171 0.000000
vt 0.798995 0.000000
vt 0.718593 0.000000
vt 0.688442 0.000000
vt 0.829146 0.000000
vt 0.804020 0.000000
vt 0.693467 0.000000
vt 0.713568 0.000000
vt 0.824121 0.000000
vt 0.698492 0.000000
vt 0.809045 0.000000
vt 0.708543 0.000000
vt 0.814070 0.000000
vt 0.819095 0.000000
vt 0.703518 0.000000
vt 0.013699 0.000000
vt 0.534247 0.000000
vt 0.506849 0.000000
vt 0.520548 0.000000
vt 0.986301 0.000000
vt 0.547945 0.000000
vt 0.972603 0.000000
vt 0.561644 0.000000
vt 0.958904 0.000000
vt 0.575342 0.000000
vt 0.945205 0.000000
vt 0.589041 0.000000
vt 0.931507 0.000000
vt 0.602740 0.000000
vt 0.917808 0.000000
vt 0.616438 0.000000
vt 0.904110 0.000000
vt 0.630137 0.000000
vt 0.890411 0.000000
vt 0.643836 0.000000
vt 0.876712 0.000000
vt 0.657534 0.000000
vt 0.863014 0.000000
vt 0.671233 0.000000
vt 0.849315 0.000000
vt 0.684932 0.000000
vt 0.835616 0.000000
vt 0.821918 0.000000
vt 0.808219 0.000000
vt 0.794521 0.000000
vt 0.780822 0.000000
vt 0.767123 0.000000
vt 0.753425 0.000000
vt 0.739726 0.000000
vt 0.726027 0.000000
vt 0.712329 0.000000
vt 0.698630 0.000000
vt 0.027397 0.000000
vt 0.041096 0.000000
vt 0.054795 0.000000
vt 0.068493 0.000000
vt 0.082192 0.000000
vt 0.095890 0.000000
vt 0.109589 0.000000
vt 0.123288 0.000000
vt 0.136986 0.000000
vt 0.150685 0.000000
vt 0.164384 0.000000
vt 0.178082 0.000000
vt 0.191781 0.000000
vt 0.205479 0.000000
vt 0.219178 0.000000
vt 0.246575 0.000000
vt 0.287671 0.000000
vt 0.315068 0.000000
vt 0.328767 0.000000
vt 0.342466 0.000000
vt 0.356164 0.000000
vt 0.369863 0.000000
vt 0.383562 0.000000
vt 0.397260 0.000000
vt 0.410959 0.000000
vt 0.424658 0.000000
vt 0.438356 0.000000
vt 0.232877 0.000000
vt 0.260274 0.000000
vt 0.273973 0.000000
vt 0.301370 0.000000
vt 0.452055 0.000000
vt 0.465753 0.000000
vt 0.479452 0.000000
vt 0.493151 0.000000
vt 0.280528 0.000000
vt 0.273927 0.000000
vt 0.277228 0.000000
vt 0.270627 0.000000
vt 0.283828 0.000000
vt 0.267327 0.000000
vt 0.287129 0.000000
vt 0.290429 0.000000
vt 0.264026 0.000000
vt 0.293729 0.000000
vt 0.260726 0.000000
vt 0.297030 0.000000
vt 0.257426 0.000000
vt 0.300330 0.000000
vt 0.254125 0.000000
vt 0.303630 0.000000
vt 0.036304 0.000000
vt 0.039604 0.000000
vt 0.042904 0.000000
vt 0.250825 0.000000
vt 0.033003 0.000000
vt 0.046205 0.000000
vt 0.029703 0.000000
vt 0.049505 0.000000
vt 0.026403 0.000000
vt 0.052805 0.000000
vt 0.306931 0.000000
vt 0.023102 0.000000
vt 0.056106 0.000000
vt 0.247525 0.000000
vt 0.019802 0.000000
vt 0.059406 0.000000
vt 0.016502 0.000000
vt 0.062706 0.000000
vt 0.310231 0.000000
vt 0.244224 0.000000
vt 0.013201 0.000000
vt 0.066007 0.000000
vt 0.009901 0.000000
vt 0.069307 0.000000
vt 0.920792 0.000000
vt 0.914191 0.000000
vt 0.917492 0.000000
vt 0.910891 0.000000
vt 0.313531 0.000000
vt 0.240924 0.000000
vt 0.907591 0.000000
vt 0.924092 0.000000
vt 0.006601 0.000000
vt 0.072607 0.000000
vt 0.904290 0.000000
vt 0.927393 0.000000
vt 0.900990 0.000000
vt 0.930693 0.000000
vt 0.003300 0.000000
vt 0.075908 0.000000
vt 0.158416 0.000000
vt 0.237624 0.000000
vt 0.897690 0.000000
vt 0.933993 0.000000
vt 0.079208 0.000000
vt 0.894389 0.000000
vt 0.937294 0.000000
vt 0.161716 0.000000
vt 0.155116 0.000000
vt 0.082508 0.000000
vt 0.234323 0.000000
vt 0.940594 0.000000
vt 0.891089 0.000000
vt 0.943894 0.000000
vt 0.887789 0.000000
vt 0.151815 0.000000
vt 0.085809 0.000000
vt 0.947195 0.000000
vt 0.884488 0.000000
vt 0.165017 0.000000
vt 0.231023 0.000000
vt 0.148515 0.000000
vt 0.089109 0.000000
vt 0.950495 0.000000
vt 0.881188 0.000000
vt 0.145215 0.000000
vt 0.092409 0.000000
vt 0.953795 0.000000
vt 0.877888 0.000000
vt 0.168317 0.000000
vt 0.227723 0.000000
vt 0.141914 0.000000
vt 0.095710 0.000000
vt 0.957096 0.000000
vt 0.874587 0.000000
vt 0.960396 0.000000
vt 0.138614 0.000000
vt 0.099010 0.000000
vt 0.871287 0.000000
vt 0.171617 0.000000
vt 0.224422 0.000000
vt 0.135314 0.000000
vt 0.102310 0.000000
vt 0.132013 0.000000
vt 0.105611 0.000000
vt 0.174917 0.000000
vt 0.221122 0.000000
vt 0.128713 0.000000
vt 0.108911 0.000000
vt 0.125413 0.000000
vt 0.112211 0.000000
vt 0.122112 0.000000
vt 0.115512 0.000000
vt 0.118812 0.000000
vt 0.178218 0.000000
vt 0.217822 0.000000
vt 0.181518 0.000000
vt 0.214521 0.000000
vt 0.184818 0.000000
vt 0.211221 0.000000
vt 0.188119 0.000000
vt 0.207921 0.000000
vt 0.191419 0.000000
vt 0.204620 0.000000
vt 0.194719 0.000000
vt 0.201320 0.000000
vt 0.198020 0.000000
vt 0.491749 0.000000
vt 0.488449 0.000000
vt 0.831683 0.000000
vt 0.825082 0.000000
vt 0.828383 0.000000
vt 0.834984 0.000000
vt 0.996700 0.000000
vt 0.838284 0.000000
vt 0.993399 0.000000
vt 0.841584 0.000000
vt 0.990099 0.000000
vt 0.844885 0.000000
vt 0.986799 0.000000
vt 0.848185 0.000000
vt 0.983498 0.000000
vt 0.851485 0.000000
vt 0.980198 0.000000
vt 0.854786 0.000000
vt 0.976898 0.000000
vt 0.858086 0.000000
vt 0.973597 0.000000
vt 0.861386 0.000000
vt 0.970297 0.000000
vt 0.864686 0.000000
vt 0.966997 0.000000
vt 0.867987 0.000000
vt 0.963696 0.000000
vt 0.495050 0.000000
vt 0.498350 0.000000
vt 0.501650 0.000000
vt 0.504951 0.000000
vt 0.508251 0.000000
vt 0.511551 0.000000
vt 0.514852 0.000000
vt 0.518152 0.000000
vt 0.521452 0.000000
vt 0.524752 0.000000
vt 0.528053 0.000000
vt 0.531353 0.000000
vt 0.534653 0.000000
vt 0.785479 0.000000
vt 0.788779 0.000000
vt 0.792079 0.000000
vt 0.795380 0.000000
vt 0.798680 0.000000
vt 0.801980 0.000000
vt 0.805281 0.000000
vt 0.808581 0.000000
vt 0.811881 0.000000
vt 0.815181 0.000000
vt 0.818482 0.000000
vt 0.821782 0.000000
vt 0.537954 0.000000
vt 0.782178 0.000000
vt 0.778878 0.000000
vt 0.541254 0.000000
vt 0.775578 0.000000
vt 0.544554 0.000000
vt 0.772277 0.000000
vt 0.547855 0.000000
vt 0.768977 0.000000
vt 0.551155 0.000000
vt 0.765677 0.000000
vt 0.323432 0.000000
vt 0.316832 0.000000
vt 0.320132 0.000000
vt 0.405941 0.000000
vt 0.485149 0.000000
vt 0.402640 0.000000
vt 0.554455 0.000000
vt 0.481848 0.000000
vt 0.326733 0.000000
vt 0.762376 0.000000
vt 0.399340 0.000000
vt 0.409241 0.000000
vt 0.478548 0.000000
vt 0.330033 0.000000
vt 0.412541 0.000000
vt 0.396040 0.000000
vt 0.557756 0.000000
vt 0.475248 0.000000
vt 0.333333 0.000000
vt 0.415842 0.000000
vt 0.759076 0.000000
vt 0.392739 0.000000
vt 0.471947 0.000000
vt 0.336634 0.000000
vt 0.419142 0.000000
vt 0.389439 0.000000
vt 0.468647 0.000000
vt 0.561056 0.000000
vt 0.339934 0.000000
vt 0.422442 0.000000
vt 0.465347 0.000000
vt 0.755776 0.000000
vt 0.386139 0.000000
vt 0.343234 0.000000
vt 0.425743 0.000000
vt 0.462046 0.000000
vt 0.382838 0.000000
vt 0.564356 0.000000
vt 0.346535 0.000000
vt 0.429043 0.000000
vt 0.458746 0.000000
vt 0.752475 0.000000
vt 0.379538 0.000000
vt 0.349835 0.000000
vt 0.432343 0.000000
vt 0.455446 0.000000
vt 0.567657 0.000000
vt 0.376238 0.000000
vt 0.353135 0.000000
vt 0.435644 0.000000
vt 0.452145 0.000000
vt 0.356436 0.000000
vt 0.749175 0.000000
vt 0.372937 0.000000
vt 0.438944 0.000000
vt 0.448845 0.000000
vt 0.570957 0.000000
vt 0.359736 0.000000
vt 0.369637 0.000000
vt 0.442244 0.000000
vt 0.363036 0.000000
vt 0.445545 0.000000
vt 0.745875 0.000000
vt 0.366337 0.000000
vt 0.574257 0.000000
vt 0.742574 0.000000
vt 0.577558 0.000000
vt 0.580858 0.000000
vt 0.584158 0.000000
vt 0.739274 0.000000
vt 0.587459 0.000000
vt 0.590759 0.000000
vt 0.594059 0.000000
vt 0.597360 0.000000
vt 0.660066 0.000000
vt 0.653465 0.000000
vt 0.656766 0.000000
vt 0.650165 0.000000
vt 0.600660 0.000000
vt 0.646865 0.000000
vt 0.643564 0.000000
vt 0.603960 0.000000
vt 0.640264 0.000000
vt 0.735974 0.000000
vt 0.636964 0.000000
vt 0.607261 0.000000
vt 0.633663 0.000000
vt 0.610561 0.000000
vt 0.630363 0.000000
vt 0.627063 0.000000
vt 0.613861 0.000000
vt 0.623762 0.000000
vt 0.620462 0.000000
vt 0.617162 0.000000
vt 0.732673 0.000000
vt 0.729373 0.000000
vt 0.726073 0.000000
vt 0.722772 0.000000
vt 0.719472 0.000000
vt 0.716172 0.000000
vt 0.712871 0.000000
vt 0.709571 0.000000
vt 0.663366 0.000000
vt 0.666667 0.000000
vt 0.669967 0.000000
vt 0.706271 0.000000
vt 0.673267 0.000000
vt 0.676568 0.000000
vt 0.679868 0.000000
vt 0.702970 0.000000
vt 0.683168 0.000000
vt 0.686469 0.000000
vt 0.689769 0.000000
vt 0.699670 0.000000
vt 0.693069 0.000000
vt 0.696370 0.000000
vt 0.469136 0.000000
vt 0.456790 0.000000
vt 0.462963 0.000000
vt 0.475309 0.000000
vt 0.481481 0.000000
vt 0.487654 0.000000
vt 0.493827 0.000000
vt 0.500000 0.000000
vt 0.506173 0.000000
vt 0.512346 0.000000
vt 0.518519 0.000000
vt 0.524691 0.000000
vt 0.530864 0.000000
vt 0.537037 0.000000
vt 0.543210 0.000000
vt 0.549383 0.000000
vt 0.555556 0.000000
vt 0.561728 0.000000
vt 0.567901 0.000000
vt 0.574074 0.000000
vt 0.580247 0.000000
vt 0.586420 0.000000
vt 0.592593 0.000000
vt 0.598765 0.000000
vt 0.604938 0.000000
vt 0.611111 0.000000
vt 0.617284 0.000000
vt 0.623457 0.000000
vt 0.629630 0.000000
vt 0.635802 0.000000
vt 0.641975 0.000000
vt 0.648148 0.000000
vt 0.654321 0.000000
vt 0.660494 0.000000
vt 0.672840 0.000000
vt 0.679012 0.000000
vt 0.006173 0.000000
vt 0.012346 0.000000
vt 0.018519 0.000000
vt 0.024691 0.000000
vt 0.030864 0.000000
vt 0.037037 0.000000
vt 0.043210 0.000000
vt 0.049383 0.000000
vt 0.055556 0.000000
vt 0.080247 0.000000
vt 0.425926 0.000000
vt 0.432099 0.000000
vt 0.438272 0.000000
vt 0.444444 0.000000
vt 0.450617 0.000000
vt 0.419753 0.000000
vt 0.413580 0.000000
vt 0.407407 0.000000
vt 0.401235 0.000000
vt 0.395062 0.000000
vt 0.388889 0.000000
vt 0.061728 0.000000
vt 0.074074 0.000000
vt 0.086420 0.000000
vt 0.382716 0.000000
vt 0.067901 0.000000
vt 0.376543 0.000000
vt 0.092593 0.000000
vt 0.370370 0.000000
vt 0.098765 0.000000
vt 0.364198 0.000000
vt 0.104938 0.000000
vt 0.358025 0.000000
vt 0.851852 0.000000
vt 0.845679 0.000000
vt 0.111111 0.000000
vt 0.993827 0.000000
vt 0.351852 0.000000
vt 0.987654 0.000000
vt 0.858025 0.000000
vt 0.981481 0.000000
vt 0.864198 0.000000
vt 0.117284 0.000000
vt 0.345679 0.000000
vt 0.975309 0.000000
vt 0.691358 0.000000
vt 0.839506 0.000000
vt 0.685185 0.000000
vt 0.870370 0.000000
vt 0.833333 0.000000
vt 0.969136 0.000000
vt 0.876543 0.000000
vt 0.827160 0.000000
vt 0.123457 0.000000
vt 0.697531 0.000000
vt 0.962963 0.000000
vt 0.339506 0.000000
vt 0.882716 0.000000
vt 0.820988 0.000000
vt 0.703704 0.000000
vt 0.956790 0.000000
vt 0.888889 0.000000
vt 0.814815 0.000000
vt 0.709877 0.000000
vt 0.950617 0.000000
vt 0.895062 0.000000
vt 0.129630 0.000000
vt 0.808642 0.000000
vt 0.716049 0.000000
vt 0.901235 0.000000
vt 0.944444 0.000000
vt 0.802469 0.000000
vt 0.722222 0.000000
vt 0.907407 0.000000
vt 0.938272 0.000000
vt 0.728395 0.000000
vt 0.796296 0.000000
vt 0.135802 0.000000
vt 0.913580 0.000000
vt 0.932099 0.000000
vt 0.327161 0.000000
vt 0.734568 0.000000
vt 0.790123 0.000000
vt 0.919753 0.000000
vt 0.925926 0.000000
vt 0.740741 0.000000
vt 0.783951 0.000000
vt 0.746914 0.000000
vt 0.777778 0.000000
vt 0.141975 0.000000
vt 0.320988 0.000000
vt 0.753086 0.000000
vt 0.771605 0.000000
vt 0.759259 0.000000
vt 0.765432 0.000000
vt 0.314815 0.000000
vt 0.148148 0.000000
vt 0.308642 0.000000
vt 0.154321 0.000000
vt 0.302469 0.000000
vt 0.160494 0.000000
vt 0.296296 0.000000
vt 0.166667 0.000000
vt 0.290123 0.000000
vt 0.172840 0.000000
vt 0.283951 0.000000
vt 0.277778 0.000000
vt 0.179012 0.000000
vt 0.271605 0.000000
vt 0.185185 0.000000
vt 0.265432 0.000000
vt 0.259259 0.000000
vt 0.191358 0.000000
vt 0.253086 0.000000
vt 0.246914 0.000000
vt 0.240741 0.000000
vt 0.234568 0.000000
vt 0.197531 0.000000
vt 0.228395 0.000000
vt 0.203704 0.000000
vt 0.209877 0.000000
vt 0.216049 0.000000
vt 0.222222 0.000000
vt 0.020202 0.000000
vt 0.010101 0.000000
vt 0.505050 0.000000
vt 0.393939 0.000000
vt 0.373737 0.000000
vt 0.383838 0.000000
vt 0.404040 0.000000
vt 0.414141 0.000000
vt 0.363636 0.000000
vt 0.424242 0.000000
vt 0.434343 0.000000
vt 0.353535 0.000000
vt 0.454545 0.000000
vt 0.464646 0.000000
vt 0.343434 0.000000
vt 0.474747 0.000000
vt 0.484848 0.000000
vt 0.494949 0.000000
vt 0.515152 0.000000
vt 0.525253 0.000000
vt 0.535354 0.000000
vt 0.545455 0.000000
vt 0.565657 0.000000
vt 0.575758 0.000000
vt 0.585859 0.000000
vt 0.595960 0.000000
vt 0.606061 0.000000
vt 0.616162 0.000000
vt 0.323232 0.000000
vt 0.626263 0.000000
vt 0.636364 0.000000
vt 0.313131 0.000000
vt 0.646465 0.000000
vt 0.656566 0.000000
vt 0.303030 0.000000
vt 0.676768 0.000000
vt 0.686869 0.000000
vt 0.292929 0.000000
vt 0.696970 0.000000
vt 0.707071 0.000000
vt 0.282828 0.000000
vt 0.717172 0.000000
vt 0.727273 0.000000
vt 0.272727 0.000000
vt 0.737374 0.000000
vt 0.747475 0.000000
vt 0.262626 0.000000
vt 0.757576 0.000000
vt 0.252525 0.000000
vt 0.767677 0.000000
vt 0.242424 0.000000
vt 0.787879 0.000000
vt 0.232323 0.000000
vt 0.797980 0.000000
vt 0.808081 0.000000
vt 0.818182 0.000000
vt 0.828283 0.000000
vt 0.838384 0.000000
vt 0.212121 0.000000
vt 0.848485 0.000000
vt 0.989899 0.000000
vt 0.979798 0.000000
vt 0.858586 0.000000
vt 0.969697 0.000000
vt 0.959596 0.000000
vt 0.949495 0.000000
vt 0.939394 0.000000
vt 0.868687 0.000000
vt 0.929293 0.000000
vt 0.202020 0.000000
vt 0.919192 0.000000
vt 0.909091 0.000000
vt 0.878788 0.000000
vt 0.898990 0.000000
vt 0.191919 0.000000
vt 0.181818 0.000000
vt 0.030303 0.000000
vt 0.171717 0.000000
vt 0.040404 0.000000
vt 0.050505 0.000000
vt 0.060606 0.000000
vt 0.161616 0.000000
vt 0.070707 0.000000
vt 0.080808 0.000000
vt 0.090909 0.000000
vt 0.151515 0.000000
vt 0.101010 0.000000
vt 0.121212 0.000000
vt 0.141414 0.000000
vt 0.131313 0.000000
vt 0.219653 0.000000
vt 0.208092 0.000000
vt 0.213873 0.000000
vt 0.225434 0.000000
vt 0.202312 0.000000
vt 0.231214 0.000000
vt 0.236994 0.000000
vt 0.196532 0.000000
vt 0.242775 0.000000
vt 0.190751 0.000000
vt 0.248555 0.000000
vt 0.254335 0.000000
vt 0.184971 0.000000
vt 0.260116 0.000000
vt 0.179191 0.000000
vt 0.265896 0.000000
vt 0.271676 0.000000
vt 0.173410 0.000000
vt 0.277457 0.000000
vt 0.167630 0.000000
vt 0.283237 0.000000
vt 0.289017 0.000000
vt 0.294798 0.000000
vt 0.300578 0.000000
vt 0.306358 0.000000
vt 0.312139 0.000000
vt 0.317919 0.000000
vt 0.323699 0.000000
vt 0.329480 0.000000
vt 0.335260 0.000000
vt 0.341040 0.000000
vt 0.346821 0.000000
vt 0.352601 0.000000
vt 0.358382 0.000000
vt 0.161850 0.000000
vt 0.364162 0.000000
vt 0.156069 0.000000
vt 0.369942 0.000000
vt 0.375723 0.000000
vt 0.381503 0.000000
vt 0.387283 0.000000
vt 0.393064 0.000000
vt 0.150289 0.000000
vt 0.398844 0.000000
vt 0.404624 0.000000
vt 0.410405 0.000000
vt 0.144509 0.000000
vt 0.416185 0.000000
vt 0.421965 0.000000
vt 0.138728 0.000000
vt 0.427746 0.000000
vt 0.433526 0.000000
vt 0.439306 0.000000
vt 0.445087 0.000000
vt 0.450867 0.000000
vt 0.456647 0.000000
vt 0.462428 0.000000
vt 0.994220 0.000000
vt 0.791907 0.000000
vt 0.988439 0.000000
vt 0.468208 0.000000
vt 0.982659 0.000000
vt 0.473988 0.000000
vt 0.976879 0.000000
vt 0.479769 0.000000
vt 0.971098 0.000000
vt 0.965318 0.000000
vt 0.485549 0.000000
vt 0.959538 0.000000
vt 0.491329 0.000000
vt 0.953757 0.000000
vt 0.947977 0.000000
vt 0.497110 0.000000
vt 0.942197 0.000000
vt 0.936416 0.000000
vt 0.502890 0.000000
vt 0.930636 0.000000
vt 0.508671 0.000000
vt 0.924855 0.000000
vt 0.919075 0.000000
vt 0.514451 0.000000
vt 0.913295 0.000000
vt 0.907514 0.000000
vt 0.797688 0.000000
vt 0.520231 0.000000
vt 0.803468 0.000000
vt 0.901734 0.000000
vt 0.809249 0.000000
vt 0.005780 0.000000
vt 0.786127 0.000000
vt 0.132948 0.000000
vt 0.895954 0.000000
vt 0.011561 0.000000
vt 0.815029 0.000000
vt 0.127168 0.000000
vt 0.017341 0.000000
vt 0.526012 0.000000
vt 0.890173 0.000000
vt 0.121387 0.000000
vt 0.820809 0.000000
vt 0.023121 0.000000
vt 0.115607 0.000000
vt 0.826590 0.000000
vt 0.028902 0.000000
vt 0.884393 0.000000
vt 0.109827 0.000000
vt 0.034682 0.000000
vt 0.832370 0.000000
vt 0.104046 0.000000
vt 0.040462 0.000000
vt 0.878613 0.000000
vt 0.098266 0.000000
vt 0.838150 0.000000
vt 0.046243 0.000000
vt 0.092486 0.000000
vt 0.531792 0.000000
vt 0.052023 0.000000
vt 0.872832 0.000000
vt 0.843931 0.000000
vt 0.086705 0.000000
vt 0.057803 0.000000
vt 0.080925 0.000000
vt 0.063584 0.000000
vt 0.849711 0.000000
vt 0.075145 0.000000
vt 0.069364 0.000000
vt 0.867052 0.000000
vt 0.855491 0.000000
vt 0.861272 0.000000
vt 0.647399 0.000000
vt 0.537572 0.000000
vt 0.641618 0.000000
vt 0.653179 0.000000
vt 0.543353 0.000000
vt 0.635838 0.000000
vt 0.658960 0.000000
vt 0.780347 0.000000
vt 0.549133 0.000000
vt 0.630058 0.000000
vt 0.664740 0.000000
vt 0.774566 0.000000
vt 0.624277 0.000000
vt 0.670520 0.000000
vt 0.554913 0.000000
vt 0.768786 0.000000
vt 0.618497 0.000000
vt 0.676301 0.000000
vt 0.763006 0.000000
vt 0.560694 0.000000
vt 0.612717 0.000000
vt 0.682081 0.000000
vt 0.757225 0.000000
vt 0.606936 0.000000
vt 0.687861 0.000000
vt 0.751445 0.000000
vt 0.566474 0.000000
vt 0.601156 0.000000
vt 0.693642 0.000000
vt 0.745665 0.000000
vt 0.595376 0.000000
vt 0.739884 0.000000
vt 0.699422 0.000000
vt 0.572254 0.000000
vt 0.734104 0.000000
vt 0.589595 0.000000
vt 0.705202 0.000000
vt 0.728324 0.000000
vt 0.583815 0.000000
vt 0.710983 0.000000
vt 0.578035 0.000000
vt 0.722543 0.000000
vt 0.716763 0.000000
vt 0.017544 0.000000
vt 0.982456 0.000000
vt 0.964912 0.000000
vt 0.035088 0.000000
vt 0.052632 0.000000
vt 0.070175 0.000000
vt 0.947368 0.000000
vt 0.929825 0.000000
vt 0.912281 0.000000
vt 0.087719 0.000000
vt 0.894737 0.000000
vt 0.877193 0.000000
vt 0.105263 0.000000
vt 0.859649 0.000000
vt 0.526316 0.000000
vt 0.491228 0.000000
vt 0.508772 0.000000
vt 0.543860 0.000000
vt 0.842105 0.000000
vt 0.561404 0.000000
vt 0.122807 0.000000
vt 0.824561 0.000000
vt 0.578947 0.000000
vt 0.596491 0.000000
vt 0.807018 0.000000
vt 0.614035 0.000000
vt 0.789474 0.000000
vt 0.631579 0.000000
vt 0.771930 0.000000
vt 0.649123 0.000000
vt 0.140351 0.000000
vt 0.754386 0.000000
vt 0.684211 0.000000
vt 0.736842 0.000000
vt 0.701754 0.000000
vt 0.719298 0.000000
vt 0.157895 0.000000
vt 0.175439 0.000000
vt 0.192982 0.000000
vt 0.473684 0.000000
vt 0.210526 0.000000
vt 0.456140 0.000000
vt 0.438596 0.000000
vt 0.228070 0.000000
vt 0.421053 0.000000
vt 0.403509 0.000000
vt 0.385965 0.000000
vt 0.245614 0.000000
vt 0.368421 0.000000
vt 0.350877 0.000000
vt 0.263158 0.000000
vt 0.315789 0.000000
vt 0.280702 0.000000
vt 0.298246 0.000000
s 0
usemtl Material
f 28/1/1 52/2/1 27/3/1
f 28/1/1 51/4/1 52/2/1
f 28/1/1 50/5/1 51/4/1
f 29/6/1 50/5/1 28/1/1
f 29/6/1 49/7/1 50/5/1
f 30/8/1 49/7/1 29/6/1
f 2/9/1 26/10/1 1/11/1
f 31/12/1 49/7/1 30/8/1
f 31/12/1 48/13/1 49/7/1
f 2/9/1 25/14/1 26/10/1
f 32/15/1 48/13/1 31/12/1
f 2/9/1 24/16/1 25/14/1
f 32/15/1 47/17/1 48/13/1
f 3/18/1 24/16/1 2/9/1
f 33/19/1 47/17/1 32/15/1
f 3/18/1 23/20/1 24/16/1
f 33/19/1 46/21/1 47/17/1
f 4/22/1 23/20/1 3/18/1
f 34/23/1 46/21/1 33/19/1
f 4/22/1 22/24/1 23/20/1
f 5/25/1 22/24/1 4/22/1
f 34/23/1 45/26/1 46/21/1
f 35/27/1 45/26/1 34/23/1
f 6/28/1 22/24/1 5/25/1
f 6/28/1 21/29/1 22/24/1
f 35/27/1 44/30/1 45/26/1
f 36/31/1 44/30/1 35/27/1
f 7/32/1 21/29/1 6/28/1
f 7/32/1 20/33/1 21/29/1
f 36/31/1 43/34/1 44/30/1
f 37/35/1 43/34/1 36/31/1
f 8/36/1 20/33/1 7/32/1
f 8/36/1 19/37/1 20/33/1
f 37/35/1 42/38/1 43/34/1
f 38/39/1 42/38/1 37/35/1
f 38/39/1 41/40/1 42/38/1
f 9/41/1 19/37/1 8/36/1
f 9/41/1 18/42/1 19/37/1
f 38/39/1 39/43/1 41/40/1
f 39/43/1 40/44/1 41/40/1
f 10/45/1 18/42/1 9/41/1
f 10/45/1 17/46/1 18/42/1
f 10/45/1 16/47/1 17/46/1
f 11/48/1 16/47/1 10/45/1
f 55/49/1 53/50/1 54/51/1
f 56/52/1 53/50/1 55/49/1
f 91/53/1 89/54/1 90/55/1
f 57/56/1 53/50/1 56/52/1
f 91/53/1 88/57/1 89/54/1
f 11/48/1 15/58/1 16/47/1
f 91/53/1 87/59/1 88/57/1
f 58/60/1 53/50/1 57/56/1
f 91/53/1 86/61/1 87/59/1
f 12/62/1 15/58/1 11/48/1
f 59/63/1 53/50/1 58/60/1
f 91/53/1 85/64/1 86/61/1
f 91/53/1 84/65/1 85/64/1
f 60/66/1 53/50/1 59/63/1
f 91/53/1 83/67/1 84/65/1
f 61/68/1 53/50/1 60/66/1
f 91/53/1 82/69/1 83/67/1
f 62/70/1 53/50/1 61/68/1
f 91/53/1 81/71/1 82/69/1
f 63/72/1 53/50/1 62/70/1
f 91/53/1 80/73/1 81/71/1
f 64/74/1 53/50/1 63/72/1
f 91/53/1 79/75/1 80/73/1
f 65/76/1 53/50/1 64/74/1
f 91/53/1 78/77/1 79/75/1
f 66/78/1 53/50/1 65/76/1
f 91/53/1 77/79/1 78/77/1
f 91/53/1 76/80/1 77/79/1
f 91/53/1 75/81/1 76/80/1
f 91/53/1 74/82/1 75/81/1
f 91/53/1 73/83/1 74/82/1
f 91/53/1 72/84/1 73/83/1
f 91/53/1 71/85/1 72/84/1
f 91/53/1 70/86/1 71/85/1
f 91/53/1 69/87/1 70/86/1
f 91/53/1 68/88/1 69/87/1
f 91/53/1 67/89/1 68/88/1
f 91/53/1 66/78/1 67/89/1
f 91/53/1 53/50/1 66/78/1
f 12/62/1 13/90/1 15/58/1
f 13/90/1 14/91/1 15/58/1
f 91/53/1 92/92/1 53/50/1
f 92/92/1 200/93/1 53/50/1
f 92/92/1 199/94/1 200/93/1
f 92/92/1 93/95/1 199/94/1
f 93/95/1 198/96/1 199/94/1
f 93/95/1 94/97/1 198/96/1
f 94/97/1 95/98/1 198/96/1
f 95/98/1 197/99/1 198/96/1
f 95/98/1 96/100/1 197/99/1
f 96/100/1 196/101/1 197/99/1
f 96/100/1 97/102/1 196/101/1
f 97/102/1 98/103/1 196/101/1
f 98/103/1 195/104/1 196/101/1
f 98/103/1 99/105/1 195/104/1
f 99/105/1 194/106/1 195/104/1
f 99/105/1 100/107/1 194/106/1
f 100/107/1 193/108/1 194/106/1
f 100/107/1 101/109/1 193/108/1
f 101/109/1 192/110/1 193/108/1
f 101/109/1 191/111/1 192/110/1
f 101/109/1 102/112/1 191/111/1
f 102/112/1 190/113/1 191/111/1
f 102/112/1 189/114/1 190/113/1
f 102/112/1 103/115/1 189/114/1
f 103/115/1 105/116/1 189/114/1
f 105/116/1 106/117/1 189/114/1
f 106/117/1 107/118/1 189/114/1
f 107/118/1 108/119/1 189/114/1
f 108/119/1 109/120/1 189/114/1
f 109/120/1 110/121/1 189/114/1
f 110/121/1 111/122/1 189/114/1
f 111/122/1 112/123/1 189/114/1
f 112/123/1 113/124/1 189/114/1
f 113/124/1 114/125/1 189/114/1
f 114/125/1 115/126/1 189/114/1
f 115/126/1 188/127/1 189/114/1
f 104/128/1 105/116/1 103/115/1
f 116/129/1 188/127/1 115/126/1
f 116/129/1 187/130/1 188/127/1
f 117/131/1 187/130/1 116/129/1
f 117/131/1 186/132/1 187/130/1
f 118/133/1 186/132/1 117/131/1
f 118/133/1 185/134/1 186/132/1
f 119/135/1 185/134/1 118/133/1
f 119/135/1 184/136/1 185/134/1
f 120/137/1 184/136/1 119/135/1
f 120/137/1 183/138/1 184/136/1
f 121/139/1 183/138/1 120/137/1
f 121/139/1 182/140/1 183/138/1
f 122/141/1 182/140/1 121/139/1
f 123/142/1 182/140/1 122/141/1
f 123/142/1 181/143/1 182/140/1
f 124/144/1 181/143/1 123/142/1
f 124/144/1 180/145/1 181/143/1
f 125/146/1 180/145/1 124/144/1
f 125/146/1 179/147/1 180/145/1
f 126/148/1 179/147/1 125/146/1
f 126/148/1 178/149/1 179/147/1
f 127/150/1 178/149/1 126/148/1
f 127/150/1 177/151/1 178/149/1
f 128/152/1 177/151/1 127/150/1
f 128/152/1 176/153/1 177/151/1
f 129/154/1 176/153/1 128/152/1
f 129/154/1 175/155/1 176/153/1
f 130/156/1 175/155/1 129/154/1
f 130/156/1 152/157/1 175/155/1
f 152/157/1 174/158/1 175/155/1
f 130/156/1 151/159/1 152/157/1
f 153/160/1 174/158/1 152/157/1
f 153/160/1 173/161/1 174/158/1
f 131/162/1 151/159/1 130/156/1
f 154/163/1 173/161/1 153/160/1
f 131/162/1 150/164/1 151/159/1
f 154/163/1 172/165/1 173/161/1
f 132/166/1 150/164/1 131/162/1
f 155/167/1 172/165/1 154/163/1
f 132/166/1 149/168/1 150/164/1
f 155/167/1 171/169/1 172/165/1
f 133/170/1 149/168/1 132/166/1
f 156/171/1 171/169/1 155/167/1
f 133/170/1 148/172/1 149/168/1
f 156/171/1 170/173/1 171/169/1
f 134/174/1 148/172/1 133/170/1
f 157/175/1 170/173/1 156/171/1
f 134/174/1 147/176/1 148/172/1
f 157/175/1 169/177/1 170/173/1
f 135/178/1 147/176/1 134/174/1
f 158/179/1 169/177/1 157/175/1
f 135/178/1 146/180/1 147/176/1
f 158/179/1 168/181/1 169/177/1
f 136/182/1 146/180/1 135/178/1
f 159/183/1 168/181/1 158/179/1
f 136/182/1 145/184/1 146/180/1
f 137/185/1 145/184/1 136/182/1
f 159/183/1 167/186/1 168/181/1
f 160/187/1 167/186/1 159/183/1
f 137/185/1 144/188/1 145/184/1
f 138/189/1 144/188/1 137/185/1
f 160/187/1 166/190/1 167/186/1
f 161/191/1 166/190/1 160/187/1
f 139/192/1 144/188/1 138/189/1
f 139/192/1 143/193/1 144/188/1
f 161/191/1 165/194/1 166/190/1
f 140/195/1 143/193/1 139/192/1
f 162/196/1 165/194/1 161/191/1
f 140/195/1 142/197/1 143/193/1
f 162/196/1 163/198/1 165/194/1
f 163/198/1 164/199/1 165/194/1
f 140/195/1 141/200/1 142/197/1
f 202/201/1 274/93/1 201/11/1
f 240/202/1 238/203/1 239/204/1
f 202/201/1 273/205/1 274/93/1
f 241/206/1 238/203/1 240/202/1
f 202/201/1 272/207/1 273/205/1
f 242/208/1 238/203/1 241/206/1
f 202/201/1 271/209/1 272/207/1
f 243/210/1 238/203/1 242/208/1
f 202/201/1 270/211/1 271/209/1
f 244/212/1 238/203/1 243/210/1
f 202/201/1 269/213/1 270/211/1
f 245/214/1 238/203/1 244/212/1
f 202/201/1 268/215/1 269/213/1
f 246/216/1 238/203/1 245/214/1
f 202/201/1 267/217/1 268/215/1
f 247/218/1 238/203/1 246/216/1
f 202/201/1 266/219/1 267/217/1
f 248/220/1 238/203/1 247/218/1
f 202/201/1 265/221/1 266/219/1
f 249/222/1 238/203/1 248/220/1
f 202/201/1 264/223/1 265/221/1
f 250/224/1 238/203/1 249/222/1
f 202/201/1 263/225/1 264/223/1
f 251/226/1 238/203/1 250/224/1
f 202/201/1 262/227/1 263/225/1
f 202/201/1 261/228/1 262/227/1
f 202/201/1 260/229/1 261/228/1
f 202/201/1 259/230/1 260/229/1
f 202/201/1 258/231/1 259/230/1
f 202/201/1 257/232/1 258/231/1
f 202/201/1 256/233/1 257/232/1
f 202/201/1 255/234/1 256/233/1
f 202/201/1 254/235/1 255/234/1
f 202/201/1 253/236/1 254/235/1
f 202/201/1 252/237/1 253/236/1
f 202/201/1 251/226/1 252/237/1
f 202/201/1 203/238/1 251/226/1
f 203/238/1 204/239/1 251/226/1
f 204/239/1 205/240/1 251/226/1
f 205/240/1 206/241/1 251/226/1
f 206/241/1 207/242/1 251/226/1
f 207/242/1 208/243/1 251/226/1
f 208/243/1 209/244/1 251/226/1
f 209/244/1 210/245/1 251/226/1
f 210/245/1 211/246/1 251/226/1
f 211/246/1 212/247/1 251/226/1
f 212/247/1 213/248/1 251/226/1
f 213/248/1 214/249/1 251/226/1
f 214/249/1 215/250/1 251/226/1
f 215/250/1 216/251/1 251/226/1
f 216/251/1 217/252/1 251/226/1
f 217/252/1 219/253/1 251/226/1
f 219/253/1 222/254/1 251/226/1
f 222/254/1 224/255/1 251/226/1
f 224/255/1 225/256/1 251/226/1
f 225/256/1 226/257/1 251/226/1
f 226/257/1 227/258/1 251/226/1
f 227/258/1 228/259/1 251/226/1
f 228/259/1 229/260/1 251/226/1
f 229/260/1 230/261/1 251/226/1
f 230/261/1 231/262/1 251/226/1
f 231/262/1 232/263/1 251/226/1
f 232/263/1 233/264/1 251/226/1
f 233/264/1 238/203/1 251/226/1
f 218/265/1 219/253/1 217/252/1
f 220/266/1 222/254/1 219/253/1
f 221/267/1 222/254/1 220/266/1
f 223/268/2 224/255/2 222/254/2
f 234/269/1 238/203/1 233/264/1
f 235/270/1 238/203/1 234/269/1
f 236/271/1 238/203/1 235/270/1
f 237/272/1 238/203/1 236/271/1
f 360/273/1 358/274/1 359/275/1
f 360/273/1 357/276/1 358/274/1
f 361/277/1 357/276/1 360/273/1
f 361/277/1 356/278/1 357/276/1
f 362/279/1 356/278/1 361/277/1
f 363/280/1 356/278/1 362/279/1
f 363/280/1 355/281/1 356/278/1
f 364/282/1 355/281/1 363/280/1
f 364/282/1 354/283/1 355/281/1
f 365/284/1 354/283/1 364/282/1
f 365/284/1 353/285/1 354/283/1
f 366/286/1 353/285/1 365/284/1
f 366/286/1 352/287/1 353/285/1
f 367/288/1 286/289/1 366/286/1
f 286/289/1 287/290/1 366/286/1
f 287/290/1 352/287/1 366/286/1
f 287/290/1 288/291/1 352/287/1
f 288/291/1 351/292/1 352/287/1
f 367/288/1 285/293/1 286/289/1
f 289/294/1 351/292/1 288/291/1
f 367/288/1 284/295/1 285/293/1
f 290/296/1 351/292/1 289/294/1
f 367/288/1 283/297/1 284/295/1
f 291/298/1 351/292/1 290/296/1
f 368/299/1 283/297/1 367/288/1
f 368/299/1 282/300/1 283/297/1
f 292/301/1 351/292/1 291/298/1
f 292/301/1 350/302/1 351/292/1
f 368/299/1 281/303/1 282/300/1
f 293/304/1 350/302/1 292/301/1
f 368/299/1 280/305/1 281/303/1
f 294/306/1 350/302/1 293/304/1
f 369/307/1 280/305/1 368/299/1
f 294/306/1 349/308/1 350/302/1
f 369/307/1 279/309/1 280/305/1
f 295/310/1 349/308/1 294/306/1
f 369/307/1 278/311/1 279/309/1
f 296/312/1 349/308/1 295/310/1
f 554/313/1 552/314/1 553/315/1
f 554/313/1 551/316/1 552/314/1
f 370/317/1 278/311/1 369/307/1
f 296/312/1 348/318/1 349/308/1
f 554/313/1 550/319/1 551/316/1
f 555/320/1 550/319/1 554/313/1
f 370/317/1 277/321/1 278/311/1
f 297/322/1 348/318/1 296/312/1
f 555/320/1 549/323/1 550/319/1
f 556/324/1 549/323/1 555/320/1
f 556/324/1 548/325/1 549/323/1
f 557/326/1 548/325/1 556/324/1
f 370/317/1 276/327/1 277/321/1
f 298/328/1 348/318/1 297/322/1
f 323/329/1 276/327/1 370/317/1
f 298/328/1 347/330/1 348/318/1
f 557/326/1 547/331/1 548/325/1
f 558/332/1 547/331/1 557/326/1
f 323/329/1 275/11/1 276/327/1
f 299/333/1 347/330/1 298/328/1
f 558/332/1 546/334/1 547/331/1
f 559/335/1 546/334/1 558/332/1
f 324/336/1 275/11/1 323/329/1
f 324/336/1 322/337/1 275/11/1
f 300/338/1 347/330/1 299/333/1
f 300/338/1 346/339/1 347/330/1
f 560/340/1 546/334/1 559/335/1
f 560/340/1 545/341/1 546/334/1
f 561/342/1 545/341/1 560/340/1
f 561/342/1 544/343/1 545/341/1
f 324/336/1 321/344/1 322/337/1
f 301/345/1 346/339/1 300/338/1
f 562/346/1 544/343/1 561/342/1
f 562/346/1 543/347/1 544/343/1
f 325/348/1 321/344/1 324/336/1
f 301/345/1 345/349/1 346/339/1
f 325/348/1 320/350/1 321/344/1
f 302/351/1 345/349/1 301/345/1
f 563/352/1 543/347/1 562/346/1
f 563/352/1 542/353/1 543/347/1
f 325/348/1 319/354/1 320/350/1
f 303/355/1 345/349/1 302/351/1
f 564/356/1 542/353/1 563/352/1
f 564/356/1 541/357/1 542/353/1
f 326/358/1 319/354/1 325/348/1
f 303/355/1 344/359/1 345/349/1
f 326/358/1 318/360/1 319/354/1
f 304/361/1 344/359/1 303/355/1
f 565/362/1 541/357/1 564/356/1
f 565/362/1 540/363/1 541/357/1
f 566/364/1 540/363/1 565/362/1
f 326/358/1 317/365/1 318/360/1
f 305/366/1 344/359/1 304/361/1
f 566/364/1 539/367/1 540/363/1
f 327/368/1 317/365/1 326/358/1
f 305/366/1 343/369/1 344/359/1
f 327/368/1 316/370/1 317/365/1
f 306/371/1 343/369/1 305/366/1
f 327/368/1 315/372/1 316/370/1
f 307/373/1 343/369/1 306/371/1
f 328/374/1 315/372/1 327/368/1
f 307/373/1 342/375/1 343/369/1
f 328/374/1 314/376/1 315/372/1
f 308/377/1 342/375/1 307/373/1
f 328/374/1 313/378/1 314/376/1
f 309/379/1 342/375/1 308/377/1
f 328/374/1 312/380/1 313/378/1
f 310/381/1 342/375/1 309/379/1
f 328/374/1 311/382/1 312/380/1
f 311/382/1 342/375/1 310/381/1
f 328/374/1 342/375/1 311/382/1
f 329/383/1 342/375/1 328/374/1
f 329/383/1 341/384/1 342/375/1
f 330/385/1 341/384/1 329/383/1
f 330/385/1 340/386/1 341/384/1
f 331/387/1 340/386/1 330/385/1
f 331/387/1 339/388/1 340/386/1
f 332/389/1 339/388/1 331/387/1
f 332/389/1 338/390/1 339/388/1
f 333/391/1 338/390/1 332/389/1
f 333/391/1 337/392/1 338/390/1
f 334/393/1 337/392/1 333/391/1
f 334/393/1 336/394/1 337/392/1
f 335/395/1 336/394/1 334/393/1
f 424/396/1 578/93/1 423/397/1
f 527/398/1 525/399/1 526/400/1
f 528/401/1 525/399/1 527/398/1
f 424/396/1 577/402/1 578/93/1
f 529/403/1 525/399/1 528/401/1
f 424/396/1 576/404/1 577/402/1
f 530/405/1 525/399/1 529/403/1
f 424/396/1 575/406/1 576/404/1
f 531/407/1 525/399/1 530/405/1
f 424/396/1 574/408/1 575/406/1
f 532/409/1 525/399/1 531/407/1
f 424/396/1 573/410/1 574/408/1
f 533/411/1 525/399/1 532/409/1
f 424/396/1 572/412/1 573/410/1
f 534/413/1 525/399/1 533/411/1
f 424/396/1 571/414/1 572/412/1
f 535/415/1 525/399/1 534/413/1
f 424/396/1 570/416/1 571/414/1
f 536/417/1 525/399/1 535/415/1
f 424/396/1 569/418/1 570/416/1
f 537/419/1 525/399/1 536/417/1
f 424/396/1 568/420/1 569/418/1
f 538/421/1 525/399/1 537/419/1
f 424/396/1 567/422/1 568/420/1
f 424/396/1 566/364/1 567/422/1
f 424/396/1 539/367/1 566/364/1
f 424/396/1 538/421/1 539/367/1
f 424/396/1 425/423/1 538/421/1
f 425/423/1 426/424/1 538/421/1
f 426/424/1 427/425/1 538/421/1
f 427/425/1 428/426/1 538/421/1
f 428/426/1 429/427/1 538/421/1
f 429/427/1 430/428/1 538/421/1
f 430/428/1 431/429/1 538/421/1
f 431/429/1 432/430/1 538/421/1
f 432/430/1 433/431/1 538/421/1
f 433/431/1 434/432/1 538/421/1
f 434/432/1 435/433/1 538/421/1
f 435/433/1 436/434/1 538/421/1
f 436/434/1 437/435/1 538/421/1
f 437/435/1 513/436/1 538/421/1
f 513/436/1 514/437/1 538/421/1
f 514/437/1 515/438/1 538/421/1
f 515/438/1 516/439/1 538/421/1
f 516/439/1 517/440/1 538/421/1
f 517/440/1 518/441/1 538/421/1
f 518/441/1 519/442/1 538/421/1
f 519/442/1 520/443/1 538/421/1
f 520/443/1 521/444/1 538/421/1
f 521/444/1 522/445/1 538/421/1
f 522/445/1 523/446/1 538/421/1
f 523/446/1 524/447/1 538/421/1
f 524/447/1 525/399/1 538/421/1
f 438/448/1 512/449/1 437/435/1
f 512/449/1 513/436/1 437/435/1
f 438/448/1 511/450/1 512/449/1
f 439/451/1 511/450/1 438/448/1
f 439/451/1 510/452/1 511/450/1
f 440/453/1 510/452/1 439/451/1
f 440/453/1 509/454/1 510/452/1
f 441/455/1 509/454/1 440/453/1
f 441/455/1 508/456/1 509/454/1
f 442/457/1 508/456/1 441/455/1
f 442/457/1 507/458/1 508/456/1
f 373/459/1 371/460/1 372/461/1
f 398/462/1 422/463/1 397/464/1
f 443/465/1 507/458/1 442/457/1
f 398/462/1 421/466/1 422/463/1
f 374/467/1 371/460/1 373/459/1
f 443/465/1 506/468/1 507/458/1
f 374/467/1 396/469/1 371/460/1
f 399/470/1 421/466/1 398/462/1
f 399/470/1 420/471/1 421/466/1
f 375/472/1 396/469/1 374/467/1
f 400/473/1 420/471/1 399/470/1
f 375/472/1 395/474/1 396/469/1
f 444/475/1 506/468/1 443/465/1
f 400/473/1 419/476/1 420/471/1
f 376/477/1 395/474/1 375/472/1
f 401/478/1 419/476/1 400/473/1
f 444/475/1 505/479/1 506/468/1
f 376/477/1 394/480/1 395/474/1
f 401/478/1 418/481/1 419/476/1
f 377/482/1 394/480/1 376/477/1
f 402/483/1 418/481/1 401/478/1
f 377/482/1 393/484/1 394/480/1
f 402/483/1 417/485/1 418/481/1
f 445/486/1 505/479/1 444/475/1
f 378/487/1 393/484/1 377/482/1
f 403/488/1 417/485/1 402/483/1
f 403/488/1 416/489/1 417/485/1
f 445/486/1 504/490/1 505/479/1
f 378/487/1 392/491/1 393/484/1
f 379/492/1 392/491/1 378/487/1
f 404/493/1 416/489/1 403/488/1
f 404/493/1 415/494/1 416/489/1
f 379/492/1 391/495/1 392/491/1
f 446/496/1 504/490/1 445/486/1
f 380/497/1 391/495/1 379/492/1
f 405/498/1 415/494/1 404/493/1
f 405/498/1 414/499/1 415/494/1
f 446/496/1 503/500/1 504/490/1
f 380/497/1 390/501/1 391/495/1
f 381/502/1 390/501/1 380/497/1
f 406/503/1 414/499/1 405/498/1
f 406/503/1 413/504/1 414/499/1
f 447/505/1 503/500/1 446/496/1
f 381/502/1 389/506/1 390/501/1
f 382/507/1 389/506/1 381/502/1
f 407/508/1 413/504/1 406/503/1
f 407/508/1 412/509/1 413/504/1
f 383/510/1 389/506/1 382/507/1
f 447/505/1 502/511/1 503/500/1
f 383/510/1 388/512/1 389/506/1
f 408/513/1 412/509/1 407/508/1
f 408/513/1 411/514/1 412/509/1
f 448/515/1 502/511/1 447/505/1
f 384/516/1 388/512/1 383/510/1
f 384/516/1 387/517/1 388/512/1
f 409/518/1 411/514/1 408/513/1
f 385/519/1 387/517/1 384/516/1
f 409/518/1 410/520/1 411/514/1
f 448/515/1 501/521/1 502/511/1
f 385/519/1 386/522/1 387/517/1
f 449/523/1 501/521/1 448/515/1
f 449/523/1 500/524/1 501/521/1
f 450/525/1 500/524/1 449/523/1
f 451/526/1 500/524/1 450/525/1
f 452/527/1 500/524/1 451/526/1
f 452/527/1 499/528/1 500/524/1
f 453/529/1 499/528/1 452/527/1
f 454/530/1 499/528/1 453/529/1
f 455/531/1 499/528/1 454/530/1
f 456/532/1 499/528/1 455/531/1
f 475/533/1 473/534/1 474/535/1
f 475/533/1 472/536/1 473/534/1
f 457/537/1 499/528/1 456/532/1
f 475/533/1 471/538/1 472/536/1
f 475/533/1 470/539/1 471/538/1
f 458/540/1 499/528/1 457/537/1
f 475/533/1 469/541/1 470/539/1
f 458/540/1 498/542/1 499/528/1
f 475/533/1 468/543/1 469/541/1
f 459/544/1 498/542/1 458/540/1
f 475/533/1 467/545/1 468/543/1
f 460/546/1 498/542/1 459/544/1
f 475/533/1 466/547/1 467/545/1
f 475/533/1 465/548/1 466/547/1
f 461/549/1 498/542/1 460/546/1
f 475/533/1 464/550/1 465/548/1
f 475/533/1 463/551/1 464/550/1
f 462/552/1 498/542/1 461/549/1
f 475/533/1 462/552/1 463/551/1
f 475/533/1 498/542/1 462/552/1
f 475/533/1 497/553/1 498/542/1
f 475/533/1 496/554/1 497/553/1
f 475/533/1 495/555/1 496/554/1
f 475/533/1 494/556/1 495/555/1
f 475/533/1 493/557/1 494/556/1
f 475/533/1 492/558/1 493/557/1
f 475/533/1 491/559/1 492/558/1
f 475/533/1 490/560/1 491/559/1
f 476/561/1 490/560/1 475/533/1
f 477/562/1 490/560/1 476/561/1
f 478/563/1 490/560/1 477/562/1
f 478/563/1 489/564/1 490/560/1
f 479/565/1 489/564/1 478/563/1
f 480/566/1 489/564/1 479/565/1
f 481/567/1 489/564/1 480/566/1
f 481/567/1 488/568/1 489/564/1
f 482/569/1 488/568/1 481/567/1
f 483/570/1 488/568/1 482/569/1
f 484/571/1 488/568/1 483/570/1
f 484/571/1 487/572/1 488/568/1
f 485/573/1 487/572/1 484/571/1
f 486/574/1 487/572/1 485/573/1
f 655/575/1 653/576/1 654/577/1
f 656/578/1 653/576/1 655/575/1
f 657/579/1 653/576/1 656/578/1
f 658/580/1 653/576/1 657/579/1
f 659/581/1 653/576/1 658/580/1
f 660/582/1 653/576/1 659/581/1
f 661/583/1 653/576/1 660/582/1
f 662/584/1 653/576/1 661/583/1
f 663/585/1 653/576/1 662/584/1
f 664/586/1 653/576/1 663/585/1
f 665/587/1 653/576/1 664/586/1
f 666/588/1 653/576/1 665/587/1
f 667/589/1 653/576/1 666/588/1
f 668/590/1 653/576/1 667/589/1
f 669/591/1 653/576/1 668/590/1
f 670/592/1 653/576/1 669/591/1
f 671/593/1 653/576/1 670/592/1
f 672/594/1 653/576/1 671/593/1
f 673/595/1 653/576/1 672/594/1
f 674/596/1 653/576/1 673/595/1
f 675/597/1 653/576/1 674/596/1
f 676/598/1 653/576/1 675/597/1
f 677/599/1 653/576/1 676/598/1
f 678/600/1 653/576/1 677/599/1
f 679/601/1 653/576/1 678/600/1
f 680/602/1 653/576/1 679/601/1
f 681/603/1 653/576/1 680/602/1
f 682/604/1 653/576/1 681/603/1
f 683/605/1 653/576/1 682/604/1
f 684/606/1 653/576/1 683/605/1
f 685/607/1 653/576/1 684/606/1
f 686/608/1 653/576/1 685/607/1
f 687/562/1 653/576/1 686/608/1
f 688/609/1 653/576/1 687/562/1
f 689/610/1 653/576/1 688/609/1
f 579/11/1 653/576/1 689/610/1
f 580/611/1 581/612/1 579/11/1
f 581/612/1 582/613/1 579/11/1
f 582/613/1 583/614/1 579/11/1
f 583/614/1 584/615/1 579/11/1
f 584/615/1 585/616/1 579/11/1
f 585/616/1 586/617/1 579/11/1
f 586/617/1 587/618/1 579/11/1
f 587/618/1 588/619/1 579/11/1
f 588/619/1 592/620/1 579/11/1
f 592/620/1 648/621/1 579/11/1
f 648/621/1 649/622/1 579/11/1
f 649/622/1 650/623/1 579/11/1
f 650/623/1 651/624/1 579/11/1
f 651/624/1 652/625/1 579/11/1
f 652/625/1 653/576/1 579/11/1
f 592/620/1 647/626/1 648/621/1
f 592/620/1 646/627/1 647/626/1
f 592/620/1 645/628/1 646/627/1
f 592/620/1 644/629/1 645/628/1
f 592/620/1 643/630/1 644/629/1
f 592/620/1 642/631/1 643/630/1
f 588/619/1 589/632/1 592/620/1
f 589/632/1 591/633/1 592/620/1
f 593/634/1 642/631/1 592/620/1
f 593/634/1 641/635/1 642/631/1
f 589/632/1 590/636/1 591/633/1
f 593/634/1 640/637/1 641/635/1
f 594/638/1 640/637/1 593/634/1
f 594/638/1 639/639/1 640/637/1
f 595/640/1 639/639/1 594/638/1
f 595/640/1 638/641/1 639/639/1
f 596/642/1 638/641/1 595/640/1
f 596/642/1 637/643/1 638/641/1
f 717/644/1 741/93/1 716/645/1
f 597/646/1 637/643/1 596/642/1
f 717/644/1 740/647/1 741/93/1
f 597/646/1 636/648/1 637/643/1
f 717/644/1 739/649/1 740/647/1
f 718/650/1 739/649/1 717/644/1
f 718/650/1 738/651/1 739/649/1
f 719/652/1 738/651/1 718/650/1
f 598/653/1 636/648/1 597/646/1
f 598/653/1 635/654/1 636/648/1
f 719/652/1 737/655/1 738/651/1
f 691/656/1 715/657/1 690/658/1
f 720/659/1 737/655/1 719/652/1
f 691/656/1 714/660/1 715/657/1
f 720/659/1 736/661/1 737/655/1
f 721/662/1 736/661/1 720/659/1
f 691/656/1 713/663/1 714/660/1
f 599/664/1 635/654/1 598/653/1
f 692/665/1 713/663/1 691/656/1
f 721/662/1 735/666/1 736/661/1
f 599/664/1 634/667/1 635/654/1
f 722/668/1 735/666/1 721/662/1
f 692/665/1 712/669/1 713/663/1
f 693/670/1 712/669/1 692/665/1
f 722/668/1 734/671/1 735/666/1
f 723/672/1 734/671/1 722/668/1
f 693/670/1 711/673/1 712/669/1
f 694/674/1 711/673/1 693/670/1
f 723/672/1 733/675/1 734/671/1
f 724/676/1 733/675/1 723/672/1
f 600/677/1 634/667/1 599/664/1
f 694/674/1 710/678/1 711/673/1
f 600/677/1 633/477/1 634/667/1
f 695/679/1 710/678/1 694/674/1
f 725/680/1 733/675/1 724/676/1
f 725/680/1 732/681/1 733/675/1
f 695/679/1 709/682/1 710/678/1
f 696/683/1 709/682/1 695/679/1
f 726/684/1 732/681/1 725/680/1
f 726/684/1 731/685/1 732/681/1
f 697/686/1 709/682/1 696/683/1
f 697/686/1 708/687/1 709/682/1
f 601/688/1 633/477/1 600/677/1
f 727/689/1 731/685/1 726/684/1
f 727/689/1 730/690/1 731/685/1
f 601/688/1 632/691/1 633/477/1
f 698/692/1 708/687/1 697/686/1
f 698/692/1 707/693/1 708/687/1
f 727/689/1 728/694/1 730/690/1
f 728/694/1 729/695/1 730/690/1
f 699/696/1 707/693/1 698/692/1
f 699/696/1 706/697/1 707/693/1
f 700/698/1 706/697/1 699/696/1
f 700/698/1 705/699/1 706/697/1
f 602/700/1 632/691/1 601/688/1
f 602/700/1 631/701/1 632/691/1
f 701/702/1 705/699/1 700/698/1
f 701/702/1 704/703/1 705/699/1
f 702/704/1 704/703/1 701/702/1
f 702/704/1 703/705/1 704/703/1
f 602/700/1 630/706/1 631/701/1
f 603/707/1 630/706/1 602/700/1
f 603/707/1 629/708/1 630/706/1
f 604/709/1 629/708/1 603/707/1
f 604/709/1 628/710/1 629/708/1
f 605/711/1 628/710/1 604/709/1
f 605/711/1 627/712/1 628/710/1
f 606/713/1 627/712/1 605/711/1
f 606/713/1 626/714/1 627/712/1
f 607/715/1 626/714/1 606/713/1
f 607/715/1 625/716/1 626/714/1
f 607/715/1 624/717/1 625/716/1
f 608/718/1 624/717/1 607/715/1
f 608/718/1 623/719/1 624/717/1
f 609/720/1 623/719/1 608/718/1
f 609/720/1 622/721/1 623/719/1
f 609/720/1 621/722/1 622/721/1
f 610/723/1 621/722/1 609/720/1
f 610/723/1 620/724/1 621/722/1
f 610/723/1 619/725/1 620/724/1
f 610/723/1 618/726/1 619/725/1
f 610/723/1 617/727/1 618/726/1
f 611/728/1 617/727/1 610/723/1
f 611/728/1 616/729/1 617/727/1
f 612/730/1 616/729/1 611/728/1
f 613/731/1 616/729/1 612/730/1
f 614/732/1 616/729/1 613/731/1
f 615/733/1 616/729/1 614/732/1
f 744/734/1 742/11/1 743/735/1
f 744/734/1 792/736/1 742/11/1
f 781/737/1 779/738/1 780/739/1
f 782/740/1 779/738/1 781/737/1
f 783/741/1 779/738/1 782/740/1
f 783/741/1 778/742/1 779/738/1
f 784/743/1 778/742/1 783/741/1
f 785/744/1 778/742/1 784/743/1
f 786/624/1 778/742/1 785/744/1
f 786/624/1 777/745/1 778/742/1
f 787/746/1 777/745/1 786/624/1
f 788/747/1 777/745/1 787/746/1
f 788/747/1 776/748/1 777/745/1
f 789/749/1 776/748/1 788/747/1
f 790/750/1 776/748/1 789/749/1
f 791/751/1 776/748/1 790/750/1
f 791/751/1 775/477/1 776/748/1
f 792/736/1 775/477/1 791/751/1
f 744/734/1 793/752/1 792/736/1
f 793/752/1 794/753/1 792/736/1
f 794/753/1 795/754/1 792/736/1
f 795/754/1 796/755/1 792/736/1
f 796/755/1 797/591/1 792/736/1
f 797/591/1 798/756/1 792/736/1
f 798/756/1 799/757/1 792/736/1
f 799/757/1 800/758/1 792/736/1
f 800/758/1 801/759/1 792/736/1
f 801/759/1 802/760/1 792/736/1
f 802/760/1 775/477/1 792/736/1
f 802/760/1 803/761/1 775/477/1
f 803/761/1 774/762/1 775/477/1
f 803/761/1 804/763/1 774/762/1
f 804/763/1 805/764/1 774/762/1
f 805/764/1 773/765/1 774/762/1
f 806/766/1 773/765/1 805/764/1
f 807/767/1 773/765/1 806/766/1
f 807/767/1 772/768/1 773/765/1
f 808/562/1 772/768/1 807/767/1
f 809/769/1 772/768/1 808/562/1
f 810/770/1 772/768/1 809/769/1
f 810/770/1 771/771/1 772/768/1
f 811/772/1 771/771/1 810/770/1
f 812/773/1 771/771/1 811/772/1
f 744/734/1 841/93/1 793/752/1
f 812/773/1 770/774/1 771/771/1
f 813/775/1 770/774/1 812/773/1
f 814/776/1 770/774/1 813/775/1
f 814/776/1 769/777/1 770/774/1
f 815/778/1 769/777/1 814/776/1
f 816/779/1 769/777/1 815/778/1
f 816/779/1 768/780/1 769/777/1
f 817/781/1 768/780/1 816/779/1
f 817/781/1 767/782/1 768/780/1
f 818/783/1 767/782/1 817/781/1
f 819/699/1 767/782/1 818/783/1
f 819/699/1 766/784/1 767/782/1
f 820/785/1 766/784/1 819/699/1
f 820/785/1 765/786/1 766/784/1
f 821/787/1 765/786/1 820/785/1
f 822/788/1 765/786/1 821/787/1
f 822/788/1 764/733/1 765/786/1
f 823/789/1 764/733/1 822/788/1
f 824/790/1 764/733/1 823/789/1
f 825/791/1 764/733/1 824/790/1
f 825/791/1 763/792/1 764/733/1
f 826/793/1 763/792/1 825/791/1
f 744/734/1 840/794/1 841/93/1
f 744/734/1 839/795/1 840/794/1
f 827/796/1 763/792/1 826/793/1
f 744/734/1 838/797/1 839/795/1
f 744/734/1 837/798/1 838/797/1
f 744/734/1 836/799/1 837/798/1
f 744/734/1 835/800/1 836/799/1
f 828/801/1 763/792/1 827/796/1
f 744/734/1 834/802/1 835/800/1
f 828/801/1 762/803/1 763/792/1
f 744/734/1 833/804/1 834/802/1
f 744/734/1 832/805/1 833/804/1
f 829/806/1 762/803/1 828/801/1
f 744/734/1 831/807/1 832/805/1
f 744/734/1 830/672/1 831/807/1
f 744/734/1 829/806/1 830/672/1
f 744/734/1 762/803/1 829/806/1
f 744/734/1 761/808/1 762/803/1
f 744/734/1 760/809/1 761/808/1
f 745/810/1 760/809/1 744/734/1
f 745/810/1 759/811/1 760/809/1
f 746/812/1 759/811/1 745/810/1
f 747/813/1 759/811/1 746/812/1
f 748/814/1 759/811/1 747/813/1
f 748/814/1 758/815/1 759/811/1
f 749/816/1 758/815/1 748/814/1
f 750/817/1 758/815/1 749/816/1
f 751/818/1 758/815/1 750/817/1
f 751/818/1 757/819/1 758/815/1
f 752/820/1 757/819/1 751/818/1
f 753/646/1 757/819/1 752/820/1
f 754/821/1 757/819/1 753/646/1
f 754/821/1 756/822/1 757/819/1
f 755/823/1 756/822/1 754/821/1
f 880/824/1 878/825/1 879/826/1
f 881/827/1 878/825/1 880/824/1
f 881/827/1 877/828/1 878/825/1
f 882/829/1 877/828/1 881/827/1
f 883/830/1 877/828/1 882/829/1
f 883/830/1 876/831/1 877/828/1
f 884/832/1 876/831/1 883/830/1
f 884/832/1 875/833/1 876/831/1
f 885/834/1 875/833/1 884/832/1
f 886/835/1 875/833/1 885/834/1
f 886/835/1 874/836/1 875/833/1
f 887/837/1 874/836/1 886/835/1
f 887/837/1 873/838/1 874/836/1
f 888/839/1 873/838/1 887/837/1
f 889/840/1 873/838/1 888/839/1
f 889/840/1 872/841/1 873/838/1
f 890/842/1 872/841/1 889/840/1
f 890/842/1 871/843/1 872/841/1
f 891/844/1 871/843/1 890/842/1
f 892/845/1 893/846/1 891/844/1
f 893/846/1 894/847/1 891/844/1
f 894/847/1 895/848/1 891/844/1
f 895/848/1 896/849/1 891/844/1
f 896/849/1 897/850/1 891/844/1
f 897/850/1 898/851/1 891/844/1
f 898/851/1 899/852/1 891/844/1
f 899/852/1 900/853/1 891/844/1
f 900/853/1 901/854/1 891/844/1
f 901/854/1 902/855/1 891/844/1
f 902/855/1 871/843/1 891/844/1
f 902/855/1 903/856/1 871/843/1
f 903/856/1 904/857/1 871/843/1
f 904/857/1 870/858/1 871/843/1
f 904/857/1 905/859/1 870/858/1
f 905/859/1 869/860/1 870/858/1
f 906/861/1 869/860/1 905/859/1
f 907/862/1 869/860/1 906/861/1
f 908/863/1 869/860/1 907/862/1
f 909/864/1 869/860/1 908/863/1
f 910/865/1 869/860/1 909/864/1
f 910/865/1 868/866/1 869/860/1
f 911/867/1 868/866/1 910/865/1
f 912/868/1 868/866/1 911/867/1
f 913/869/1 868/866/1 912/868/1
f 913/869/1 867/870/1 868/866/1
f 914/871/1 867/870/1 913/869/1
f 915/872/1 867/870/1 914/871/1
f 915/872/1 866/873/1 867/870/1
f 916/874/1 866/873/1 915/872/1
f 917/875/1 866/873/1 916/874/1
f 918/876/1 1015/93/1 917/875/1
f 1015/93/1 866/873/1 917/875/1
f 919/877/1 1015/93/1 918/876/1
f 920/878/1 1015/93/1 919/877/1
f 921/879/1 1015/93/1 920/878/1
f 922/880/1 1015/93/1 921/879/1
f 922/880/1 1014/881/1 1015/93/1
f 979/882/1 866/873/1 1015/93/1
f 922/880/1 1013/883/1 1014/881/1
f 923/884/1 1013/883/1 922/880/1
f 923/884/1 1012/885/1 1013/883/1
f 924/886/1 1012/885/1 923/884/1
f 924/886/1 1011/887/1 1012/885/1
f 925/888/1 1011/887/1 924/886/1
f 925/888/1 1010/889/1 1011/887/1
f 925/888/1 1009/890/1 1010/889/1
f 926/891/1 1009/890/1 925/888/1
f 926/891/1 1008/892/1 1009/890/1
f 927/893/1 1008/892/1 926/891/1
f 927/893/1 1007/894/1 1008/892/1
f 927/893/1 1006/895/1 1007/894/1
f 928/896/1 1006/895/1 927/893/1
f 928/896/1 1005/897/1 1006/895/1
f 928/896/1 1004/898/1 1005/897/1
f 929/899/1 1004/898/1 928/896/1
f 929/899/1 1003/900/1 1004/898/1
f 930/901/1 1003/900/1 929/899/1
f 930/901/1 1002/902/1 1003/900/1
f 930/901/1 1001/903/1 1002/902/1
f 931/904/1 1001/903/1 930/901/1
f 931/904/1 1000/905/1 1001/903/1
f 931/904/1 999/906/1 1000/905/1
f 980/907/1 866/873/1 979/882/1
f 932/908/1 999/906/1 931/904/1
f 981/909/1 866/873/1 980/907/1
f 932/908/1 998/910/1 999/906/1
f 982/911/1 866/873/1 981/909/1
f 843/912/1 978/913/1 842/11/1
f 982/911/1 865/914/1 866/873/1
f 932/908/1 997/915/1 998/910/1
f 844/916/1 978/913/1 843/912/1
f 983/917/1 865/914/1 982/911/1
f 983/917/1 864/918/1 865/914/1
f 845/919/1 978/913/1 844/916/1
f 933/920/1 997/915/1 932/908/1
f 933/920/1 996/921/1 997/915/1
f 983/917/1 863/922/1 864/918/1
f 984/923/1 863/922/1 983/917/1
f 846/924/1 978/913/1 845/919/1
f 984/923/1 862/925/1 863/922/1
f 985/926/1 862/925/1 984/923/1
f 847/927/1 978/913/1 846/924/1
f 933/920/1 995/928/1 996/921/1
f 985/926/1 861/929/1 862/925/1
f 848/930/1 978/913/1 847/927/1
f 986/931/1 861/929/1 985/926/1
f 986/931/1 860/932/1 861/929/1
f 849/933/1 978/913/1 848/930/1
f 933/920/1 994/934/1 995/928/1
f 986/931/1 859/935/1 860/932/1
f 987/936/1 859/935/1 986/931/1
f 850/937/1 978/913/1 849/933/1
f 987/936/1 858/938/1 859/935/1
f 934/939/1 994/934/1 933/920/1
f 851/940/1 978/913/1 850/937/1
f 934/939/1 993/941/1 994/934/1
f 988/942/1 858/938/1 987/936/1
f 988/942/1 857/943/1 858/938/1
f 852/944/1 978/913/1 851/940/1
f 988/942/1 856/945/1 857/943/1
f 853/946/1 978/913/1 852/944/1
f 989/947/1 856/945/1 988/942/1
f 989/947/1 855/948/1 856/945/1
f 854/949/1 978/913/1 853/946/1
f 989/947/1 854/949/1 855/948/1
f 934/939/1 992/950/1 993/941/1
f 989/947/1 978/913/1 854/949/1
f 990/951/1 978/913/1 989/947/1
f 934/939/1 991/952/1 992/950/1
f 991/952/1 978/913/1 990/951/1
f 934/939/1 954/953/1 991/952/1
f 954/953/1 978/913/1 991/952/1
f 935/954/1 954/953/1 934/939/1
f 935/954/1 953/955/1 954/953/1
f 955/956/1 978/913/1 954/953/1
f 936/957/1 953/955/1 935/954/1
f 936/957/1 952/958/1 953/955/1
f 956/959/1 978/913/1 955/956/1
f 956/959/1 977/960/1 978/913/1
f 937/961/1 952/958/1 936/957/1
f 937/961/1 951/962/1 952/958/1
f 957/963/1 977/960/1 956/959/1
f 957/963/1 976/964/1 977/960/1
f 937/961/1 950/965/1 951/962/1
f 958/966/1 976/964/1 957/963/1
f 938/967/1 950/965/1 937/961/1
f 958/966/1 975/968/1 976/964/1
f 938/967/1 949/969/1 950/965/1
f 959/970/1 975/968/1 958/966/1
f 959/970/1 974/971/1 975/968/1
f 939/972/1 949/969/1 938/967/1
f 939/972/1 948/973/1 949/969/1
f 960/974/1 974/971/1 959/970/1
f 960/974/1 973/975/1 974/971/1
f 939/972/1 947/976/1 948/973/1
f 961/977/1 973/975/1 960/974/1
f 961/977/1 972/978/1 973/975/1
f 940/979/1 947/976/1 939/972/1
f 940/979/1 946/980/1 947/976/1
f 962/981/1 972/978/1 961/977/1
f 962/981/1 971/982/1 972/978/1
f 940/979/1 945/983/1 946/980/1
f 962/981/1 970/984/1 971/982/1
f 963/985/1 970/984/1 962/981/1
f 941/986/1 945/983/1 940/979/1
f 963/985/1 969/987/1 970/984/1
f 941/986/1 944/988/1 945/983/1
f 964/989/1 969/987/1 963/985/1
f 964/989/1 968/990/1 969/987/1
f 941/986/1 943/991/1 944/988/1
f 965/992/1 968/990/1 964/989/1
f 942/993/1 943/991/1 941/986/1
f 965/992/1 967/994/1 968/990/1
f 966/995/1 967/994/1 965/992/1
f 1017/996/1 1073/93/1 1016/11/1
f 1017/996/1 1072/997/1 1073/93/1
f 1017/996/1 1071/998/1 1072/997/1
f 1018/999/1 1071/998/1 1017/996/1
f 1019/1000/1 1071/998/1 1018/999/1
f 1020/1001/1 1070/1002/1 1019/1000/1
f 1070/1002/1 1071/998/1 1019/1000/1
f 1020/1001/1 1069/1003/1 1070/1002/1
f 1020/1001/1 1068/1004/1 1069/1003/1
f 1021/1005/1 1068/1004/1 1020/1001/1
f 1021/1005/1 1067/1006/1 1068/1004/1
f 1021/1005/1 1066/1007/1 1067/1006/1
f 1022/1008/1 1066/1007/1 1021/1005/1
f 1022/1008/1 1065/1009/1 1066/1007/1
f 1046/1010/1 1044/1011/1 1045/1012/1
f 1047/1013/1 1044/1011/1 1046/1010/1
f 1022/1008/1 1064/1014/1 1065/1009/1
f 1048/1015/1 1044/1011/1 1047/1013/1
f 1023/1016/1 1064/1014/1 1022/1008/1
f 1023/1016/1 1063/1017/1 1064/1014/1
f 1049/1018/1 1044/1011/1 1048/1015/1
f 1050/1019/1 1044/1011/1 1049/1018/1
f 1023/1016/1 1062/1020/1 1063/1017/1
f 1051/1021/1 1044/1011/1 1050/1019/1
f 1023/1016/1 1061/1022/1 1062/1020/1
f 1052/1023/1 1044/1011/1 1051/1021/1
f 1023/1016/1 1060/1024/1 1061/1022/1
f 1053/1025/1 1044/1011/1 1052/1023/1
f 1024/1026/1 1060/1024/1 1023/1016/1
f 1054/562/1 1044/1011/1 1053/1025/1
f 1024/1026/1 1059/1027/1 1060/1024/1
f 1055/1028/1 1044/1011/1 1054/562/1
f 1024/1026/1 1058/1029/1 1059/1027/1
f 1056/1030/1 1044/1011/1 1055/1028/1
f 1024/1026/1 1057/1031/1 1058/1029/1
f 1057/1031/1 1044/1011/1 1056/1030/1
f 1024/1026/1 1044/1011/1 1057/1031/1
f 1025/1032/1 1044/1011/1 1024/1026/1
f 1026/1033/1 1044/1011/1 1025/1032/1
f 1027/1034/1 1044/1011/1 1026/1033/1
f 1027/1034/1 1043/1035/1 1044/1011/1
f 1028/1036/1 1043/1035/1 1027/1034/1
f 1028/1036/1 1042/1037/1 1043/1035/1
f 1028/1036/1 1041/1038/1 1042/1037/1
f 1029/1039/1 1041/1038/1 1028/1036/1
f 1029/1039/1 1040/1040/1 1041/1038/1
f 1029/1039/1 1039/1041/1 1040/1040/1
f 1029/1039/1 1038/1042/1 1039/1041/1
f 1030/1043/1 1038/1042/1 1029/1039/1
f 1030/1043/1 1037/1044/1 1038/1042/1
f 1030/1043/1 1036/1045/1 1037/1044/1
f 1031/1046/1 1036/1045/1 1030/1043/1
f 1031/1046/1 1035/477/1 1036/1045/1
f 1031/1046/1 1034/1047/1 1035/477/1
f 1032/1048/1 1034/1047/1 1031/1046/1
f 1032/1048/1 1033/1049/1 1034/1047/1
