# 面取りキューブ（壁ブロック用）
# 元のキューブの各面を内側へ寄せ、辺と角に面取り面を足したもの。
# 面取り面が光を拾うことで、落下ブロックと同じツヤが出る。
# UVは元のキューブのまま。面取り面はテクスチャの黒い余白を参照する。
mtllib goalBlockBevel.mtl
o BevelWall
v 0.820000 1.000000 -0.820000
v -0.820000 1.000000 -0.820000
v -0.820000 1.000000 0.820000
v 0.820000 1.000000 0.820000
v 0.820000 -0.820000 1.000000
v 0.820000 0.820000 1.000000
v -0.820000 0.820000 1.000000
v -0.820000 -0.820000 1.000000
v -1.000000 -0.820000 0.820000
v -1.000000 0.820000 0.820000
v -1.000000 0.820000 -0.820000
v -1.000000 -0.820000 -0.820000
v -0.820000 -1.000000 -0.820000
v 0.820000 -1.000000 -0.820000
v 0.820000 -1.000000 0.820000
v -0.820000 -1.000000 0.820000
v 1.000000 -0.820000 -0.820000
v 1.000000 0.820000 -0.820000
v 1.000000 0.820000 0.820000
v 1.000000 -0.820000 0.820000
v -0.820000 -0.820000 -1.000000
v -0.820000 0.820000 -1.000000
v 0.820000 0.820000 -1.000000
v 0.820000 -0.820000 -1.000000
vn -0.000000 1.000000 -0.000000
vn -0.000000 -0.000000 1.000000
vn -1.000000 -0.000000 -0.000000
vn -0.000000 -1.000000 -0.000000
vn 1.000000 -0.000000 -0.000000
vn -0.000000 -0.000000 -1.000000
vn -0.000000 0.707107 -0.707107
vn -0.707107 0.707107 -0.000000
vn -0.000000 0.707107 0.707107
vn 0.707107 0.707107 -0.000000
vn 0.707107 -0.000000 0.707107
vn -0.707107 -0.000000 0.707107
vn -0.000000 -0.707107 0.707107
vn -0.707107 -0.000000 -0.707107
vn -0.707107 -0.707107 -0.000000
vn -0.000000 -0.707107 -0.707107
vn 0.707107 -0.707107 -0.000000
vn 0.707107 -0.000000 -0.707107
vn 0.577350 0.577350 -0.577350
vn -0.577350 0.577350 -0.577350
vn -0.577350 0.577350 0.577350
vn 0.577350 0.577350 0.577350
vn 0.577350 -0.577350 0.577350
vn -0.577350 -0.577350 0.577350
vn -0.577350 -0.577350 -0.577350
vn 0.577350 -0.577350 -0.577350
vt 0.000000 0.000000
vt 0.625000 0.500000
vt 0.875000 0.500000
vt 0.875000 0.750000
vt 0.625000 0.750000
vt 0.375000 0.750000
vt 0.625000 1.000000
vt 0.375000 1.000000
vt 0.375000 0.000000
vt 0.625000 0.000000
vt 0.625000 0.250000
vt 0.375000 0.250000
vt 0.125000 0.500000
vt 0.375000 0.500000
vt 0.125000 0.750000
s 0
usemtl Material
f 1/2/1 2/3/1 3/4/1 4/5/1
f 5/6/2 6/5/2 7/7/2 8/8/2
f 9/9/3 10/10/3 11/11/3 12/12/3
f 13/13/4 14/14/4 15/6/4 16/15/4
f 17/14/5 18/2/5 19/5/5 20/6/5
f 21/12/6 22/11/6 23/2/6 24/14/6
f 23/1/7 22/1/7 2/1/7 1/1/7
f 11/1/8 10/1/8 3/1/8 2/1/8
f 4/1/9 3/1/9 7/1/9 6/1/9
f 1/1/10 4/1/10 19/1/10 18/1/10
f 6/1/11 5/1/11 20/1/11 19/1/11
f 10/1/12 9/1/12 8/1/12 7/1/12
f 5/1/13 8/1/13 16/1/13 15/1/13
f 22/1/14 21/1/14 12/1/14 11/1/14
f 13/1/15 16/1/15 9/1/15 12/1/15
f 14/1/16 13/1/16 21/1/16 24/1/16
f 17/1/17 20/1/17 15/1/17 14/1/17
f 18/1/18 17/1/18 24/1/18 23/1/18
f 1/1/19 18/1/19 23/1/19
f 22/1/20 11/1/20 2/1/20
f 10/1/21 7/1/21 3/1/21
f 4/1/22 6/1/22 19/1/22
f 5/1/23 15/1/23 20/1/23
f 8/1/24 9/1/24 16/1/24
f 21/1/25 13/1/25 12/1/25
f 24/1/26 17/1/26 14/1/26
