# Blender 4.4.1
# www.blender.org
mtllib title.mtl
o テキスト
v -0.697151 0.416667 -0.000000
v -0.613818 0.416667 -0.000000
v -0.613818 0.458333 -0.000000
v -0.697151 0.458333 -0.000000
v -0.613818 0.250000 -0.000000
v -0.822151 0.250000 -0.000000
v -0.822151 0.166667 -0.000000
v -0.613818 0.166667 -0.000000
v -0.613818 0.000000 -0.000000
v -0.530484 0.000000 -0.000000
v -0.530484 0.375000 -0.000000
v -0.613818 0.375000 -0.000000
v -0.822151 0.416667 -0.000000
v -0.738818 0.416667 -0.000000
v -0.738818 0.458333 -0.000000
v -0.822151 0.458333 -0.000000
v -0.280484 0.250000 -0.000000
v -0.280484 0.208333 -0.000000
v -0.488818 0.208333 -0.000000
v -0.488818 0.125000 -0.000000
v -0.238818 0.125000 -0.000000
v -0.238818 0.166667 -0.000000
v -0.197151 0.166667 -0.000000
v -0.197151 0.250000 -0.000000
v -0.155484 0.375000 -0.000000
v -0.155484 0.000000 -0.000000
v 0.136182 0.000000 -0.000000
v 0.136182 0.375000 -0.000000
v -0.072151 0.083333 -0.000000
v -0.072151 0.291667 -0.000000
v 0.052849 0.291667 -0.000000
v 0.052849 0.083333 -0.000000
v 0.386182 0.250000 -0.000000
v 0.177849 0.250000 -0.000000
v 0.177849 0.166667 -0.000000
v 0.386182 0.166667 -0.000000
v 0.386182 0.000000 -0.000000
v 0.469516 0.000000 -0.000000
v 0.469516 0.375000 -0.000000
v 0.386182 0.375000 -0.000000
v 0.511182 0.250000 -0.000000
v 0.511182 0.166667 -0.000000
v 0.594516 0.166667 -0.000000
v 0.594516 0.041667 -0.000000
v 0.636182 0.041667 -0.000000
v 0.636182 0.000000 -0.000000
v 0.761182 0.000000 -0.000000
v 0.761182 0.083333 -0.000000
v 0.677849 0.083333 -0.000000
v 0.677849 0.166667 -0.000000
v 0.802849 0.166667 -0.000000
v 0.802849 0.250000 -0.000000
v 0.552849 0.291667 -0.000000
v 0.761182 0.291667 -0.000000
v 0.761182 0.375000 -0.000000
v 0.552849 0.375000 -0.000000
vn -0.0000 -0.0000 -1.0000
vt 0.600000 0.000000
vt 0.733333 0.000000
vt 0.666667 0.000000
vt 0.266667 0.000000
vt 0.466667 0.000000
vt 0.333333 0.000000
vt 0.400000 0.000000
vt 0.533333 0.000000
vt 0.866667 0.000000
vt 1.000000 0.000000
vt 0.933333 0.000000
vt 0.800000 0.000000
vt 0.066667 0.000000
vt 0.200000 0.000000
vt 0.133333 0.000000
vt 0.000000 0.000000
vt 0.857143 0.000000
vt 0.142857 0.000000
vt 0.285714 0.000000
vt 0.714286 0.000000
vt 0.428571 0.000000
vt 0.571429 0.000000
s 0
usemtl Material
f 10/1/1 12/2/1 11/3/1
f 10/1/1 5/4/1 12/2/1
f 10/1/1 8/5/1 5/4/1
f 8/5/1 6/6/1 5/4/1
f 8/5/1 7/7/1 6/6/1
f 10/1/1 9/8/1 8/5/1
f 14/9/1 16/10/1 15/11/1
f 14/9/1 13/12/1 16/10/1
f 2/13/1 4/14/1 3/15/1
f 2/13/1 1/16/1 4/14/1
f 23/17/1 17/16/1 24/10/1
f 23/17/1 18/18/1 17/16/1
f 23/17/1 19/19/1 18/18/1
f 23/17/1 22/20/1 19/19/1
f 22/20/1 20/21/1 19/19/1
f 21/22/1 20/21/1 22/20/1
f 27/19/1 31/17/1 28/21/1
f 31/17/1 25/16/1 28/21/1
f 31/17/1 30/20/1 25/16/1
f 30/20/1 26/18/1 25/16/1
f 27/19/1 32/10/1 31/17/1
f 29/22/1 26/18/1 30/20/1
f 27/19/1 29/22/1 32/10/1
f 27/19/1 26/18/1 29/22/1
f 38/20/1 40/10/1 39/17/1
f 38/20/1 33/16/1 40/10/1
f 38/20/1 36/21/1 33/16/1
f 36/21/1 34/18/1 33/16/1
f 36/21/1 35/19/1 34/18/1
f 38/20/1 37/22/1 36/21/1
f 54/9/1 56/10/1 55/11/1
f 54/9/1 53/12/1 56/10/1
f 51/3/1 41/16/1 52/2/1
f 51/3/1 42/13/1 41/16/1
f 50/1/1 42/13/1 51/3/1
f 49/8/1 43/15/1 50/1/1
f 43/15/1 42/13/1 50/1/1
f 49/8/1 44/14/1 43/15/1
f 47/7/1 49/8/1 48/5/1
f 47/7/1 45/4/1 49/8/1
f 45/4/1 44/14/1 49/8/1
f 47/7/1 46/6/1 45/4/1
