# Blender 4.4.1
# www.blender.org
mtllib circle.mtl
o Cube
v 1.000000 2.111761 -2.827309
v 1.000000 -2.111761 -2.827309
v 1.000000 2.111761 0.853243
v 1.000000 -2.111761 0.853243
v -1.000000 1.000000 -1.000000
v -1.000000 -1.000000 -1.000000
v -1.000000 1.000000 2.974067
v -1.000000 -1.000000 2.974067
vn -0.4859 0.8740 -0.0000
vn 0.7275 -0.0000 0.6861
vn -1.0000 -0.0000 -0.0000
vn -0.4859 -0.8740 -0.0000
vn 1.0000 -0.0000 -0.0000
vn -0.6745 -0.0000 -0.7383
vt 0.625000 0.500000
vt 0.875000 0.500000
vt 0.875000 0.750000
vt 0.625000 0.750000
vt 0.375000 0.750000
vt 0.625000 1.000000
vt 0.375000 1.000000
vt 0.375000 0.000000
vt 0.625000 0.000000
vt 0.625000 0.250000
vt 0.375000 0.250000
vt 0.125000 0.500000
vt 0.375000 0.500000
vt 0.125000 0.750000
s 0
usemtl Material
f 1/1/1 5/2/1 7/3/1 3/4/1
f 4/5/2 3/4/2 7/6/2 8/7/2
f 8/8/3 7/9/3 5/10/3 6/11/3
f 6/12/4 2/13/4 4/5/4 8/14/4
f 2/13/5 1/1/5 3/4/5 4/5/5
f 6/11/6 5/10/6 1/1/6 2/13/6
o 円柱
v 3.140558 0.701279 -8.116272
v 3.140558 2.701279 -8.116272
v 3.335648 0.701279 -8.097057
v 3.335648 2.701279 -8.097057
v 3.523241 0.701279 -8.040152
v 3.523241 2.701279 -8.040152
v 3.696128 0.701279 -7.947742
v 3.696128 2.701279 -7.947742
v 3.847665 0.701279 -7.823379
v 3.847665 2.701279 -7.823379
v 3.972027 0.701279 -7.671842
v 3.972027 2.701279 -7.671842
v 4.064437 0.701279 -7.498955
v 4.064437 2.701279 -7.498955
v 4.121343 0.701279 -7.311362
v 4.121343 2.701279 -7.311362
v 4.140558 0.701279 -7.116272
v 4.140558 2.701279 -7.116272
v 4.121343 0.701279 -6.921182
v 4.121343 2.701279 -6.921182
v 4.064437 0.701279 -6.733589
v 4.064437 2.701279 -6.733589
v 3.972027 0.701279 -6.560702
v 3.972027 2.701279 -6.560702
v 3.847665 0.701279 -6.409165
v 3.847665 2.701279 -6.409165
v 3.696128 0.701279 -6.284802
v 3.696128 2.701279 -6.284802
v 3.523241 0.701279 -6.192392
v 3.523241 2.701279 -6.192392
v 3.335648 0.701279 -6.135487
v 3.335648 2.701279 -6.135487
v 3.140558 0.701279 -6.116272
v 3.140558 2.701279 -6.116272
v 2.945467 0.701279 -6.135487
v 2.945467 2.701279 -6.135487
v 2.757874 0.701279 -6.192392
v 2.757874 2.701279 -6.192392
v 2.584988 0.701279 -6.284802
v 2.584988 2.701279 -6.284802
v 2.433451 0.701279 -6.409165
v 2.433451 2.701279 -6.409165
v 2.309088 0.701279 -6.560702
v 2.309088 2.701279 -6.560702
v 2.216678 0.701279 -6.733589
v 2.216678 2.701279 -6.733589
v 2.159772 0.701279 -6.921182
v 2.159772 2.701279 -6.921182
v 2.140558 0.701279 -7.116272
v 2.140558 2.701279 -7.116272
v 2.159772 0.701279 -7.311362
v 2.159772 2.701279 -7.311362
v 2.216678 0.701279 -7.498955
v 2.216678 2.701279 -7.498955
v 2.309088 0.701279 -7.671842
v 2.309088 2.701279 -7.671842
v 2.433451 0.701279 -7.823379
v 2.433451 2.701279 -7.823379
v 2.584988 0.701279 -7.947742
v 2.584988 2.701279 -7.947742
v 2.757874 0.701279 -8.040152
v 2.757874 2.701279 -8.040152
v 2.945467 0.701279 -8.097057
v 2.945467 2.701279 -8.097057
vn 0.0980 -0.0000 -0.9952
vn 0.2903 -0.0000 -0.9569
vn 0.4714 -0.0000 -0.8819
vn 0.6344 -0.0000 -0.7730
vn 0.7730 -0.0000 -0.6344
vn 0.8819 -0.0000 -0.4714
vn 0.9569 -0.0000 -0.2903
vn 0.9952 -0.0000 -0.0980
vn 0.9952 -0.0000 0.0980
vn 0.9569 -0.0000 0.2903
vn 0.8819 -0.0000 0.4714
vn 0.7730 -0.0000 0.6344
vn 0.6344 -0.0000 0.7730
vn 0.4714 -0.0000 0.8819
vn 0.2903 -0.0000 0.9569
vn 0.0980 -0.0000 0.9952
vn -0.0980 -0.0000 0.9952
vn -0.2903 -0.0000 0.9569
vn -0.4714 -0.0000 0.8819
vn -0.6344 -0.0000 0.7730
vn -0.7730 -0.0000 0.6344
vn -0.8819 -0.0000 0.4714
vn -0.9569 -0.0000 0.2903
vn -0.9952 -0.0000 0.0980
vn -0.9952 -0.0000 -0.0980
vn -0.9569 -0.0000 -0.2903
vn -0.8819 -0.0000 -0.4714
vn -0.7730 -0.0000 -0.6344
vn -0.6344 -0.0000 -0.7730
vn -0.4714 -0.0000 -0.8819
vn -0.0000 1.0000 -0.0000
vn -0.2903 -0.0000 -0.9569
vn -0.0980 -0.0000 -0.9952
vn -0.0000 -1.0000 -0.0000
vt 1.000000 0.500000
vt 1.000000 1.000000
vt 0.968750 1.000000
vt 0.968750 0.500000
vt 0.937500 1.000000
vt 0.937500 0.500000
vt 0.906250 1.000000
vt 0.906250 0.500000
vt 0.875000 1.000000
vt 0.875000 0.500000
vt 0.843750 1.000000
vt 0.843750 0.500000
vt 0.812500 1.000000
vt 0.812500 0.500000
vt 0.781250 1.000000
vt 0.781250 0.500000
vt 0.750000 1.000000
vt 0.750000 0.500000
vt 0.718750 1.000000
vt 0.718750 0.500000
vt 0.687500 1.000000
vt 0.687500 0.500000
vt 0.656250 1.000000
vt 0.656250 0.500000
vt 0.625000 1.000000
vt 0.625000 0.500000
vt 0.593750 1.000000
vt 0.593750 0.500000
vt 0.562500 1.000000
vt 0.562500 0.500000
vt 0.531250 1.000000
vt 0.531250 0.500000
vt 0.500000 1.000000
vt 0.500000 0.500000
vt 0.468750 1.000000
vt 0.468750 0.500000
vt 0.437500 1.000000
vt 0.437500 0.500000
vt 0.406250 1.000000
vt 0.406250 0.500000
vt 0.375000 1.000000
vt 0.375000 0.500000
vt 0.343750 1.000000
vt 0.343750 0.500000
vt 0.312500 1.000000
vt 0.312500 0.500000
vt 0.281250 1.000000
vt 0.281250 0.500000
vt 0.250000 1.000000
vt 0.250000 0.500000
vt 0.218750 1.000000
vt 0.218750 0.500000
vt 0.187500 1.000000
vt 0.187500 0.500000
vt 0.156250 1.000000
vt 0.156250 0.500000
vt 0.125000 1.000000
vt 0.125000 0.500000
vt 0.093750 1.000000
vt 0.093750 0.500000
vt 0.062500 1.000000
vt 0.062500 0.500000
vt 0.296822 0.485388
vt 0.250000 0.490000
vt 0.203178 0.485388
vt 0.158156 0.471731
vt 0.116663 0.449553
vt 0.080294 0.419706
vt 0.050447 0.383337
vt 0.028269 0.341844
vt 0.014612 0.296822
vt 0.010000 0.250000
vt 0.014612 0.203178
vt 0.028269 0.158156
vt 0.050447 0.116663
vt 0.080294 0.080294
vt 0.116663 0.050447
vt 0.158156 0.028269
vt 0.203178 0.014612
vt 0.250000 0.010000
vt 0.296822 0.014612
vt 0.341844 0.028269
vt 0.383337 0.050447
vt 0.419706 0.080294
vt 0.449553 0.116663
vt 0.471731 0.158156
vt 0.485388 0.203178
vt 0.490000 0.250000
vt 0.485388 0.296822
vt 0.471731 0.341844
vt 0.449553 0.383337
vt 0.419706 0.419706
vt 0.383337 0.449553
vt 0.341844 0.471731
vt 0.031250 1.000000
vt 0.031250 0.500000
vt 0.000000 1.000000
vt 0.000000 0.500000
vt 0.750000 0.490000
vt 0.796822 0.485388
vt 0.841844 0.471731
vt 0.883337 0.449553
vt 0.919706 0.419706
vt 0.949553 0.383337
vt 0.971731 0.341844
vt 0.985388 0.296822
vt 0.990000 0.250000
vt 0.985388 0.203178
vt 0.971731 0.158156
vt 0.949553 0.116663
vt 0.919706 0.080294
vt 0.883337 0.050447
vt 0.841844 0.028269
vt 0.796822 0.014612
vt 0.750000 0.010000
vt 0.703178 0.014612
vt 0.658156 0.028269
vt 0.616663 0.050447
vt 0.580294 0.080294
vt 0.550447 0.116663
vt 0.528269 0.158156
vt 0.514612 0.203178
vt 0.510000 0.250000
vt 0.514612 0.296822
vt 0.528269 0.341844
vt 0.550447 0.383337
vt 0.580294 0.419706
vt 0.616663 0.449553
vt 0.658156 0.471731
vt 0.703178 0.485388
s 0
usemtl マテリアル.001
f 9/15/7 10/16/7 12/17/7 11/18/7
f 11/18/8 12/17/8 14/19/8 13/20/8
f 13/20/9 14/19/9 16/21/9 15/22/9
f 15/22/10 16/21/10 18/23/10 17/24/10
f 17/24/11 18/23/11 20/25/11 19/26/11
f 19/26/12 20/25/12 22/27/12 21/28/12
f 21/28/13 22/27/13 24/29/13 23/30/13
f 23/30/14 24/29/14 26/31/14 25/32/14
f 25/32/15 26/31/15 28/33/15 27/34/15
f 27/34/16 28/33/16 30/35/16 29/36/16
f 29/36/17 30/35/17 32/37/17 31/38/17
f 31/38/18 32/37/18 34/39/18 33/40/18
f 33/40/19 34/39/19 36/41/19 35/42/19
f 35/42/20 36/41/20 38/43/20 37/44/20
f 37/44/21 38/43/21 40/45/21 39/46/21
f 39/46/22 40/45/22 42/47/22 41/48/22
f 41/48/23 42/47/23 44/49/23 43/50/23
f 43/50/24 44/49/24 46/51/24 45/52/24
f 45/52/25 46/51/25 48/53/25 47/54/25
f 47/54/26 48/53/26 50/55/26 49/56/26
f 49/56/27 50/55/27 52/57/27 51/58/27
f 51/58/28 52/57/28 54/59/28 53/60/28
f 53/60/29 54/59/29 56/61/29 55/62/29
f 55/62/30 56/61/30 58/63/30 57/64/30
f 57/64/31 58/63/31 60/65/31 59/66/31
f 59/66/32 60/65/32 62/67/32 61/68/32
f 61/68/33 62/67/33 64/69/33 63/70/33
f 63/70/34 64/69/34 66/71/34 65/72/34
f 65/72/35 66/71/35 68/73/35 67/74/35
f 67/74/36 68/73/36 70/75/36 69/76/36
f 12/77/37 10/78/37 72/79/37 70/80/37 68/81/37 66/82/37 64/83/37 62/84/37 60/85/37 58/86/37 56/87/37 54/88/37 52/89/37 50/90/37 48/91/37 46/92/37 44/93/37 42/94/37 40/95/37 38/96/37 36/97/37 34/98/37 32/99/37 30/100/37 28/101/37 26/102/37 24/103/37 22/104/37 20/105/37 18/106/37 16/107/37 14/108/37
f 69/76/38 70/75/38 72/109/38 71/110/38
f 71/110/39 72/109/39 10/111/39 9/112/39
f 9/113/40 11/114/40 13/115/40 15/116/40 17/117/40 19/118/40 21/119/40 23/120/40 25/121/40 27/122/40 29/123/40 31/124/40 33/125/40 35/126/40 37/127/40 39/128/40 41/129/40 43/130/40 45/131/40 47/132/40 49/133/40 51/134/40 53/135/40 55/136/40 57/137/40 59/138/40 61/139/40 63/140/40 65/141/40 67/142/40 69/143/40 71/144/40
o 円錐
v 0.000000 2.043070 2.483714
v 0.344956 2.043070 2.517689
v 0.676656 2.043070 2.618309
v 0.982352 2.043070 2.781707
v 1.250297 2.043070 3.001604
v 1.470194 2.043070 3.269549
v 1.633592 2.043070 3.575245
v 1.734212 2.043070 3.906945
v 1.768187 2.043070 4.251901
v 1.734212 2.043070 4.596858
v 1.633592 2.043070 4.928557
v 1.470194 2.043070 5.234253
v 1.250297 2.043070 5.502198
v 0.982352 2.043070 5.722095
v 0.676656 2.043070 5.885493
v 0.344956 2.043070 5.986113
v 0.000000 2.043070 6.020088
v -0.344956 2.043070 5.986113
v -0.676656 2.043070 5.885493
v -0.982352 2.043070 5.722095
v -1.250297 2.043070 5.502198
v -1.470194 2.043070 5.234253
v -1.633592 2.043070 4.928557
v -1.734212 2.043070 4.596858
v -1.768187 2.043070 4.251901
v -1.734212 2.043070 3.906945
v -1.633592 2.043070 3.575245
v -1.470194 2.043070 3.269549
v -1.250297 2.043070 3.001604
v -0.982352 2.043070 2.781707
v -0.676656 2.043070 2.618309
v -0.344956 2.043070 2.517689
v 0.000000 5.579444 4.251901
vn 0.0878 0.4455 -0.8910
vn 0.2599 0.4455 -0.8567
vn 0.4220 0.4455 -0.7896
vn 0.5680 0.4455 -0.6921
vn 0.6921 0.4455 -0.5680
vn 0.7896 0.4455 -0.4220
vn 0.8567 0.4455 -0.2599
vn 0.8910 0.4455 -0.0878
vn 0.8910 0.4455 0.0878
vn 0.8567 0.4455 0.2599
vn 0.7896 0.4455 0.4220
vn 0.6921 0.4455 0.5680
vn 0.5680 0.4455 0.6921
vn 0.4220 0.4455 0.7896
vn 0.2599 0.4455 0.8567
vn 0.0878 0.4455 0.8910
vn -0.0878 0.4455 0.8910
vn -0.2599 0.4455 0.8567
vn -0.4220 0.4455 0.7896
vn -0.5680 0.4455 0.6921
vn -0.6921 0.4455 0.5680
vn -0.7896 0.4455 0.4220
vn -0.8567 0.4455 0.2599
vn -0.8910 0.4455 0.0878
vn -0.8910 0.4455 -0.0878
vn -0.8567 0.4455 -0.2599
vn -0.7896 0.4455 -0.4220
vn -0.6921 0.4455 -0.5680
vn -0.5680 0.4455 -0.6921
vn -0.4220 0.4455 -0.7896
vn -0.0000 -1.0000 -0.0000
vn -0.2599 0.4455 -0.8567
vn -0.0878 0.4455 -0.8910
vt 0.250000 0.490000
vt 0.250000 0.250000
vt 0.296822 0.485388
vt 0.341844 0.471731
vt 0.383337 0.449553
vt 0.419706 0.419706
vt 0.449553 0.383337
vt 0.471731 0.341844
vt 0.485388 0.296822
vt 0.490000 0.250000
vt 0.485388 0.203178
vt 0.471731 0.158156
vt 0.449553 0.116663
vt 0.419706 0.080294
vt 0.383337 0.050447
vt 0.341844 0.028269
vt 0.296822 0.014612
vt 0.250000 0.010000
vt 0.203178 0.014612
vt 0.158156 0.028269
vt 0.116663 0.050447
vt 0.080294 0.080294
vt 0.050447 0.116663
vt 0.028269 0.158156
vt 0.014612 0.203178
vt 0.010000 0.250000
vt 0.014612 0.296822
vt 0.028269 0.341844
vt 0.050447 0.383337
vt 0.080294 0.419706
vt 0.116663 0.449553
vt 0.158156 0.471731
vt 0.750000 0.490000
vt 0.796822 0.485388
vt 0.841844 0.471731
vt 0.883337 0.449553
vt 0.919706 0.419706
vt 0.949553 0.383337
vt 0.971731 0.341844
vt 0.985388 0.296822
vt 0.990000 0.250000
vt 0.985388 0.203178
vt 0.971731 0.158156
vt 0.949553 0.116663
vt 0.919706 0.080294
vt 0.883337 0.050447
vt 0.841844 0.028269
vt 0.796822 0.014612
vt 0.750000 0.010000
vt 0.703178 0.014612
vt 0.658156 0.028269
vt 0.616663 0.050447
vt 0.580294 0.080294
vt 0.550447 0.116663
vt 0.528269 0.158156
vt 0.514612 0.203178
vt 0.510000 0.250000
vt 0.514612 0.296822
vt 0.528269 0.341844
vt 0.550447 0.383337
vt 0.580294 0.419706
vt 0.616663 0.449553
vt 0.658156 0.471731
vt 0.703178 0.485388
vt 0.203178 0.485388
s 0
usemtl マテリアル
f 73/145/41 105/146/41 74/147/41
f 74/147/42 105/146/42 75/148/42
f 75/148/43 105/146/43 76/149/43
f 76/149/44 105/146/44 77/150/44
f 77/150/45 105/146/45 78/151/45
f 78/151/46 105/146/46 79/152/46
f 79/152/47 105/146/47 80/153/47
f 80/153/48 105/146/48 81/154/48
f 81/154/49 105/146/49 82/155/49
f 82/155/50 105/146/50 83/156/50
f 83/156/51 105/146/51 84/157/51
f 84/157/52 105/146/52 85/158/52
f 85/158/53 105/146/53 86/159/53
f 86/159/54 105/146/54 87/160/54
f 87/160/55 105/146/55 88/161/55
f 88/161/56 105/146/56 89/162/56
f 89/162/57 105/146/57 90/163/57
f 90/163/58 105/146/58 91/164/58
f 91/164/59 105/146/59 92/165/59
f 92/165/60 105/146/60 93/166/60
f 93/166/61 105/146/61 94/167/61
f 94/167/62 105/146/62 95/168/62
f 95/168/63 105/146/63 96/169/63
f 96/169/64 105/146/64 97/170/64
f 97/170/65 105/146/65 98/171/65
f 98/171/66 105/146/66 99/172/66
f 99/172/67 105/146/67 100/173/67
f 100/173/68 105/146/68 101/174/68
f 101/174/69 105/146/69 102/175/69
f 102/175/70 105/146/70 103/176/70
f 73/177/71 74/178/71 75/179/71 76/180/71 77/181/71 78/182/71 79/183/71 80/184/71 81/185/71 82/186/71 83/187/71 84/188/71 85/189/71 86/190/71 87/191/71 88/192/71 89/193/71 90/194/71 91/195/71 92/196/71 93/197/71 94/198/71 95/199/71 96/200/71 97/201/71 98/202/71 99/203/71 100/204/71 101/205/71 102/206/71 103/207/71 104/208/71
f 103/176/72 105/146/72 104/209/72
f 104/209/73 105/146/73 73/145/73
