# Blender 4.4.1
# www.blender.org
mtllib space.mtl
o テキスト
v -1.975987 0.378000 -0.000000
v -1.970016 0.333552 -0.000000
v -1.962548 0.290750 -0.000000
v -1.953503 0.249656 -0.000000
v -1.942802 0.210333 -0.000000
v -1.930366 0.172844 -0.000000
v -1.916112 0.137250 -0.000000
v -1.899964 0.103615 -0.000000
v -1.881839 0.072000 -0.000000
v -1.861659 0.042469 -0.000000
v -1.839344 0.015083 -0.000000
v -1.814813 -0.010094 -0.000000
v -1.787987 -0.033000 -0.000000
v -1.792739 -0.036027 -0.000000
v -1.797922 -0.039551 -0.000000
v -1.803424 -0.043484 -0.000000
v -1.809135 -0.047741 -0.000000
v -1.814943 -0.052233 -0.000000
v -1.820737 -0.056875 -0.000000
v -1.826406 -0.061579 -0.000000
v -1.831839 -0.066259 -0.000000
v -1.836925 -0.070828 -0.000000
v -1.841552 -0.075199 -0.000000
v -1.845610 -0.079285 -0.000000
v -1.848988 -0.083000 -0.000000
v -1.865345 -0.068126 -0.000000
v -1.880932 -0.052505 -0.000000
v -1.895769 -0.036141 -0.000000
v -1.909876 -0.019037 -0.000000
v -1.923275 -0.001197 -0.000000
v -1.935987 0.017375 -0.000000
v -1.948032 0.036677 -0.000000
v -1.959432 0.056704 -0.000000
v -1.970206 0.077453 -0.000000
v -1.980376 0.098921 -0.000000
v -1.989963 0.121105 -0.000000
v -1.998988 0.144000 -0.000000
v -2.023197 0.103565 -0.000000
v -2.049826 0.068523 -0.000000
v -2.078878 0.038516 -0.000000
v -2.110358 0.013185 -0.000000
v -2.144269 -0.007826 -0.000000
v -2.180613 -0.024875 -0.000000
v -2.219394 -0.038320 -0.000000
v -2.260617 -0.048519 -0.000000
v -2.304284 -0.055828 -0.000000
v -2.350399 -0.060607 -0.000000
v -2.398965 -0.063211 -0.000000
v -2.449987 -0.064000 -0.000000
v -2.683988 -0.064000 -0.000000
v -2.684958 -0.058227 -0.000000
v -2.686339 -0.051981 -0.000000
v -2.688081 -0.045375 -0.000000
v -2.690135 -0.038519 -0.000000
v -2.692454 -0.031523 -0.000000
v -2.694987 -0.024500 -0.000000
v -2.697688 -0.017560 -0.000000
v -2.700506 -0.010815 -0.000000
v -2.703393 -0.004375 -0.000000
v -2.706302 0.001648 -0.000000
v -2.709183 0.007144 -0.000000
v -2.711987 0.012000 -0.000000
v -2.697324 0.011770 -0.000000
v -2.678432 0.011579 -0.000000
v -2.656206 0.011422 -0.000000
v -2.631543 0.011296 -0.000000
v -2.605338 0.011198 -0.000000
v -2.578487 0.011125 -0.000000
v -2.551887 0.011072 -0.000000
v -2.526432 0.011037 -0.000000
v -2.503018 0.011016 -0.000000
v -2.482543 0.011005 -0.000000
v -2.465900 0.011001 -0.000000
v -2.453988 0.011000 -0.000000
v -2.439322 0.011064 -0.000000
v -2.424826 0.011264 -0.000000
v -2.410503 0.011609 -0.000000
v -2.396358 0.012111 -0.000000
v -2.382393 0.012780 -0.000000
v -2.368613 0.013625 -0.000000
v -2.355020 0.014658 -0.000000
v -2.341618 0.015889 -0.000000
v -2.328410 0.017328 -0.000000
v -2.315400 0.018986 -0.000000
v -2.302591 0.020873 -0.000000
v -2.289988 0.023000 -0.000000
v -2.289988 0.225000 -0.000000
v -2.587987 0.225000 -0.000000
v -2.587987 0.295000 -0.000000
v -2.289988 0.295000 -0.000000
v -2.289988 0.459000 -0.000000
v -2.546988 0.459000 -0.000000
v -2.546988 0.532000 -0.000000
v -1.962987 0.532000 -0.000000
v -1.962987 0.459000 -0.000000
v -2.211987 0.459000 -0.000000
v -2.211987 0.044000 -0.000000
v -2.191886 0.052344 -0.000000
v -2.172594 0.061917 -0.000000
v -2.154128 0.072781 -0.000000
v -2.136506 0.085000 -0.000000
v -2.119745 0.098635 -0.000000
v -2.103863 0.113750 -0.000000
v -2.088876 0.130406 -0.000000
v -2.074803 0.148667 -0.000000
v -2.061660 0.168594 -0.000000
v -2.049465 0.190250 -0.000000
v -2.038235 0.213698 -0.000000
v -2.027987 0.239000 -0.000000
v -2.030446 0.249312 -0.000000
v -2.032821 0.259745 -0.000000
v -2.035113 0.270297 -0.000000
v -2.037321 0.280963 -0.000000
v -2.039446 0.291740 -0.000000
v -2.041488 0.302625 -0.000000
v -2.043446 0.313614 -0.000000
v -2.045321 0.324704 -0.000000
v -2.047112 0.335891 -0.000000
v -2.048821 0.347171 -0.000000
v -2.050446 0.358542 -0.000000
v -2.051988 0.370000 -0.000000
v -2.177988 0.826000 -0.000000
v -2.182254 0.818342 -0.000000
v -2.186534 0.810403 -0.000000
v -2.190800 0.802234 -0.000000
v -2.195024 0.793889 -0.000000
v -2.199180 0.785418 -0.000000
v -2.203238 0.776875 -0.000000
v -2.207170 0.768311 -0.000000
v -2.210950 0.759778 -0.000000
v -2.214550 0.751328 -0.000000
v -2.217941 0.743014 -0.000000
v -2.221097 0.734887 -0.000000
v -2.223988 0.727000 -0.000000
v -1.833987 0.727000 -0.000000
v -1.833987 0.509000 -0.000000
v -1.907988 0.509000 -0.000000
v -1.907988 0.656000 -0.000000
v -2.592988 0.656000 -0.000000
v -2.592988 0.509000 -0.000000
v -2.669988 0.509000 -0.000000
v -2.669988 0.727000 -0.000000
v -2.309988 0.727000 -0.000000
v -2.307166 0.735587 -0.000000
v -2.303747 0.744778 -0.000000
v -2.299800 0.754469 -0.000000
v -2.295395 0.764556 -0.000000
v -2.290601 0.774934 -0.000000
v -2.285487 0.785500 -0.000000
v -2.280124 0.796149 -0.000000
v -2.274580 0.806778 -0.000000
v -2.268924 0.817281 -0.000000
v -2.263227 0.827556 -0.000000
v -2.257558 0.837497 -0.000000
v -2.251987 0.847000 -0.000000
v -0.842988 0.777000 -0.000000
v -0.859228 0.769372 -0.000000
v -0.875830 0.761056 -0.000000
v -0.892612 0.752156 -0.000000
v -0.909395 0.742778 -0.000000
v -0.925997 0.733024 -0.000000
v -0.942238 0.723000 -0.000000
v -0.957937 0.712809 -0.000000
v -0.972914 0.702556 -0.000000
v -0.986988 0.692344 -0.000000
v -0.999978 0.682278 -0.000000
v -1.011705 0.672462 -0.000000
v -1.021987 0.663000 -0.000000
v -1.064987 0.725000 -0.000000
v -1.054456 0.733922 -0.000000
v -1.042483 0.743130 -0.000000
v -1.029253 0.752531 -0.000000
v -1.014950 0.762037 -0.000000
v -0.999758 0.771557 -0.000000
v -0.983862 0.781000 -0.000000
v -0.967445 0.790277 -0.000000
v -0.950691 0.799296 -0.000000
v -0.933784 0.807969 -0.000000
v -0.916909 0.816204 -0.000000
v -0.900248 0.823911 -0.000000
v -0.883987 0.831000 -0.000000
v -0.789988 0.506000 -0.000000
v -0.806478 0.498662 -0.000000
v -0.823330 0.490713 -0.000000
v -0.840363 0.482250 -0.000000
v -0.857395 0.473370 -0.000000
v -0.874247 0.464171 -0.000000
v -0.890738 0.454750 -0.000000
v -0.906687 0.445204 -0.000000
v -0.921913 0.435630 -0.000000
v -0.936238 0.426125 -0.000000
v -0.949478 0.416787 -0.000000
v -0.961455 0.407713 -0.000000
v -0.971987 0.399000 -0.000000
v -1.014987 0.462000 -0.000000
v -1.004187 0.470442 -0.000000
v -0.991914 0.479199 -0.000000
v -0.978363 0.488172 -0.000000
v -0.963728 0.497259 -0.000000
v -0.948205 0.506361 -0.000000
v -0.931988 0.515375 -0.000000
v -0.915270 0.524202 -0.000000
v -0.898247 0.532741 -0.000000
v -0.881113 0.540891 -0.000000
v -0.864062 0.548551 -0.000000
v -0.847289 0.555621 -0.000000
v -0.830987 0.562000 -0.000000
v -0.817987 -0.018000 -0.000000
v -0.881988 -0.066000 -0.000000
v -0.895681 -0.041863 -0.000000
v -0.909701 -0.016574 -0.000000
v -0.923956 0.009688 -0.000000
v -0.938358 0.036741 -0.000000
v -0.952815 0.064405 -0.000000
v -0.967238 0.092500 -0.000000
v -0.981535 0.120845 -0.000000
v -0.995617 0.149259 -0.000000
v -1.009394 0.177563 -0.000000
v -1.022775 0.205574 -0.000000
v -1.035669 0.233113 -0.000000
v -1.047987 0.260000 -0.000000
v -0.989987 0.307000 -0.000000
v -0.976615 0.277937 -0.000000
v -0.962594 0.248412 -0.000000
v -0.948066 0.218672 -0.000000
v -0.933173 0.188963 -0.000000
v -0.918058 0.159532 -0.000000
v -0.902863 0.130625 -0.000000
v -0.887730 0.102489 -0.000000
v -0.872802 0.075370 -0.000000
v -0.858222 0.049516 -0.000000
v -0.844131 0.025171 -0.000000
v -0.830672 0.002584 -0.000000
v -1.555987 0.382000 -0.000000
v -1.382987 0.382000 -0.000000
v -1.383696 0.391520 -0.000000
v -1.384325 0.401074 -0.000000
v -1.384878 0.410656 -0.000000
v -1.385358 0.420259 -0.000000
v -1.385768 0.429876 -0.000000
v -1.386112 0.439500 -0.000000
v -1.386394 0.449124 -0.000000
v -1.386617 0.458741 -0.000000
v -1.386784 0.468344 -0.000000
v -1.386899 0.477926 -0.000000
v -1.386966 0.487480 -0.000000
v -1.386987 0.497000 -0.000000
v -1.386987 0.609000 -0.000000
v -1.555987 0.609000 -0.000000
v -1.311987 0.839000 -0.000000
v -1.311987 0.680000 -0.000000
v -1.113987 0.680000 -0.000000
v -1.113987 0.609000 -0.000000
v -1.311987 0.609000 -0.000000
v -1.311987 0.498000 -0.000000
v -1.311965 0.488251 -0.000000
v -1.311895 0.478505 -0.000000
v -1.311769 0.468766 -0.000000
v -1.311580 0.459037 -0.000000
v -1.311322 0.449322 -0.000000
v -1.310987 0.439625 -0.000000
v -1.310570 0.429949 -0.000000
v -1.310062 0.420296 -0.000000
v -1.309456 0.410672 -0.000000
v -1.308747 0.401079 -0.000000
v -1.307926 0.391520 -0.000000
v -1.306988 0.382000 -0.000000
v -1.058987 0.382000 -0.000000
v -1.058987 0.311000 -0.000000
v -1.295988 0.311000 -0.000000
v -1.288280 0.278969 -0.000000
v -1.278497 0.247417 -0.000000
v -1.266394 0.216406 -0.000000
v -1.251728 0.186000 -0.000000
v -1.234257 0.156260 -0.000000
v -1.213737 0.127250 -0.000000
v -1.189926 0.099031 -0.000000
v -1.162580 0.071667 -0.000000
v -1.131456 0.045219 -0.000000
v -1.096311 0.019750 -0.000000
v -1.056903 -0.004677 -0.000000
v -1.012987 -0.028000 -0.000000
v -1.017911 -0.031488 -0.000000
v -1.023126 -0.035403 -0.000000
v -1.028550 -0.039672 -0.000000
v -1.034099 -0.044222 -0.000000
v -1.039689 -0.048981 -0.000000
v -1.045238 -0.053875 -0.000000
v -1.050661 -0.058832 -0.000000
v -1.055876 -0.063778 -0.000000
v -1.060800 -0.068641 -0.000000
v -1.065349 -0.073347 -0.000000
v -1.069439 -0.077825 -0.000000
v -1.072988 -0.082000 -0.000000
v -1.117712 -0.057326 -0.000000
v -1.158034 -0.031356 -0.000000
v -1.194175 -0.004172 -0.000000
v -1.226358 0.024148 -0.000000
v -1.254805 0.053524 -0.000000
v -1.279737 0.083875 -0.000000
v -1.301379 0.115122 -0.000000
v -1.319951 0.147185 -0.000000
v -1.335675 0.179984 -0.000000
v -1.348775 0.213440 -0.000000
v -1.359472 0.247472 -0.000000
v -1.367988 0.282000 -0.000000
v -1.382618 0.239947 -0.000000
v -1.399029 0.199829 -0.000000
v -1.417253 0.161703 -0.000000
v -1.437321 0.125630 -0.000000
v -1.459264 0.091667 -0.000000
v -1.483113 0.059875 -0.000000
v -1.508899 0.030312 -0.000000
v -1.536654 0.003037 -0.000000
v -1.566409 -0.021891 -0.000000
v -1.598196 -0.044412 -0.000000
v -1.632044 -0.064468 -0.000000
v -1.667987 -0.082000 -0.000000
v -1.671207 -0.076826 -0.000000
v -1.674830 -0.071356 -0.000000
v -1.678800 -0.065672 -0.000000
v -1.683062 -0.059852 -0.000000
v -1.687559 -0.053976 -0.000000
v -1.692237 -0.048125 -0.000000
v -1.697041 -0.042378 -0.000000
v -1.701913 -0.036815 -0.000000
v -1.706800 -0.031516 -0.000000
v -1.711645 -0.026560 -0.000000
v -1.716393 -0.022028 -0.000000
v -1.720987 -0.018000 -0.000000
v -1.686007 -0.002723 -0.000000
v -1.653057 0.015051 -0.000000
v -1.622128 0.035234 -0.000000
v -1.593210 0.057741 -0.000000
v -1.566292 0.082483 -0.000000
v -1.541363 0.109375 -0.000000
v -1.518414 0.138329 -0.000000
v -1.497433 0.169259 -0.000000
v -1.478410 0.202078 -0.000000
v -1.461336 0.236699 -0.000000
v -1.446198 0.273035 -0.000000
v -1.432987 0.311000 -0.000000
v -1.712987 0.311000 -0.000000
v -1.712987 0.382000 -0.000000
v -1.628987 0.382000 -0.000000
v -1.628987 0.680000 -0.000000
v -1.386987 0.680000 -0.000000
v -1.386987 0.839000 -0.000000
v 0.169013 0.658000 -0.000000
v 0.160012 0.571000 -0.000000
v 0.130121 0.576763 -0.000000
v 0.095128 0.582523 -0.000000
v 0.056059 0.588234 -0.000000
v 0.013938 0.593852 -0.000000
v -0.030210 0.599330 -0.000000
v -0.075362 0.604625 -0.000000
v -0.120494 0.609690 -0.000000
v -0.164580 0.614481 -0.000000
v -0.206597 0.618953 -0.000000
v -0.245520 0.623060 -0.000000
v -0.280325 0.626758 -0.000000
v -0.309988 0.630000 -0.000000
v -0.286982 0.614775 -0.000000
v -0.264191 0.596699 -0.000000
v -0.241956 0.575922 -0.000000
v -0.220617 0.552593 -0.000000
v -0.200514 0.526861 -0.000000
v -0.181988 0.498875 -0.000000
v -0.165378 0.468785 -0.000000
v -0.151025 0.436741 -0.000000
v -0.139269 0.402891 -0.000000
v -0.130451 0.367384 -0.000000
v -0.124910 0.330371 -0.000000
v -0.122988 0.292000 -0.000000
v -0.127246 0.238815 -0.000000
v -0.139474 0.190685 -0.000000
v -0.158847 0.147500 -0.000000
v -0.184543 0.109148 -0.000000
v -0.215739 0.075519 -0.000000
v -0.251612 0.046500 -0.000000
v -0.291340 0.021981 -0.000000
v -0.334099 0.001852 -0.000000
v -0.379066 -0.014000 -0.000000
v -0.425418 -0.025685 -0.000000
v -0.472333 -0.033315 -0.000000
v -0.518987 -0.037000 -0.000000
v -0.547987 0.046000 -0.000000
v -0.506958 0.048711 -0.000000
v -0.465835 0.054023 -0.000000
v -0.425316 0.062203 -0.000000
v -0.386099 0.073519 -0.000000
v -0.348882 0.088237 -0.000000
v -0.314363 0.106625 -0.000000
v -0.283239 0.128951 -0.000000
v -0.256210 0.155481 -0.000000
v -0.233972 0.186484 -0.000000
v -0.217224 0.222227 -0.000000
v -0.206663 0.262976 -0.000000
v -0.202987 0.309000 -0.000000
v -0.204782 0.339357 -0.000000
v -0.210089 0.370607 -0.000000
v -0.218800 0.402266 -0.000000
v -0.230802 0.433852 -0.000000
v -0.245985 0.464883 -0.000000
v -0.264238 0.494875 -0.000000
v -0.285448 0.523347 -0.000000
v -0.309506 0.549815 -0.000000
v -0.336300 0.573797 -0.000000
v -0.365719 0.594810 -0.000000
v -0.397652 0.612372 -0.000000
v -0.431988 0.626000 -0.000000
v -0.445469 0.629466 -0.000000
v -0.460256 0.632394 -0.000000
v -0.476112 0.634828 -0.000000
v -0.492802 0.636815 -0.000000
v -0.510089 0.638399 -0.000000
v -0.527737 0.639625 -0.000000
v -0.545511 0.640539 -0.000000
v -0.563173 0.641185 -0.000000
v -0.580487 0.641609 -0.000000
v -0.597219 0.641857 -0.000000
v -0.613131 0.641972 -0.000000
v -0.627987 0.642000 -0.000000
v -0.627987 0.722000 -0.000000
v -0.610682 0.721188 -0.000000
v -0.592293 0.720250 -0.000000
v -0.572862 0.719187 -0.000000
v -0.552432 0.718000 -0.000000
v -0.531043 0.716688 -0.000000
v -0.508738 0.715250 -0.000000
v -0.485557 0.713688 -0.000000
v -0.461543 0.712000 -0.000000
v -0.436738 0.710187 -0.000000
v -0.411182 0.708250 -0.000000
v -0.384918 0.706187 -0.000000
v -0.357987 0.704000 -0.000000
v -0.311958 0.700176 -0.000000
v -0.266168 0.696241 -0.000000
v -0.221066 0.692250 -0.000000
v -0.177099 0.688259 -0.000000
v -0.134715 0.684324 -0.000000
v -0.094362 0.680500 -0.000000
v -0.056489 0.676843 -0.000000
v -0.021543 0.673407 -0.000000
v 0.010028 0.670250 -0.000000
v 0.037776 0.667426 -0.000000
v 0.061254 0.664991 -0.000000
v 0.080013 0.663000 -0.000000
v 0.085029 0.662501 -0.000000
v 0.090564 0.662005 -0.000000
v 0.096591 0.661516 -0.000000
v 0.103087 0.661037 -0.000000
v 0.110027 0.660572 -0.000000
v 0.117388 0.660125 -0.000000
v 0.125144 0.659699 -0.000000
v 0.133272 0.659296 -0.000000
v 0.141747 0.658922 -0.000000
v 0.150545 0.658579 -0.000000
v 0.159642 0.658270 -0.000000
v -0.483988 0.519000 -0.000000
v -0.432987 0.497000 -0.000000
v -0.440464 0.486530 -0.000000
v -0.447881 0.475653 -0.000000
v -0.455222 0.464422 -0.000000
v -0.462469 0.452889 -0.000000
v -0.469605 0.441106 -0.000000
v -0.476613 0.429125 -0.000000
v -0.483474 0.416998 -0.000000
v -0.490173 0.404778 -0.000000
v -0.496691 0.392516 -0.000000
v -0.503011 0.380264 -0.000000
v -0.509116 0.368075 -0.000000
v -0.514987 0.356000 -0.000000
v -0.565988 0.380000 -0.000000
v -0.560402 0.391348 -0.000000
v -0.554219 0.403282 -0.000000
v -0.547550 0.415641 -0.000000
v -0.540506 0.428259 -0.000000
v -0.533198 0.440975 -0.000000
v -0.525738 0.453625 -0.000000
v -0.518235 0.466046 -0.000000
v -0.510802 0.478074 -0.000000
v -0.503550 0.489547 -0.000000
v -0.496589 0.500301 -0.000000
v -0.490031 0.510173 -0.000000
v -0.592988 0.561000 -0.000000
v -0.543988 0.538000 -0.000000
v -0.551694 0.527358 -0.000000
v -0.559307 0.516449 -0.000000
v -0.566816 0.505297 -0.000000
v -0.574210 0.493926 -0.000000
v -0.581479 0.482361 -0.000000
v -0.588613 0.470625 -0.000000
v -0.595601 0.458744 -0.000000
v -0.602432 0.446741 -0.000000
v -0.609097 0.434641 -0.000000
v -0.615585 0.422468 -0.000000
v -0.621886 0.410246 -0.000000
v -0.627987 0.398000 -0.000000
v -0.679987 0.423000 -0.000000
v -0.673902 0.434328 -0.000000
v -0.667223 0.446208 -0.000000
v -0.660065 0.458484 -0.000000
v -0.652543 0.471000 -0.000000
v -0.644770 0.483599 -0.000000
v -0.636863 0.496125 -0.000000
v -0.628934 0.508422 -0.000000
v -0.621099 0.520333 -0.000000
v -0.613472 0.531703 -0.000000
v -0.606168 0.542375 -0.000000
v -0.599302 0.552193 -0.000000
v 0.289013 0.130000 -0.000000
v 0.301994 0.121795 -0.000000
v 0.314948 0.114194 -0.000000
v 0.327888 0.107219 -0.000000
v 0.340827 0.100889 -0.000000
v 0.353781 0.095226 -0.000000
v 0.366763 0.090250 -0.000000
v 0.379786 0.085983 -0.000000
v 0.392864 0.082444 -0.000000
v 0.406013 0.079656 -0.000000
v 0.419244 0.077639 -0.000000
v 0.432573 0.076413 -0.000000
v 0.446012 0.076000 -0.000000
v 0.466782 0.076957 -0.000000
v 0.486086 0.079819 -0.000000
v 0.503919 0.084578 -0.000000
v 0.520272 0.091222 -0.000000
v 0.535139 0.099741 -0.000000
v 0.548512 0.110125 -0.000000
v 0.560386 0.122363 -0.000000
v 0.570753 0.136444 -0.000000
v 0.579606 0.152359 -0.000000
v 0.586939 0.170097 -0.000000
v 0.592743 0.189648 -0.000000
v 0.597013 0.211000 -0.000000
v 0.281013 0.211000 -0.000000
v 0.282577 0.250731 -0.000000
v 0.287193 0.286935 -0.000000
v 0.294747 0.319625 -0.000000
v 0.305124 0.348815 -0.000000
v 0.318209 0.374519 -0.000000
v 0.333888 0.396750 -0.000000
v 0.352046 0.415523 -0.000000
v 0.372568 0.430852 -0.000000
v 0.395341 0.442750 -0.000000
v 0.420249 0.451232 -0.000000
v 0.447178 0.456310 -0.000000
v 0.476013 0.458000 -0.000000
v 0.506193 0.456111 -0.000000
v 0.534624 0.450556 -0.000000
v 0.561138 0.441500 -0.000000
v 0.585568 0.429111 -0.000000
v 0.607749 0.413556 -0.000000
v 0.627513 0.395000 -0.000000
v 0.644693 0.373611 -0.000000
v 0.659124 0.349556 -0.000000
v 0.670638 0.323000 -0.000000
v 0.679068 0.294111 -0.000000
v 0.684249 0.263056 -0.000000
v 0.686013 0.230000 -0.000000
v 0.684397 0.199249 -0.000000
v 0.679587 0.169241 -0.000000
v 0.671638 0.140344 -0.000000
v 0.660605 0.112926 -0.000000
v 0.646545 0.087355 -0.000000
v 0.629513 0.064000 -0.000000
v 0.609563 0.043228 -0.000000
v 0.586753 0.025407 -0.000000
v 0.561137 0.010906 -0.000000
v 0.532772 0.000093 -0.000000
v 0.501711 -0.006665 -0.000000
v 0.468013 -0.009000 -0.000000
v 0.449557 -0.008645 -0.000000
v 0.432114 -0.007574 -0.000000
v 0.415575 -0.005781 -0.000000
v 0.399827 -0.003259 -0.000000
v 0.384760 -0.000001 -0.000000
v 0.370262 0.004000 -0.000000
v 0.356223 0.008751 -0.000000
v 0.342531 0.014259 -0.000000
v 0.329075 0.020531 -0.000000
v 0.315744 0.027574 -0.000000
v 0.302427 0.035395 -0.000000
v 0.289013 0.044000 -0.000000
v 0.595013 0.270000 -0.000000
v 0.591410 0.287099 -0.000000
v 0.586605 0.302875 -0.000000
v 0.580606 0.317297 -0.000000
v 0.573420 0.330333 -0.000000
v 0.565053 0.341953 -0.000000
v 0.555513 0.352125 -0.000000
v 0.544806 0.360818 -0.000000
v 0.532939 0.368000 -0.000000
v 0.519919 0.373641 -0.000000
v 0.505753 0.377708 -0.000000
v 0.490449 0.380172 -0.000000
v 0.474013 0.381000 -0.000000
v 0.458770 0.380115 -0.000000
v 0.444568 0.377500 -0.000000
v 0.431450 0.373219 -0.000000
v 0.419457 0.367333 -0.000000
v 0.408631 0.359906 -0.000000
v 0.399013 0.351000 -0.000000
v 0.390645 0.340677 -0.000000
v 0.383568 0.329000 -0.000000
v 0.377825 0.316031 -0.000000
v 0.373457 0.301833 -0.000000
v 0.370506 0.286469 -0.000000
v 0.369013 0.270000 -0.000000
v 0.772013 0.427000 -0.000000
v 0.782610 0.431601 -0.000000
v 0.792962 0.435894 -0.000000
v 0.803153 0.439859 -0.000000
v 0.813272 0.443482 -0.000000
v 0.823404 0.446743 -0.000000
v 0.833638 0.449625 -0.000000
v 0.844058 0.452112 -0.000000
v 0.854753 0.454185 -0.000000
v 0.865809 0.455828 -0.000000
v 0.877313 0.457023 -0.000000
v 0.889352 0.457753 -0.000000
v 0.902013 0.458000 -0.000000
v 0.934950 0.456065 -0.000000
v 0.965679 0.450352 -0.000000
v 0.994075 0.441000 -0.000000
v 1.020013 0.428148 -0.000000
v 1.043367 0.411935 -0.000000
v 1.064013 0.392500 -0.000000
v 1.081825 0.369981 -0.000000
v 1.096679 0.344519 -0.000000
v 1.108450 0.316250 -0.000000
v 1.117013 0.285315 -0.000000
v 1.122242 0.251852 -0.000000
v 1.124013 0.216000 -0.000000
v 1.122085 0.183844 -0.000000
v 1.116429 0.153500 -0.000000
v 1.107231 0.125156 -0.000000
v 1.094679 0.099000 -0.000000
v 1.078960 0.075219 -0.000000
v 1.060262 0.054000 -0.000000
v 1.038773 0.035531 -0.000000
v 1.014679 0.020000 -0.000000
v 0.988169 0.007594 -0.000000
v 0.959429 -0.001500 -0.000000
v 0.928648 -0.007094 -0.000000
v 0.896013 -0.009000 -0.000000
v 0.884076 -0.008756 -0.000000
v 0.871850 -0.008046 -0.000000
v 0.859466 -0.006906 -0.000000
v 0.847050 -0.005370 -0.000000
v 0.834731 -0.003473 -0.000000
v 0.822638 -0.001250 -0.000000
v 0.810899 0.001265 -0.000000
v 0.799642 0.004037 -0.000000
v 0.788997 0.007031 -0.000000
v 0.779091 0.010213 -0.000000
v 0.770054 0.013547 -0.000000
v 0.762013 0.017000 -0.000000
v 0.762013 0.105000 -0.000000
v 0.773081 0.100208 -0.000000
v 0.783813 0.095833 -0.000000
v 0.794247 0.091875 -0.000000
v 0.804420 0.088333 -0.000000
v 0.814371 0.085208 -0.000000
v 0.824138 0.082500 -0.000000
v 0.833758 0.080208 -0.000000
v 0.843272 0.078333 -0.000000
v 0.852716 0.076875 -0.000000
v 0.862128 0.075833 -0.000000
v 0.871548 0.075208 -0.000000
v 0.881013 0.075000 -0.000000
v 0.903330 0.076156 -0.000000
v 0.924216 0.079579 -0.000000
v 0.943575 0.085203 -0.000000
v 0.961309 0.092963 -0.000000
v 0.977320 0.102792 -0.000000
v 0.991513 0.114625 -0.000000
v 1.003788 0.128395 -0.000000
v 1.014050 0.144037 -0.000000
v 1.022200 0.161484 -0.000000
v 1.028142 0.180671 -0.000000
v 1.031779 0.201532 -0.000000
v 1.033013 0.224000 -0.000000
v 1.031864 0.246107 -0.000000
v 1.028489 0.266856 -0.000000
v 1.022997 0.286141 -0.000000
v 1.015494 0.303852 -0.000000
v 1.006088 0.319883 -0.000000
v 0.994888 0.334125 -0.000000
v 0.981999 0.346472 -0.000000
v 0.967531 0.356815 -0.000000
v 0.951591 0.365047 -0.000000
v 0.934286 0.371060 -0.000000
v 0.915724 0.374747 -0.000000
v 0.896013 0.376000 -0.000000
v 0.886354 0.375784 -0.000000
v 0.876827 0.375102 -0.000000
v 0.867356 0.373906 -0.000000
v 0.857864 0.372148 -0.000000
v 0.848275 0.369779 -0.000000
v 0.838513 0.366750 -0.000000
v 0.828500 0.363013 -0.000000
v 0.818161 0.358519 -0.000000
v 0.807419 0.353219 -0.000000
v 0.796198 0.347065 -0.000000
v 0.784421 0.340008 -0.000000
v 0.772013 0.332000 -0.000000
v 1.181013 0.080000 -0.000000
v 1.185967 0.076377 -0.000000
v 1.190814 0.073014 -0.000000
v 1.195528 0.069922 -0.000000
v 1.200087 0.067111 -0.000000
v 1.204465 0.064592 -0.000000
v 1.208638 0.062375 -0.000000
v 1.212582 0.060470 -0.000000
v 1.216272 0.058889 -0.000000
v 1.219685 0.057641 -0.000000
v 1.222795 0.056736 -0.000000
v 1.225579 0.056186 -0.000000
v 1.228013 0.056000 -0.000000
v 1.230658 0.056128 -0.000000
v 1.233091 0.056523 -0.000000
v 1.235309 0.057203 -0.000000
v 1.237309 0.058185 -0.000000
v 1.239086 0.059487 -0.000000
v 1.240637 0.061125 -0.000000
v 1.241960 0.063117 -0.000000
v 1.243050 0.065481 -0.000000
v 1.243903 0.068234 -0.000000
v 1.244517 0.071394 -0.000000
v 1.244888 0.074976 -0.000000
v 1.245013 0.079000 -0.000000
v 1.245013 0.310000 -0.000000
v 1.246482 0.334339 -0.000000
v 1.250767 0.356380 -0.000000
v 1.257685 0.376156 -0.000000
v 1.267050 0.393704 -0.000000
v 1.278679 0.409057 -0.000000
v 1.292388 0.422250 -0.000000
v 1.307993 0.433318 -0.000000
v 1.325309 0.442296 -0.000000
v 1.344154 0.449219 -0.000000
v 1.364342 0.454120 -0.000000
v 1.385689 0.457036 -0.000000
v 1.408013 0.458000 -0.000000
v 1.423930 0.457583 -0.000000
v 1.439188 0.456329 -0.000000
v 1.453794 0.454234 -0.000000
v 1.467753 0.451296 -0.000000
v 1.481074 0.447511 -0.000000
v 1.493762 0.442875 -0.000000
v 1.505826 0.437385 -0.000000
v 1.517272 0.431037 -0.000000
v 1.528106 0.423828 -0.000000
v 1.538337 0.415755 -0.000000
v 1.547970 0.406813 -0.000000
v 1.557013 0.397000 -0.000000
v 1.557013 0.300000 -0.000000
v 1.546121 0.312170 -0.000000
v 1.534966 0.323190 -0.000000
v 1.523575 0.333078 -0.000000
v 1.511976 0.341852 -0.000000
v 1.500196 0.349528 -0.000000
v 1.488263 0.356125 -0.000000
v 1.476205 0.361659 -0.000000
v 1.464050 0.366148 -0.000000
v 1.451825 0.369609 -0.000000
v 1.439559 0.372060 -0.000000
v 1.427279 0.373518 -0.000000
v 1.415013 0.374000 -0.000000
v 1.402075 0.373515 -0.000000
v 1.390263 0.372037 -0.000000
v 1.379575 0.369531 -0.000000
v 1.370013 0.365963 -0.000000
v 1.361575 0.361297 -0.000000
v 1.354263 0.355500 -0.000000
v 1.348075 0.348536 -0.000000
v 1.343013 0.340370 -0.000000
v 1.339075 0.330969 -0.000000
v 1.336263 0.320296 -0.000000
v 1.334575 0.308318 -0.000000
v 1.334013 0.295000 -0.000000
v 1.334013 0.271000 -0.000000
v 1.413013 0.243000 -0.000000
v 1.431148 0.236444 -0.000000
v 1.449346 0.229634 -0.000000
v 1.467294 0.222359 -0.000000
v 1.484679 0.214407 -0.000000
v 1.501190 0.205567 -0.000000
v 1.516513 0.195625 -0.000000
v 1.530336 0.184371 -0.000000
v 1.542346 0.171593 -0.000000
v 1.552231 0.157078 -0.000000
v 1.559679 0.140616 -0.000000
v 1.564377 0.121994 -0.000000
v 1.566013 0.101000 -0.000000
v 1.565109 0.086652 -0.000000
v 1.562448 0.072713 -0.000000
v 1.558106 0.059344 -0.000000
v 1.552161 0.046704 -0.000000
v 1.544687 0.034953 -0.000000
v 1.535763 0.024250 -0.000000
v 1.525463 0.014756 -0.000000
v 1.513865 0.006630 -0.000000
v 1.501044 0.000031 -0.000000
v 1.487077 -0.004880 -0.000000
v 1.472041 -0.007943 -0.000000
v 1.456013 -0.009000 -0.000000
v 1.445764 -0.008687 -0.000000
v 1.435522 -0.007745 -0.000000
v 1.425294 -0.006172 -0.000000
v 1.415087 -0.003963 -0.000000
v 1.404907 -0.001115 -0.000000
v 1.394763 0.002375 -0.000000
v 1.384660 0.006511 -0.000000
v 1.374605 0.011296 -0.000000
v 1.364606 0.016734 -0.000000
v 1.354670 0.022829 -0.000000
v 1.344803 0.029583 -0.000000
v 1.335013 0.037000 -0.000000
v 1.332739 0.029373 -0.000000
v 1.329906 0.022481 -0.000000
v 1.326497 0.016312 -0.000000
v 1.322494 0.010852 -0.000000
v 1.317880 0.006086 -0.000000
v 1.312638 0.002000 -0.000000
v 1.306749 -0.001419 -0.000000
v 1.300198 -0.004185 -0.000000
v 1.292966 -0.006313 -0.000000
v 1.285036 -0.007815 -0.000000
v 1.276390 -0.008706 -0.000000
v 1.267013 -0.009000 -0.000000
v 1.260221 -0.008827 -0.000000
v 1.253767 -0.008282 -0.000000
v 1.247528 -0.007328 -0.000000
v 1.241383 -0.005926 -0.000000
v 1.235210 -0.004038 -0.000000
v 1.228888 -0.001625 -0.000000
v 1.222294 0.001350 -0.000000
v 1.215309 0.004926 -0.000000
v 1.207809 0.009141 -0.000000
v 1.199675 0.014032 -0.000000
v 1.190783 0.019639 -0.000000
v 1.181013 0.026000 -0.000000
v 1.334013 0.091000 -0.000000
v 1.340054 0.085440 -0.000000
v 1.346179 0.080273 -0.000000
v 1.352388 0.075516 -0.000000
v 1.358679 0.071185 -0.000000
v 1.365054 0.067299 -0.000000
v 1.371512 0.063875 -0.000000
v 1.378054 0.060930 -0.000000
v 1.384679 0.058481 -0.000000
v 1.391387 0.056547 -0.000000
v 1.398179 0.055144 -0.000000
v 1.405054 0.054289 -0.000000
v 1.412013 0.054000 -0.000000
v 1.421044 0.054533 -0.000000
v 1.429601 0.056097 -0.000000
v 1.437622 0.058641 -0.000000
v 1.445050 0.062111 -0.000000
v 1.451825 0.066457 -0.000000
v 1.457888 0.071625 -0.000000
v 1.463180 0.077564 -0.000000
v 1.467642 0.084222 -0.000000
v 1.471216 0.091547 -0.000000
v 1.473842 0.099486 -0.000000
v 1.475460 0.107988 -0.000000
v 1.476013 0.117000 -0.000000
v 1.474670 0.129703 -0.000000
v 1.470772 0.141375 -0.000000
v 1.464513 0.152109 -0.000000
v 1.456087 0.162000 -0.000000
v 1.445689 0.171141 -0.000000
v 1.433513 0.179625 -0.000000
v 1.419753 0.187547 -0.000000
v 1.404605 0.195000 -0.000000
v 1.388263 0.202078 -0.000000
v 1.370920 0.208875 -0.000000
v 1.352772 0.215484 -0.000000
v 1.334013 0.222000 -0.000000
v 1.946013 0.011000 -0.000000
v 1.937653 0.007666 -0.000000
v 1.929554 0.004657 -0.000000
v 1.921685 0.001969 -0.000000
v 1.914013 -0.000407 -0.000000
v 1.906507 -0.002478 -0.000000
v 1.899137 -0.004250 -0.000000
v 1.891872 -0.005730 -0.000000
v 1.884679 -0.006926 -0.000000
v 1.877528 -0.007844 -0.000000
v 1.870388 -0.008491 -0.000000
v 1.863226 -0.008874 -0.000000
v 1.856013 -0.009000 -0.000000
v 1.823587 -0.007053 -0.000000
v 1.792943 -0.001338 -0.000000
v 1.764278 0.007953 -0.000000
v 1.737790 0.020630 -0.000000
v 1.713678 0.036501 -0.000000
v 1.692138 0.055375 -0.000000
v 1.673368 0.077062 -0.000000
v 1.657568 0.101370 -0.000000
v 1.644934 0.128109 -0.000000
v 1.635665 0.157088 -0.000000
v 1.629959 0.188115 -0.000000
v 1.628013 0.221000 -0.000000
v 1.629859 0.256576 -0.000000
v 1.635365 0.289278 -0.000000
v 1.644481 0.319063 -0.000000
v 1.657161 0.345889 -0.000000
v 1.673354 0.369715 -0.000000
v 1.693013 0.390500 -0.000000
v 1.716088 0.408201 -0.000000
v 1.742531 0.422778 -0.000000
v 1.772294 0.434188 -0.000000
v 1.805327 0.442389 -0.000000
v 1.841583 0.447340 -0.000000
v 1.881013 0.449000 -0.000000
v 2.035013 0.449000 -0.000000
v 2.035013 -0.230000 -0.000000
v 1.946013 -0.230000 -0.000000
v 1.946013 0.369000 -0.000000
v 1.865013 0.369000 -0.000000
v 1.841763 0.367884 -0.000000
v 1.820517 0.364569 -0.000000
v 1.801278 0.359109 -0.000000
v 1.784050 0.351556 -0.000000
v 1.768835 0.341960 -0.000000
v 1.755638 0.330375 -0.000000
v 1.744461 0.316852 -0.000000
v 1.735309 0.301445 -0.000000
v 1.728184 0.284203 -0.000000
v 1.723091 0.265181 -0.000000
v 1.720033 0.244429 -0.000000
v 1.719013 0.222000 -0.000000
v 1.720241 0.200753 -0.000000
v 1.723841 0.180606 -0.000000
v 1.729684 0.161703 -0.000000
v 1.737642 0.144185 -0.000000
v 1.747586 0.128195 -0.000000
v 1.759387 0.113875 -0.000000
v 1.772918 0.101367 -0.000000
v 1.788050 0.090815 -0.000000
v 1.804653 0.082359 -0.000000
v 1.822600 0.076144 -0.000000
v 1.841763 0.072310 -0.000000
v 1.862013 0.071000 -0.000000
v 1.869032 0.071145 -0.000000
v 1.876082 0.071579 -0.000000
v 1.883153 0.072297 -0.000000
v 1.890235 0.073296 -0.000000
v 1.897316 0.074574 -0.000000
v 1.904388 0.076125 -0.000000
v 1.911438 0.077947 -0.000000
v 1.918457 0.080037 -0.000000
v 1.925434 0.082391 -0.000000
v 1.932360 0.085005 -0.000000
v 1.939223 0.087876 -0.000000
v 1.946013 0.091000 -0.000000
v 2.153013 0.421000 -0.000000
v 2.164681 0.426980 -0.000000
v 2.176193 0.432421 -0.000000
v 2.187560 0.437328 -0.000000
v 2.198791 0.441704 -0.000000
v 2.209896 0.445552 -0.000000
v 2.220888 0.448875 -0.000000
v 2.231775 0.451678 -0.000000
v 2.242568 0.453963 -0.000000
v 2.253278 0.455734 -0.000000
v 2.263915 0.456995 -0.000000
v 2.274490 0.457749 -0.000000
v 2.285013 0.458000 -0.000000
v 2.306831 0.457051 -0.000000
v 2.327226 0.454241 -0.000000
v 2.346106 0.449625 -0.000000
v 2.363383 0.443259 -0.000000
v 2.378965 0.435199 -0.000000
v 2.392763 0.425500 -0.000000
v 2.404685 0.414218 -0.000000
v 2.414642 0.401407 -0.000000
v 2.422544 0.387125 -0.000000
v 2.428300 0.371426 -0.000000
v 2.431819 0.354366 -0.000000
v 2.433013 0.336000 -0.000000
v 2.428881 0.307516 -0.000000
v 2.417457 0.282292 -0.000000
v 2.400200 0.259922 -0.000000
v 2.378568 0.240000 -0.000000
v 2.354020 0.222120 -0.000000
v 2.328013 0.205875 -0.000000
v 2.302006 0.190859 -0.000000
v 2.277457 0.176667 -0.000000
v 2.255825 0.162891 -0.000000
v 2.238568 0.149125 -0.000000
v 2.227144 0.134964 -0.000000
v 2.223013 0.120000 -0.000000
v 2.223624 0.112313 -0.000000
v 2.225401 0.105250 -0.000000
v 2.228263 0.098812 -0.000000
v 2.232124 0.093000 -0.000000
v 2.236902 0.087812 -0.000000
v 2.242513 0.083250 -0.000000
v 2.248874 0.079313 -0.000000
v 2.255902 0.076000 -0.000000
v 2.263513 0.073313 -0.000000
v 2.271624 0.071250 -0.000000
v 2.280151 0.069813 -0.000000
v 2.289013 0.069000 -0.000000
v 2.298360 0.069397 -0.000000
v 2.308374 0.070593 -0.000000
v 2.319013 0.072594 -0.000000
v 2.330235 0.075407 -0.000000
v 2.341999 0.079041 -0.000000
v 2.354263 0.083500 -0.000000
v 2.366985 0.088793 -0.000000
v 2.380124 0.094926 -0.000000
v 2.393638 0.101906 -0.000000
v 2.407485 0.109741 -0.000000
v 2.421624 0.118436 -0.000000
v 2.436013 0.128000 -0.000000
v 2.436013 0.032000 -0.000000
v 2.421809 0.024891 -0.000000
v 2.408138 0.018546 -0.000000
v 2.394903 0.012938 -0.000000
v 2.382013 0.008037 -0.000000
v 2.369372 0.003817 -0.000000
v 2.356888 0.000250 -0.000000
v 2.344466 -0.002692 -0.000000
v 2.332013 -0.005037 -0.000000
v 2.319434 -0.006812 -0.000000
v 2.306638 -0.008046 -0.000000
v 2.293528 -0.008766 -0.000000
v 2.280013 -0.009000 -0.000000
v 2.259245 -0.007911 -0.000000
v 2.239536 -0.004708 -0.000000
v 2.221028 0.000516 -0.000000
v 2.203865 0.007667 -0.000000
v 2.188187 0.016651 -0.000000
v 2.174138 0.027375 -0.000000
v 2.161859 0.039745 -0.000000
v 2.151494 0.053667 -0.000000
v 2.143184 0.069047 -0.000000
v 2.137073 0.085792 -0.000000
v 2.133301 0.103807 -0.000000
v 2.132013 0.123000 -0.000000
v 2.132587 0.134207 -0.000000
v 2.134355 0.144903 -0.000000
v 2.137388 0.155203 -0.000000
v 2.141753 0.165222 -0.000000
v 2.147522 0.175075 -0.000000
v 2.154763 0.184875 -0.000000
v 2.163545 0.194738 -0.000000
v 2.173939 0.204778 -0.000000
v 2.186013 0.215109 -0.000000
v 2.199837 0.225847 -0.000000
v 2.215480 0.237106 -0.000000
v 2.233013 0.249000 -0.000000
v 2.251753 0.260052 -0.000000
v 2.268517 0.270250 -0.000000
v 2.283372 0.279656 -0.000000
v 2.296383 0.288333 -0.000000
v 2.307616 0.296344 -0.000000
v 2.317138 0.303750 -0.000000
v 2.325013 0.310615 -0.000000
v 2.331309 0.317000 -0.000000
v 2.336091 0.322969 -0.000000
v 2.339425 0.328583 -0.000000
v 2.341377 0.333906 -0.000000
v 2.342013 0.339000 -0.000000
v 2.341539 0.344848 -0.000000
v 2.340142 0.350370 -0.000000
v 2.337856 0.355531 -0.000000
v 2.334716 0.360296 -0.000000
v 2.330757 0.364631 -0.000000
v 2.326013 0.368500 -0.000000
v 2.320518 0.371869 -0.000000
v 2.314309 0.374704 -0.000000
v 2.307419 0.376969 -0.000000
v 2.299883 0.378630 -0.000000
v 2.291736 0.379652 -0.000000
v 2.283013 0.380000 -0.000000
v 2.274477 0.379705 -0.000000
v 2.265397 0.378810 -0.000000
v 2.255810 0.377297 -0.000000
v 2.245753 0.375148 -0.000000
v 2.235267 0.372347 -0.000000
v 2.224388 0.368875 -0.000000
v 2.213154 0.364716 -0.000000
v 2.201605 0.359852 -0.000000
v 2.189778 0.354266 -0.000000
v 2.177712 0.347940 -0.000000
v 2.165444 0.340857 -0.000000
v 2.153013 0.333000 -0.000000
vn -0.0000 -0.0000 -1.0000
vn -0.0000 -0.0000 1.0000
vt 0.785714 0.000000
vt 0.993506 0.000000
vt 1.000000 0.000000
vt 0.987013 0.000000
vt 0.980519 0.000000
vt 0.792208 0.000000
vt 0.798701 0.000000
vt 0.974026 0.000000
vt 0.805195 0.000000
vt 0.967532 0.000000
vt 0.811688 0.000000
vt 0.961039 0.000000
vt 0.818182 0.000000
vt 0.954545 0.000000
vt 0.824675 0.000000
vt 0.831169 0.000000
vt 0.948052 0.000000
vt 0.837662 0.000000
vt 0.941558 0.000000
vt 0.844156 0.000000
vt 0.935065 0.000000
vt 0.850649 0.000000
vt 0.928571 0.000000
vt 0.857143 0.000000
vt 0.922078 0.000000
vt 0.863636 0.000000
vt 0.876623 0.000000
vt 0.889610 0.000000
vt 0.870130 0.000000
vt 0.915584 0.000000
vt 0.896104 0.000000
vt 0.909091 0.000000
vt 0.883117 0.000000
vt 0.902597 0.000000
vt 0.610390 0.000000
vt 0.597403 0.000000
vt 0.603896 0.000000
vt 0.590909 0.000000
vt 0.616883 0.000000
vt 0.623377 0.000000
vt 0.584416 0.000000
vt 0.577922 0.000000
vt 0.006494 0.000000
vt 0.779221 0.000000
vt 0.000000 0.000000
vt 0.772727 0.000000
vt 0.766234 0.000000
vt 0.759740 0.000000
vt 0.753247 0.000000
vt 0.012987 0.000000
vt 0.746753 0.000000
vt 0.740260 0.000000
vt 0.733766 0.000000
vt 0.558442 0.000000
vt 0.571429 0.000000
vt 0.564935 0.000000
vt 0.727273 0.000000
vt 0.019481 0.000000
vt 0.720779 0.000000
vt 0.714286 0.000000
vt 0.707792 0.000000
vt 0.025974 0.000000
vt 0.701299 0.000000
vt 0.694805 0.000000
vt 0.551948 0.000000
vt 0.688312 0.000000
vt 0.032468 0.000000
vt 0.681818 0.000000
vt 0.038961 0.000000
vt 0.233766 0.000000
vt 0.675325 0.000000
vt 0.668831 0.000000
vt 0.227273 0.000000
vt 0.240260 0.000000
vt 0.045455 0.000000
vt 0.662338 0.000000
vt 0.220779 0.000000
vt 0.655844 0.000000
vt 0.051948 0.000000
vt 0.246753 0.000000
vt 0.214286 0.000000
vt 0.649351 0.000000
vt 0.642857 0.000000
vt 0.207792 0.000000
vt 0.636364 0.000000
vt 0.058442 0.000000
vt 0.253247 0.000000
vt 0.629870 0.000000
vt 0.201299 0.000000
vt 0.064935 0.000000
vt 0.259740 0.000000
vt 0.194805 0.000000
vt 0.545455 0.000000
vt 0.538961 0.000000
vt 0.532468 0.000000
vt 0.188312 0.000000
vt 0.525974 0.000000
vt 0.519481 0.000000
vt 0.071429 0.000000
vt 0.512987 0.000000
vt 0.506494 0.000000
vt 0.266234 0.000000
vt 0.500000 0.000000
vt 0.493506 0.000000
vt 0.402597 0.000000
vt 0.389610 0.000000
vt 0.396104 0.000000
vt 0.409091 0.000000
vt 0.487013 0.000000
vt 0.415584 0.000000
vt 0.422078 0.000000
vt 0.428571 0.000000
vt 0.480519 0.000000
vt 0.435065 0.000000
vt 0.441558 0.000000
vt 0.448052 0.000000
vt 0.474026 0.000000
vt 0.454545 0.000000
vt 0.461039 0.000000
vt 0.467532 0.000000
vt 0.383117 0.000000
vt 0.376623 0.000000
vt 0.181818 0.000000
vt 0.370130 0.000000
vt 0.272727 0.000000
vt 0.077922 0.000000
vt 0.363636 0.000000
vt 0.357143 0.000000
vt 0.175325 0.000000
vt 0.350649 0.000000
vt 0.279221 0.000000
vt 0.344156 0.000000
vt 0.084416 0.000000
vt 0.090909 0.000000
vt 0.168831 0.000000
vt 0.285714 0.000000
vt 0.337662 0.000000
vt 0.097403 0.000000
vt 0.103896 0.000000
vt 0.331169 0.000000
vt 0.110390 0.000000
vt 0.292208 0.000000
vt 0.324675 0.000000
vt 0.116883 0.000000
vt 0.162338 0.000000
vt 0.298701 0.000000
vt 0.123377 0.000000
vt 0.318182 0.000000
vt 0.305195 0.000000
vt 0.129870 0.000000
vt 0.311688 0.000000
vt 0.136364 0.000000
vt 0.142857 0.000000
vt 0.149351 0.000000
vt 0.155844 0.000000
vt 0.494792 0.000000
vt 0.489583 0.000000
vt 0.994792 0.000000
vt 0.125000 0.000000
vt 0.130208 0.000000
vt 0.119792 0.000000
vt 0.114583 0.000000
vt 0.109375 0.000000
vt 0.104167 0.000000
vt 0.098958 0.000000
vt 0.093750 0.000000
vt 0.005208 0.000000
vt 0.088542 0.000000
vt 0.010417 0.000000
vt 0.083333 0.000000
vt 0.015625 0.000000
vt 0.078125 0.000000
vt 0.020833 0.000000
vt 0.072917 0.000000
vt 0.026042 0.000000
vt 0.067708 0.000000
vt 0.031250 0.000000
vt 0.036458 0.000000
vt 0.041667 0.000000
vt 0.046875 0.000000
vt 0.052083 0.000000
vt 0.057292 0.000000
vt 0.062500 0.000000
vt 0.505208 0.000000
vt 0.989583 0.000000
vt 0.510417 0.000000
vt 0.484375 0.000000
vt 0.984375 0.000000
vt 0.515625 0.000000
vt 0.479167 0.000000
vt 0.473958 0.000000
vt 0.406250 0.000000
vt 0.135417 0.000000
vt 0.260417 0.000000
vt 0.265625 0.000000
vt 0.255208 0.000000
vt 0.250000 0.000000
vt 0.244792 0.000000
vt 0.239583 0.000000
vt 0.234375 0.000000
vt 0.229167 0.000000
vt 0.223958 0.000000
vt 0.140625 0.000000
vt 0.145833 0.000000
vt 0.520833 0.000000
vt 0.218750 0.000000
vt 0.468750 0.000000
vt 0.151042 0.000000
vt 0.526042 0.000000
vt 0.213542 0.000000
vt 0.463542 0.000000
vt 0.156250 0.000000
vt 0.208333 0.000000
vt 0.531250 0.000000
vt 0.458333 0.000000
vt 0.161458 0.000000
vt 0.203125 0.000000
vt 0.536458 0.000000
vt 0.453125 0.000000
vt 0.166667 0.000000
vt 0.171875 0.000000
vt 0.177083 0.000000
vt 0.182292 0.000000
vt 0.187500 0.000000
vt 0.192708 0.000000
vt 0.197917 0.000000
vt 0.541667 0.000000
vt 0.447917 0.000000
vt 0.546875 0.000000
vt 0.442708 0.000000
vt 0.552083 0.000000
vt 0.437500 0.000000
vt 0.557292 0.000000
vt 0.432292 0.000000
vt 0.562500 0.000000
vt 0.427083 0.000000
vt 0.567708 0.000000
vt 0.421875 0.000000
vt 0.572917 0.000000
vt 0.416667 0.000000
vt 0.578125 0.000000
vt 0.411458 0.000000
vt 0.588542 0.000000
vt 0.583333 0.000000
vt 0.979167 0.000000
vt 0.973958 0.000000
vt 0.593750 0.000000
vt 0.598958 0.000000
vt 0.968750 0.000000
vt 0.781250 0.000000
vt 0.963542 0.000000
vt 0.348958 0.000000
vt 0.338542 0.000000
vt 0.343750 0.000000
vt 0.776042 0.000000
vt 0.786458 0.000000
vt 0.604167 0.000000
vt 0.354167 0.000000
vt 0.958333 0.000000
vt 0.333333 0.000000
vt 0.359375 0.000000
vt 0.770833 0.000000
vt 0.609375 0.000000
vt 0.791667 0.000000
vt 0.953125 0.000000
vt 0.328125 0.000000
vt 0.364583 0.000000
vt 0.614583 0.000000
vt 0.765625 0.000000
vt 0.322917 0.000000
vt 0.947917 0.000000
vt 0.796875 0.000000
vt 0.369792 0.000000
vt 0.619792 0.000000
vt 0.760417 0.000000
vt 0.317708 0.000000
vt 0.942708 0.000000
vt 0.802083 0.000000
vt 0.375000 0.000000
vt 0.625000 0.000000
vt 0.312500 0.000000
vt 0.755208 0.000000
vt 0.937500 0.000000
vt 0.380208 0.000000
vt 0.630208 0.000000
vt 0.807292 0.000000
vt 0.307292 0.000000
vt 0.750000 0.000000
vt 0.932292 0.000000
vt 0.385417 0.000000
vt 0.635417 0.000000
vt 0.302083 0.000000
vt 0.812500 0.000000
vt 0.744792 0.000000
vt 0.927083 0.000000
vt 0.390625 0.000000
vt 0.640625 0.000000
vt 0.296875 0.000000
vt 0.817708 0.000000
vt 0.921875 0.000000
vt 0.739583 0.000000
vt 0.395833 0.000000
vt 0.645833 0.000000
vt 0.291667 0.000000
vt 0.916667 0.000000
vt 0.822917 0.000000
vt 0.401042 0.000000
vt 0.734375 0.000000
vt 0.651042 0.000000
vt 0.911458 0.000000
vt 0.286458 0.000000
vt 0.828125 0.000000
vt 0.270833 0.000000
vt 0.906250 0.000000
vt 0.729167 0.000000
vt 0.656250 0.000000
vt 0.281250 0.000000
vt 0.276042 0.000000
vt 0.901042 0.000000
vt 0.833333 0.000000
vt 0.895833 0.000000
vt 0.890625 0.000000
vt 0.661458 0.000000
vt 0.723958 0.000000
vt 0.666667 0.000000
vt 0.885417 0.000000
vt 0.671875 0.000000
vt 0.880208 0.000000
vt 0.677083 0.000000
vt 0.875000 0.000000
vt 0.682292 0.000000
vt 0.838542 0.000000
vt 0.869792 0.000000
vt 0.687500 0.000000
vt 0.692708 0.000000
vt 0.864583 0.000000
vt 0.697917 0.000000
vt 0.703125 0.000000
vt 0.708333 0.000000
vt 0.713542 0.000000
vt 0.718750 0.000000
vt 0.859375 0.000000
vt 0.843750 0.000000
vt 0.848958 0.000000
vt 0.854167 0.000000
vt 0.469136 0.000000
vt 0.456790 0.000000
vt 0.462963 0.000000
vt 0.475309 0.000000
vt 0.481481 0.000000
vt 0.487654 0.000000
vt 0.493827 0.000000
vt 0.506173 0.000000
vt 0.512346 0.000000
vt 0.518519 0.000000
vt 0.524691 0.000000
vt 0.530864 0.000000
vt 0.537037 0.000000
vt 0.543210 0.000000
vt 0.549383 0.000000
vt 0.555556 0.000000
vt 0.561728 0.000000
vt 0.567901 0.000000
vt 0.574074 0.000000
vt 0.580247 0.000000
vt 0.586420 0.000000
vt 0.592593 0.000000
vt 0.598765 0.000000
vt 0.604938 0.000000
vt 0.611111 0.000000
vt 0.617284 0.000000
vt 0.623457 0.000000
vt 0.629630 0.000000
vt 0.635802 0.000000
vt 0.641975 0.000000
vt 0.648148 0.000000
vt 0.654321 0.000000
vt 0.660494 0.000000
vt 0.672840 0.000000
vt 0.679012 0.000000
vt 0.006173 0.000000
vt 0.012346 0.000000
vt 0.018519 0.000000
vt 0.024691 0.000000
vt 0.030864 0.000000
vt 0.037037 0.000000
vt 0.043210 0.000000
vt 0.049383 0.000000
vt 0.055556 0.000000
vt 0.080247 0.000000
vt 0.425926 0.000000
vt 0.432099 0.000000
vt 0.438272 0.000000
vt 0.444444 0.000000
vt 0.450617 0.000000
vt 0.419753 0.000000
vt 0.413580 0.000000
vt 0.407407 0.000000
vt 0.401235 0.000000
vt 0.395062 0.000000
vt 0.388889 0.000000
vt 0.061728 0.000000
vt 0.074074 0.000000
vt 0.086420 0.000000
vt 0.382716 0.000000
vt 0.067901 0.000000
vt 0.376543 0.000000
vt 0.092593 0.000000
vt 0.370370 0.000000
vt 0.098765 0.000000
vt 0.364198 0.000000
vt 0.104938 0.000000
vt 0.358025 0.000000
vt 0.851852 0.000000
vt 0.845679 0.000000
vt 0.111111 0.000000
vt 0.993827 0.000000
vt 0.351852 0.000000
vt 0.987654 0.000000
vt 0.858025 0.000000
vt 0.981481 0.000000
vt 0.864198 0.000000
vt 0.117284 0.000000
vt 0.345679 0.000000
vt 0.975309 0.000000
vt 0.691358 0.000000
vt 0.839506 0.000000
vt 0.685185 0.000000
vt 0.870370 0.000000
vt 0.969136 0.000000
vt 0.876543 0.000000
vt 0.827160 0.000000
vt 0.123457 0.000000
vt 0.697531 0.000000
vt 0.962963 0.000000
vt 0.339506 0.000000
vt 0.882716 0.000000
vt 0.820988 0.000000
vt 0.703704 0.000000
vt 0.956790 0.000000
vt 0.888889 0.000000
vt 0.814815 0.000000
vt 0.709877 0.000000
vt 0.950617 0.000000
vt 0.895062 0.000000
vt 0.129630 0.000000
vt 0.808642 0.000000
vt 0.716049 0.000000
vt 0.901235 0.000000
vt 0.944444 0.000000
vt 0.802469 0.000000
vt 0.722222 0.000000
vt 0.907407 0.000000
vt 0.938272 0.000000
vt 0.728395 0.000000
vt 0.796296 0.000000
vt 0.135802 0.000000
vt 0.913580 0.000000
vt 0.932099 0.000000
vt 0.327161 0.000000
vt 0.734568 0.000000
vt 0.790123 0.000000
vt 0.919753 0.000000
vt 0.925926 0.000000
vt 0.740741 0.000000
vt 0.783951 0.000000
vt 0.746914 0.000000
vt 0.777778 0.000000
vt 0.141975 0.000000
vt 0.320988 0.000000
vt 0.753086 0.000000
vt 0.771605 0.000000
vt 0.759259 0.000000
vt 0.765432 0.000000
vt 0.314815 0.000000
vt 0.148148 0.000000
vt 0.308642 0.000000
vt 0.154321 0.000000
vt 0.302469 0.000000
vt 0.160494 0.000000
vt 0.296296 0.000000
vt 0.290123 0.000000
vt 0.172840 0.000000
vt 0.283951 0.000000
vt 0.277778 0.000000
vt 0.179012 0.000000
vt 0.271605 0.000000
vt 0.185185 0.000000
vt 0.265432 0.000000
vt 0.259259 0.000000
vt 0.191358 0.000000
vt 0.253086 0.000000
vt 0.246914 0.000000
vt 0.240741 0.000000
vt 0.234568 0.000000
vt 0.197531 0.000000
vt 0.228395 0.000000
vt 0.203704 0.000000
vt 0.209877 0.000000
vt 0.216049 0.000000
vt 0.222222 0.000000
vt 0.387755 0.000000
vt 0.367347 0.000000
vt 0.377551 0.000000
vt 0.397959 0.000000
vt 0.346939 0.000000
vt 0.408163 0.000000
vt 0.336735 0.000000
vt 0.418367 0.000000
vt 0.326531 0.000000
vt 0.316327 0.000000
vt 0.438776 0.000000
vt 0.306122 0.000000
vt 0.448980 0.000000
vt 0.877551 0.000000
vt 0.867347 0.000000
vt 0.887755 0.000000
vt 0.897959 0.000000
vt 0.846939 0.000000
vt 0.908163 0.000000
vt 0.295918 0.000000
vt 0.836735 0.000000
vt 0.459184 0.000000
vt 0.918367 0.000000
vt 0.826531 0.000000
vt 0.816327 0.000000
vt 0.938776 0.000000
vt 0.806122 0.000000
vt 0.948980 0.000000
vt 0.469388 0.000000
vt 0.795918 0.000000
vt 0.959184 0.000000
vt 0.969388 0.000000
vt 0.479592 0.000000
vt 0.275510 0.000000
vt 0.775510 0.000000
vt 0.979592 0.000000
vt 0.765306 0.000000
vt 0.989796 0.000000
vt 0.489796 0.000000
vt 0.755102 0.000000
vt 0.265306 0.000000
vt 0.255102 0.000000
vt 0.510204 0.000000
vt 0.244898 0.000000
vt 0.234694 0.000000
vt 0.520408 0.000000
vt 0.224490 0.000000
vt 0.530612 0.000000
vt 0.204082 0.000000
vt 0.540816 0.000000
vt 0.193878 0.000000
vt 0.010204 0.000000
vt 0.744898 0.000000
vt 0.183673 0.000000
vt 0.020408 0.000000
vt 0.030612 0.000000
vt 0.551020 0.000000
vt 0.173469 0.000000
vt 0.040816 0.000000
vt 0.051020 0.000000
vt 0.163265 0.000000
vt 0.061224 0.000000
vt 0.153061 0.000000
vt 0.561224 0.000000
vt 0.081633 0.000000
vt 0.091837 0.000000
vt 0.132653 0.000000
vt 0.102041 0.000000
vt 0.112245 0.000000
vt 0.122449 0.000000
vt 0.734694 0.000000
vt 0.581633 0.000000
vt 0.724490 0.000000
vt 0.591837 0.000000
vt 0.704082 0.000000
vt 0.693878 0.000000
vt 0.602041 0.000000
vt 0.683673 0.000000
vt 0.673469 0.000000
vt 0.612245 0.000000
vt 0.663265 0.000000
vt 0.653061 0.000000
vt 0.622449 0.000000
vt 0.632653 0.000000
vt 0.134021 0.000000
vt 0.113402 0.000000
vt 0.123711 0.000000
vt 0.103093 0.000000
vt 0.092784 0.000000
vt 0.144330 0.000000
vt 0.082474 0.000000
vt 0.072165 0.000000
vt 0.061856 0.000000
vt 0.154639 0.000000
vt 0.051546 0.000000
vt 0.041237 0.000000
vt 0.030928 0.000000
vt 0.164948 0.000000
vt 0.020619 0.000000
vt 0.010309 0.000000
vt 0.175258 0.000000
vt 0.917526 0.000000
vt 0.927835 0.000000
vt 0.938144 0.000000
vt 0.948454 0.000000
vt 0.958763 0.000000
vt 0.969072 0.000000
vt 0.979381 0.000000
vt 0.989691 0.000000
vt 0.185567 0.000000
vt 0.896907 0.000000
vt 0.907216 0.000000
vt 0.195876 0.000000
vt 0.876289 0.000000
vt 0.886598 0.000000
vt 0.865979 0.000000
vt 0.855670 0.000000
vt 0.845361 0.000000
vt 0.206186 0.000000
vt 0.835052 0.000000
vt 0.824742 0.000000
vt 0.814433 0.000000
vt 0.216495 0.000000
vt 0.804124 0.000000
vt 0.793814 0.000000
vt 0.226804 0.000000
vt 0.783505 0.000000
vt 0.773196 0.000000
vt 0.237113 0.000000
vt 0.762887 0.000000
vt 0.247423 0.000000
vt 0.752577 0.000000
vt 0.742268 0.000000
vt 0.257732 0.000000
vt 0.731959 0.000000
vt 0.268041 0.000000
vt 0.721649 0.000000
vt 0.711340 0.000000
vt 0.278351 0.000000
vt 0.701031 0.000000
vt 0.690722 0.000000
vt 0.288660 0.000000
vt 0.680412 0.000000
vt 0.515464 0.000000
vt 0.494845 0.000000
vt 0.505155 0.000000
vt 0.670103 0.000000
vt 0.525773 0.000000
vt 0.298969 0.000000
vt 0.536082 0.000000
vt 0.659794 0.000000
vt 0.546392 0.000000
vt 0.556701 0.000000
vt 0.567010 0.000000
vt 0.649485 0.000000
vt 0.577320 0.000000
vt 0.587629 0.000000
vt 0.639175 0.000000
vt 0.597938 0.000000
vt 0.608247 0.000000
vt 0.628866 0.000000
vt 0.618557 0.000000
vt 0.309278 0.000000
vt 0.319588 0.000000
vt 0.329897 0.000000
vt 0.340206 0.000000
vt 0.484536 0.000000
vt 0.474227 0.000000
vt 0.463918 0.000000
vt 0.350515 0.000000
vt 0.453608 0.000000
vt 0.443299 0.000000
vt 0.432990 0.000000
vt 0.422680 0.000000
vt 0.360825 0.000000
vt 0.412371 0.000000
vt 0.402062 0.000000
vt 0.391753 0.000000
vt 0.371134 0.000000
vt 0.381443 0.000000
vt 0.219653 0.000000
vt 0.208092 0.000000
vt 0.213873 0.000000
vt 0.225434 0.000000
vt 0.202312 0.000000
vt 0.231214 0.000000
vt 0.236994 0.000000
vt 0.196532 0.000000
vt 0.242775 0.000000
vt 0.190751 0.000000
vt 0.248555 0.000000
vt 0.254335 0.000000
vt 0.184971 0.000000
vt 0.260116 0.000000
vt 0.179191 0.000000
vt 0.265896 0.000000
vt 0.271676 0.000000
vt 0.173410 0.000000
vt 0.277457 0.000000
vt 0.167630 0.000000
vt 0.283237 0.000000
vt 0.289017 0.000000
vt 0.294798 0.000000
vt 0.300578 0.000000
vt 0.306358 0.000000
vt 0.312139 0.000000
vt 0.317919 0.000000
vt 0.323699 0.000000
vt 0.329480 0.000000
vt 0.335260 0.000000
vt 0.341040 0.000000
vt 0.346821 0.000000
vt 0.352601 0.000000
vt 0.358382 0.000000
vt 0.161850 0.000000
vt 0.364162 0.000000
vt 0.156069 0.000000
vt 0.369942 0.000000
vt 0.375723 0.000000
vt 0.381503 0.000000
vt 0.387283 0.000000
vt 0.393064 0.000000
vt 0.150289 0.000000
vt 0.398844 0.000000
vt 0.404624 0.000000
vt 0.410405 0.000000
vt 0.144509 0.000000
vt 0.416185 0.000000
vt 0.421965 0.000000
vt 0.138728 0.000000
vt 0.427746 0.000000
vt 0.433526 0.000000
vt 0.439306 0.000000
vt 0.445087 0.000000
vt 0.450867 0.000000
vt 0.456647 0.000000
vt 0.462428 0.000000
vt 0.994220 0.000000
vt 0.791907 0.000000
vt 0.988439 0.000000
vt 0.468208 0.000000
vt 0.982659 0.000000
vt 0.473988 0.000000
vt 0.976879 0.000000
vt 0.479769 0.000000
vt 0.971098 0.000000
vt 0.965318 0.000000
vt 0.485549 0.000000
vt 0.959538 0.000000
vt 0.491329 0.000000
vt 0.953757 0.000000
vt 0.947977 0.000000
vt 0.497110 0.000000
vt 0.942197 0.000000
vt 0.936416 0.000000
vt 0.502890 0.000000
vt 0.930636 0.000000
vt 0.508671 0.000000
vt 0.924855 0.000000
vt 0.919075 0.000000
vt 0.514451 0.000000
vt 0.913295 0.000000
vt 0.907514 0.000000
vt 0.797688 0.000000
vt 0.520231 0.000000
vt 0.803468 0.000000
vt 0.901734 0.000000
vt 0.809249 0.000000
vt 0.005780 0.000000
vt 0.786127 0.000000
vt 0.132948 0.000000
vt 0.895954 0.000000
vt 0.011561 0.000000
vt 0.815029 0.000000
vt 0.127168 0.000000
vt 0.017341 0.000000
vt 0.526012 0.000000
vt 0.890173 0.000000
vt 0.121387 0.000000
vt 0.820809 0.000000
vt 0.023121 0.000000
vt 0.115607 0.000000
vt 0.826590 0.000000
vt 0.028902 0.000000
vt 0.884393 0.000000
vt 0.109827 0.000000
vt 0.034682 0.000000
vt 0.832370 0.000000
vt 0.104046 0.000000
vt 0.040462 0.000000
vt 0.878613 0.000000
vt 0.098266 0.000000
vt 0.838150 0.000000
vt 0.046243 0.000000
vt 0.092486 0.000000
vt 0.531792 0.000000
vt 0.052023 0.000000
vt 0.872832 0.000000
vt 0.843931 0.000000
vt 0.086705 0.000000
vt 0.057803 0.000000
vt 0.080925 0.000000
vt 0.063584 0.000000
vt 0.849711 0.000000
vt 0.075145 0.000000
vt 0.069364 0.000000
vt 0.867052 0.000000
vt 0.855491 0.000000
vt 0.861272 0.000000
vt 0.647399 0.000000
vt 0.537572 0.000000
vt 0.641618 0.000000
vt 0.653179 0.000000
vt 0.543353 0.000000
vt 0.635838 0.000000
vt 0.658960 0.000000
vt 0.780347 0.000000
vt 0.549133 0.000000
vt 0.630058 0.000000
vt 0.664740 0.000000
vt 0.774566 0.000000
vt 0.624277 0.000000
vt 0.670520 0.000000
vt 0.554913 0.000000
vt 0.768786 0.000000
vt 0.618497 0.000000
vt 0.676301 0.000000
vt 0.763006 0.000000
vt 0.560694 0.000000
vt 0.612717 0.000000
vt 0.682081 0.000000
vt 0.757225 0.000000
vt 0.606936 0.000000
vt 0.687861 0.000000
vt 0.751445 0.000000
vt 0.566474 0.000000
vt 0.601156 0.000000
vt 0.693642 0.000000
vt 0.745665 0.000000
vt 0.595376 0.000000
vt 0.739884 0.000000
vt 0.699422 0.000000
vt 0.572254 0.000000
vt 0.734104 0.000000
vt 0.589595 0.000000
vt 0.705202 0.000000
vt 0.728324 0.000000
vt 0.583815 0.000000
vt 0.710983 0.000000
vt 0.578035 0.000000
vt 0.722543 0.000000
vt 0.716763 0.000000
vt 0.097744 0.000000
vt 0.082707 0.000000
vt 0.090226 0.000000
vt 0.075188 0.000000
vt 0.105263 0.000000
vt 0.067669 0.000000
vt 0.060150 0.000000
vt 0.112782 0.000000
vt 0.052632 0.000000
vt 0.045113 0.000000
vt 0.120301 0.000000
vt 0.037594 0.000000
vt 0.030075 0.000000
vt 0.127820 0.000000
vt 0.022556 0.000000
vt 0.015038 0.000000
vt 0.135338 0.000000
vt 0.007519 0.000000
vt 0.939850 0.000000
vt 0.947368 0.000000
vt 0.954887 0.000000
vt 0.962406 0.000000
vt 0.969925 0.000000
vt 0.977444 0.000000
vt 0.984962 0.000000
vt 0.992481 0.000000
vt 0.150376 0.000000
vt 0.924812 0.000000
vt 0.932331 0.000000
vt 0.157895 0.000000
vt 0.917293 0.000000
vt 0.165414 0.000000
vt 0.902256 0.000000
vt 0.909774 0.000000
vt 0.894737 0.000000
vt 0.887218 0.000000
vt 0.879699 0.000000
vt 0.872180 0.000000
vt 0.864662 0.000000
vt 0.172932 0.000000
vt 0.849624 0.000000
vt 0.842105 0.000000
vt 0.834586 0.000000
vt 0.180451 0.000000
vt 0.827068 0.000000
vt 0.819549 0.000000
vt 0.812030 0.000000
vt 0.187970 0.000000
vt 0.804511 0.000000
vt 0.796992 0.000000
vt 0.789474 0.000000
vt 0.781955 0.000000
vt 0.774436 0.000000
vt 0.195489 0.000000
vt 0.766917 0.000000
vt 0.759399 0.000000
vt 0.751880 0.000000
vt 0.203008 0.000000
vt 0.744361 0.000000
vt 0.736842 0.000000
vt 0.729323 0.000000
vt 0.210526 0.000000
vt 0.721804 0.000000
vt 0.218045 0.000000
vt 0.706767 0.000000
vt 0.225564 0.000000
vt 0.699248 0.000000
vt 0.233083 0.000000
vt 0.691729 0.000000
vt 0.684211 0.000000
vt 0.240602 0.000000
vt 0.676692 0.000000
vt 0.248120 0.000000
vt 0.669173 0.000000
vt 0.661654 0.000000
vt 0.255639 0.000000
vt 0.654135 0.000000
vt 0.263158 0.000000
vt 0.646617 0.000000
vt 0.270677 0.000000
vt 0.639098 0.000000
vt 0.458647 0.000000
vt 0.443609 0.000000
vt 0.451128 0.000000
vt 0.631579 0.000000
vt 0.278196 0.000000
vt 0.436090 0.000000
vt 0.293233 0.000000
vt 0.624060 0.000000
vt 0.421053 0.000000
vt 0.300752 0.000000
vt 0.413534 0.000000
vt 0.308271 0.000000
vt 0.406015 0.000000
vt 0.315789 0.000000
vt 0.616541 0.000000
vt 0.398496 0.000000
vt 0.323308 0.000000
vt 0.330827 0.000000
vt 0.390977 0.000000
vt 0.338346 0.000000
vt 0.383459 0.000000
vt 0.345865 0.000000
vt 0.375940 0.000000
vt 0.353383 0.000000
vt 0.368421 0.000000
vt 0.360902 0.000000
vt 0.609023 0.000000
vt 0.601504 0.000000
vt 0.593985 0.000000
vt 0.466165 0.000000
vt 0.586466 0.000000
vt 0.473684 0.000000
vt 0.481203 0.000000
vt 0.578947 0.000000
vt 0.488722 0.000000
vt 0.496241 0.000000
vt 0.503759 0.000000
vt 0.563910 0.000000
vt 0.511278 0.000000
vt 0.518797 0.000000
vt 0.556391 0.000000
vt 0.526316 0.000000
vt 0.533835 0.000000
vt 0.548872 0.000000
vt 0.541353 0.000000
s 0
usemtl Material
f 122/1/1 154/2/1 155/3/1
f 122/1/1 153/4/1 154/2/1
f 122/1/1 152/5/1 153/4/1
f 123/6/1 152/5/1 122/1/1
f 124/7/1 152/5/1 123/6/1
f 124/7/1 151/8/1 152/5/1
f 125/9/1 151/8/1 124/7/1
f 125/9/1 150/10/1 151/8/1
f 126/11/1 150/10/1 125/9/1
f 126/11/1 149/12/1 150/10/1
f 127/13/1 149/12/1 126/11/1
f 127/13/1 148/14/1 149/12/1
f 128/15/1 148/14/1 127/13/1
f 129/16/1 148/14/1 128/15/1
f 129/16/1 147/17/1 148/14/1
f 130/18/1 147/17/1 129/16/1
f 130/18/1 146/19/1 147/17/1
f 131/20/1 146/19/1 130/18/1
f 131/20/1 145/21/1 146/19/1
f 132/22/1 145/21/1 131/20/1
f 132/22/1 144/23/1 145/21/1
f 133/24/1 144/23/1 132/22/1
f 133/24/1 143/25/1 144/23/1
f 134/26/1 143/25/1 133/24/1
f 136/27/1 138/28/1 135/29/1
f 138/28/1 134/26/1 135/29/1
f 138/28/1 143/25/1 134/26/1
f 138/28/1 142/30/1 143/25/1
f 138/28/1 139/31/1 142/30/1
f 139/31/1 141/32/1 142/30/1
f 136/27/1 137/33/1 138/28/1
f 140/34/1 141/32/1 139/31/1
f 95/35/1 93/36/1 94/37/1
f 95/35/1 92/38/1 93/36/1
f 96/39/1 92/38/1 95/35/1
f 97/40/1 91/41/1 96/39/1
f 91/41/1 92/38/1 96/39/1
f 97/40/1 90/42/1 91/41/1
f 2/43/1 121/44/1 1/45/1
f 2/43/1 120/46/1 121/44/1
f 2/43/1 119/47/1 120/46/1
f 2/43/1 118/48/1 119/47/1
f 2/43/1 117/49/1 118/48/1
f 3/50/1 117/49/1 2/43/1
f 3/50/1 116/51/1 117/49/1
f 3/50/1 115/52/1 116/51/1
f 3/50/1 114/53/1 115/52/1
f 97/40/1 87/54/1 90/42/1
f 87/54/1 89/55/1 90/42/1
f 87/54/1 88/56/1 89/55/1
f 3/50/1 113/57/1 114/53/1
f 4/58/1 113/57/1 3/50/1
f 4/58/1 112/59/1 113/57/1
f 4/58/1 111/60/1 112/59/1
f 4/58/1 110/61/1 111/60/1
f 5/62/1 110/61/1 4/58/1
f 5/62/1 109/63/1 110/61/1
f 5/62/1 108/64/1 109/63/1
f 97/40/1 86/65/1 87/54/1
f 5/62/1 107/66/1 108/64/1
f 6/67/1 107/66/1 5/62/1
f 6/67/1 106/68/1 107/66/1
f 7/69/1 106/68/1 6/67/1
f 7/69/1 37/70/1 106/68/1
f 37/70/1 105/71/1 106/68/1
f 37/70/1 104/72/1 105/71/1
f 7/69/1 36/73/1 37/70/1
f 38/74/1 104/72/1 37/70/1
f 8/75/1 36/73/1 7/69/1
f 38/74/1 103/76/1 104/72/1
f 8/75/1 35/77/1 36/73/1
f 38/74/1 102/78/1 103/76/1
f 9/79/1 35/77/1 8/75/1
f 39/80/1 102/78/1 38/74/1
f 9/79/1 34/81/1 35/77/1
f 39/80/1 101/82/1 102/78/1
f 39/80/1 100/83/1 101/82/1
f 9/79/1 33/84/1 34/81/1
f 39/80/1 99/85/1 100/83/1
f 10/86/1 33/84/1 9/79/1
f 40/87/1 99/85/1 39/80/1
f 40/87/1 98/88/1 99/85/1
f 10/86/1 32/89/1 33/84/1
f 40/87/1 97/40/1 98/88/1
f 40/87/1 86/65/1 97/40/1
f 11/90/1 32/89/1 10/86/1
f 41/91/1 86/65/1 40/87/1
f 11/90/1 31/92/1 32/89/1
f 41/91/1 85/93/1 86/65/1
f 41/91/1 84/94/1 85/93/1
f 41/91/1 83/95/1 84/94/1
f 11/90/1 30/96/1 31/92/1
f 41/91/1 82/97/1 83/95/1
f 41/91/1 81/98/1 82/97/1
f 12/99/1 30/96/1 11/90/1
f 41/91/1 80/100/1 81/98/1
f 41/91/1 79/101/1 80/100/1
f 42/102/1 79/101/1 41/91/1
f 42/102/1 78/103/1 79/101/1
f 42/102/1 77/104/1 78/103/1
f 63/105/1 61/106/1 62/107/1
f 64/108/1 61/106/1 63/105/1
f 42/102/1 76/109/1 77/104/1
f 65/110/1 61/106/1 64/108/1
f 66/111/1 61/106/1 65/110/1
f 67/112/1 61/106/1 66/111/1
f 42/102/1 75/113/1 76/109/1
f 68/114/1 61/106/1 67/112/1
f 69/115/1 61/106/1 68/114/1
f 70/116/1 61/106/1 69/115/1
f 42/102/1 74/117/1 75/113/1
f 71/118/1 61/106/1 70/116/1
f 72/119/1 61/106/1 71/118/1
f 73/120/1 61/106/1 72/119/1
f 74/117/1 61/106/1 73/120/1
f 42/102/1 61/106/1 74/117/1
f 42/102/1 60/121/1 61/106/1
f 42/102/1 59/122/1 60/121/1
f 12/99/1 29/123/1 30/96/1
f 42/102/1 58/124/1 59/122/1
f 43/125/1 58/124/1 42/102/1
f 13/126/1 29/123/1 12/99/1
f 43/125/1 57/127/1 58/124/1
f 43/125/1 56/128/1 57/127/1
f 13/126/1 28/129/1 29/123/1
f 43/125/1 55/130/1 56/128/1
f 44/131/1 55/130/1 43/125/1
f 44/131/1 54/132/1 55/130/1
f 14/133/1 28/129/1 13/126/1
f 15/134/1 28/129/1 14/133/1
f 15/134/1 27/135/1 28/129/1
f 45/136/1 54/132/1 44/131/1
f 45/136/1 53/137/1 54/132/1
f 16/138/1 27/135/1 15/134/1
f 17/139/1 27/135/1 16/138/1
f 45/136/1 52/140/1 53/137/1
f 18/141/1 27/135/1 17/139/1
f 46/142/1 52/140/1 45/136/1
f 46/142/1 51/143/1 52/140/1
f 19/144/1 27/135/1 18/141/1
f 19/144/1 26/145/1 27/135/1
f 47/146/1 51/143/1 46/142/1
f 20/147/1 26/145/1 19/144/1
f 47/146/1 50/148/1 51/143/1
f 48/149/1 50/148/1 47/146/1
f 21/150/1 26/145/1 20/147/1
f 49/151/1 50/148/1 48/149/1
f 22/152/1 26/145/1 21/150/1
f 22/152/1 23/153/1 26/145/1
f 23/153/1 24/154/1 26/145/1
f 24/154/1 25/155/1 26/145/1
f 251/156/1 348/3/1 250/157/1
f 251/156/1 347/158/1 348/3/1
f 156/45/1 180/159/1 181/160/1
f 156/45/1 179/161/1 180/159/1
f 156/45/1 178/162/1 179/161/1
f 156/45/1 177/163/1 178/162/1
f 156/45/1 176/164/1 177/163/1
f 156/45/1 175/165/1 176/164/1
f 156/45/1 174/166/1 175/165/1
f 157/167/1 174/166/1 156/45/1
f 157/167/1 173/168/1 174/166/1
f 158/169/1 173/168/1 157/167/1
f 158/169/1 172/170/1 173/168/1
f 159/171/1 172/170/1 158/169/1
f 159/171/1 171/172/1 172/170/1
f 160/173/1 171/172/1 159/171/1
f 160/173/1 170/174/1 171/172/1
f 161/175/1 170/174/1 160/173/1
f 161/175/1 169/176/1 170/174/1
f 162/177/1 169/176/1 161/175/1
f 162/177/1 163/178/1 169/176/1
f 163/178/1 164/179/1 169/176/1
f 164/179/1 165/180/1 169/176/1
f 165/180/1 166/181/1 169/176/1
f 166/181/1 167/182/1 169/176/1
f 167/182/1 168/183/1 169/176/1
f 253/184/1 251/156/1 252/103/1
f 253/184/1 347/158/1 251/156/1
f 253/184/1 346/185/1 347/158/1
f 253/184/1 254/186/1 346/185/1
f 254/186/1 249/187/1 346/185/1
f 249/187/1 345/188/1 346/185/1
f 255/189/1 248/190/1 254/186/1
f 248/190/2 249/187/2 254/186/2
f 255/189/1 247/191/1 248/190/1
f 234/192/1 345/188/1 249/187/1
f 182/193/1 206/194/1 207/195/1
f 182/193/1 205/196/1 206/194/1
f 182/193/1 204/197/1 205/196/1
f 182/193/1 203/198/1 204/197/1
f 182/193/1 202/199/1 203/198/1
f 182/193/1 201/200/1 202/199/1
f 182/193/1 200/201/1 201/200/1
f 182/193/1 199/202/1 200/201/1
f 183/203/1 199/202/1 182/193/1
f 184/204/1 199/202/1 183/203/1
f 256/205/1 247/191/1 255/189/1
f 184/204/1 198/206/1 199/202/1
f 256/205/1 246/207/1 247/191/1
f 185/208/1 198/206/1 184/204/1
f 257/209/1 246/207/1 256/205/1
f 185/208/1 197/210/1 198/206/1
f 257/209/1 245/211/1 246/207/1
f 186/212/1 197/210/1 185/208/1
f 186/212/1 196/213/1 197/210/1
f 258/214/1 245/211/1 257/209/1
f 258/214/1 244/215/1 245/211/1
f 187/216/1 196/213/1 186/212/1
f 187/216/1 195/217/1 196/213/1
f 259/218/1 244/215/1 258/214/1
f 259/218/1 243/219/1 244/215/1
f 188/220/1 195/217/1 187/216/1
f 188/220/1 189/221/1 195/217/1
f 189/221/1 190/222/1 195/217/1
f 190/222/1 191/223/1 195/217/1
f 191/223/1 192/224/1 195/217/1
f 192/224/1 193/225/1 195/217/1
f 193/225/1 194/226/1 195/217/1
f 260/227/1 243/219/1 259/218/1
f 260/227/1 242/228/1 243/219/1
f 261/229/1 242/228/1 260/227/1
f 261/229/1 241/230/1 242/228/1
f 262/231/1 241/230/1 261/229/1
f 262/231/1 240/232/1 241/230/1
f 263/233/1 240/232/1 262/231/1
f 263/233/1 239/234/1 240/232/1
f 264/235/1 239/234/1 263/233/1
f 264/235/1 238/236/1 239/234/1
f 265/237/1 238/236/1 264/235/1
f 265/237/1 237/238/1 238/236/1
f 266/239/1 237/238/1 265/237/1
f 266/239/1 236/240/1 237/238/1
f 267/241/1 236/240/1 266/239/1
f 267/241/1 235/242/1 236/240/1
f 269/243/1 267/241/1 268/244/1
f 269/243/1 235/242/1 267/241/1
f 269/243/1 234/192/1 235/242/1
f 269/243/1 345/188/1 234/192/1
f 269/243/1 344/245/1 345/188/1
f 269/243/1 343/246/1 344/245/1
f 270/247/1 343/246/1 269/243/1
f 271/248/1 342/249/1 270/247/1
f 342/249/1 343/246/1 270/247/1
f 271/248/1 306/250/1 342/249/1
f 306/250/1 341/251/1 342/249/1
f 223/252/1 221/253/1 222/254/1
f 271/248/1 305/255/1 306/250/1
f 307/256/1 341/251/1 306/250/1
f 272/257/1 305/255/1 271/248/1
f 224/258/1 221/253/1 223/252/1
f 307/256/1 340/259/1 341/251/1
f 224/258/1 220/260/1 221/253/1
f 225/261/1 220/260/1 224/258/1
f 272/257/1 304/262/1 305/255/1
f 273/263/1 304/262/1 272/257/1
f 308/264/1 340/259/1 307/256/1
f 308/264/1 339/265/1 340/259/1
f 225/261/1 219/266/1 220/260/1
f 226/267/1 219/266/1 225/261/1
f 274/268/1 304/262/1 273/263/1
f 274/268/1 303/269/1 304/262/1
f 226/267/1 218/270/1 219/266/1
f 308/264/1 338/271/1 339/265/1
f 309/272/1 338/271/1 308/264/1
f 227/273/1 218/270/1 226/267/1
f 275/274/1 303/269/1 274/268/1
f 275/274/1 302/275/1 303/269/1
f 227/273/1 217/276/1 218/270/1
f 309/272/1 337/277/1 338/271/1
f 310/278/1 337/277/1 309/272/1
f 228/279/1 217/276/1 227/273/1
f 276/280/1 302/275/1 275/274/1
f 228/279/1 216/281/1 217/276/1
f 276/280/1 301/282/1 302/275/1
f 310/278/1 336/283/1 337/277/1
f 229/284/1 216/281/1 228/279/1
f 277/285/1 301/282/1 276/280/1
f 311/286/1 336/283/1 310/278/1
f 229/284/1 215/287/1 216/281/1
f 277/285/1 300/288/1 301/282/1
f 311/286/1 335/289/1 336/283/1
f 230/290/1 215/287/1 229/284/1
f 278/291/1 300/288/1 277/285/1
f 230/290/1 214/292/1 215/287/1
f 312/293/1 335/289/1 311/286/1
f 278/291/1 299/294/1 300/288/1
f 312/293/1 334/295/1 335/289/1
f 231/296/1 214/292/1 230/290/1
f 279/297/1 299/294/1 278/291/1
f 231/296/1 213/298/1 214/292/1
f 313/299/1 334/295/1 312/293/1
f 313/299/1 333/300/1 334/295/1
f 279/297/1 298/301/1 299/294/1
f 232/302/1 213/298/1 231/296/1
f 280/303/1 298/301/1 279/297/1
f 232/302/1 212/304/1 213/298/1
f 313/299/1 332/305/1 333/300/1
f 314/306/1 332/305/1 313/299/1
f 233/307/1 212/304/1 232/302/1
f 280/303/1 297/308/1 298/301/1
f 281/309/1 297/308/1 280/303/1
f 314/306/1 331/310/1 332/305/1
f 233/307/1 211/311/1 212/304/1
f 315/312/1 331/310/1 314/306/1
f 208/313/1 211/311/1 233/307/1
f 315/312/1 330/314/1 331/310/1
f 281/309/1 296/315/1 297/308/1
f 282/316/1 296/315/1 281/309/1
f 208/313/1 210/317/1 211/311/1
f 209/318/1 210/317/1 208/313/1
f 315/312/1 329/319/1 330/314/1
f 316/320/1 329/319/1 315/312/1
f 316/320/1 328/321/1 329/319/1
f 316/320/1 327/322/1 328/321/1
f 283/323/1 296/315/1 282/316/1
f 283/323/1 295/324/1 296/315/1
f 284/325/1 295/324/1 283/323/1
f 316/320/1 326/326/1 327/322/1
f 285/327/1 295/324/1 284/325/1
f 316/320/1 325/328/1 326/326/1
f 286/329/1 295/324/1 285/327/1
f 316/320/1 324/330/1 325/328/1
f 287/331/1 295/324/1 286/329/1
f 317/332/1 324/330/1 316/320/1
f 317/332/1 323/333/1 324/330/1
f 288/334/1 295/324/1 287/331/1
f 289/335/1 295/324/1 288/334/1
f 317/332/1 322/336/1 323/333/1
f 289/335/1 290/337/1 295/324/1
f 290/337/1 291/338/1 295/324/1
f 291/338/1 292/339/1 295/324/1
f 292/339/1 293/340/1 295/324/1
f 293/340/1 294/341/1 295/324/1
f 317/332/1 321/342/1 322/336/1
f 318/343/1 319/344/1 317/332/1
f 319/344/1 320/345/1 317/332/1
f 320/345/1 321/342/1 317/332/1
f 425/346/1 423/347/1 424/348/1
f 426/349/1 423/347/1 425/346/1
f 427/350/1 423/347/1 426/349/1
f 428/351/1 423/347/1 427/350/1
f 429/352/1 423/347/1 428/351/1
f 430/103/1 423/347/1 429/352/1
f 431/353/1 423/347/1 430/103/1
f 432/354/1 423/347/1 431/353/1
f 433/355/1 423/347/1 432/354/1
f 434/356/1 423/347/1 433/355/1
f 435/357/1 423/347/1 434/356/1
f 436/358/1 423/347/1 435/357/1
f 437/359/1 423/347/1 436/358/1
f 438/360/1 423/347/1 437/359/1
f 439/361/1 423/347/1 438/360/1
f 440/362/1 423/347/1 439/361/1
f 441/363/1 423/347/1 440/362/1
f 442/364/1 423/347/1 441/363/1
f 443/365/1 423/347/1 442/364/1
f 444/366/1 423/347/1 443/365/1
f 445/367/1 423/347/1 444/366/1
f 446/368/1 423/347/1 445/367/1
f 447/369/1 423/347/1 446/368/1
f 448/370/1 423/347/1 447/369/1
f 449/371/1 423/347/1 448/370/1
f 450/372/1 423/347/1 449/371/1
f 451/373/1 423/347/1 450/372/1
f 452/374/1 423/347/1 451/373/1
f 453/375/1 423/347/1 452/374/1
f 454/376/1 423/347/1 453/375/1
f 455/377/1 423/347/1 454/376/1
f 456/378/1 423/347/1 455/377/1
f 457/325/1 423/347/1 456/378/1
f 458/379/1 423/347/1 457/325/1
f 459/380/1 423/347/1 458/379/1
f 349/45/1 423/347/1 459/380/1
f 350/381/1 351/382/1 349/45/1
f 351/382/1 352/383/1 349/45/1
f 352/383/1 353/384/1 349/45/1
f 353/384/1 354/385/1 349/45/1
f 354/385/1 355/386/1 349/45/1
f 355/386/1 356/387/1 349/45/1
f 356/387/1 357/388/1 349/45/1
f 357/388/1 358/389/1 349/45/1
f 358/389/1 362/390/1 349/45/1
f 362/390/1 418/391/1 349/45/1
f 418/391/1 419/392/1 349/45/1
f 419/392/1 420/393/1 349/45/1
f 420/393/1 421/394/1 349/45/1
f 421/394/1 422/395/1 349/45/1
f 422/395/1 423/347/1 349/45/1
f 362/390/1 417/396/1 418/391/1
f 362/390/1 416/397/1 417/396/1
f 362/390/1 415/398/1 416/397/1
f 362/390/1 414/399/1 415/398/1
f 362/390/1 413/400/1 414/399/1
f 362/390/1 412/401/1 413/400/1
f 358/389/1 359/402/1 362/390/1
f 359/402/1 361/403/1 362/390/1
f 363/404/1 412/401/1 362/390/1
f 363/404/1 411/405/1 412/401/1
f 359/402/1 360/406/1 361/403/1
f 363/404/1 410/407/1 411/405/1
f 364/408/1 410/407/1 363/404/1
f 364/408/1 409/409/1 410/407/1
f 365/410/1 409/409/1 364/408/1
f 365/410/1 408/411/1 409/409/1
f 366/412/1 408/411/1 365/410/1
f 366/412/1 407/413/1 408/411/1
f 487/414/1 511/3/1 486/415/1
f 367/416/1 407/413/1 366/412/1
f 487/414/1 510/417/1 511/3/1
f 367/416/1 406/418/1 407/413/1
f 487/414/1 509/419/1 510/417/1
f 488/420/1 509/419/1 487/414/1
f 488/420/1 508/421/1 509/419/1
f 489/422/1 508/421/1 488/420/1
f 368/423/1 406/418/1 367/416/1
f 368/423/1 405/424/1 406/418/1
f 489/422/1 507/425/1 508/421/1
f 461/426/1 485/427/1 460/428/1
f 490/429/1 507/425/1 489/422/1
f 461/426/1 484/320/1 485/427/1
f 490/429/1 506/430/1 507/425/1
f 491/431/1 506/430/1 490/429/1
f 461/426/1 483/432/1 484/320/1
f 369/433/1 405/424/1 368/423/1
f 462/434/1 483/432/1 461/426/1
f 491/431/1 505/435/1 506/430/1
f 369/433/1 404/436/1 405/424/1
f 492/437/1 505/435/1 491/431/1
f 462/434/1 482/438/1 483/432/1
f 463/439/1 482/438/1 462/434/1
f 492/437/1 504/440/1 505/435/1
f 493/441/1 504/440/1 492/437/1
f 463/439/1 481/442/1 482/438/1
f 464/443/1 481/442/1 463/439/1
f 493/441/1 503/444/1 504/440/1
f 494/445/1 503/444/1 493/441/1
f 370/446/1 404/436/1 369/433/1
f 464/443/1 480/447/1 481/442/1
f 370/446/1 403/260/1 404/436/1
f 465/448/1 480/447/1 464/443/1
f 495/449/1 503/444/1 494/445/1
f 495/449/1 502/450/1 503/444/1
f 465/448/1 479/451/1 480/447/1
f 466/452/1 479/451/1 465/448/1
f 496/453/1 502/450/1 495/449/1
f 496/453/1 501/454/1 502/450/1
f 467/455/1 479/451/1 466/452/1
f 467/455/1 478/456/1 479/451/1
f 371/457/1 403/260/1 370/446/1
f 497/458/1 501/454/1 496/453/1
f 497/458/1 500/459/1 501/454/1
f 371/457/1 402/460/1 403/260/1
f 468/461/1 478/456/1 467/455/1
f 468/461/1 477/462/1 478/456/1
f 497/458/1 498/463/1 500/459/1
f 498/463/1 499/464/1 500/459/1
f 469/465/1 477/462/1 468/461/1
f 469/465/1 476/466/1 477/462/1
f 470/467/1 476/466/1 469/465/1
f 470/467/1 475/468/1 476/466/1
f 372/469/1 402/460/1 371/457/1
f 372/469/1 401/470/1 402/460/1
f 471/471/1 475/468/1 470/467/1
f 471/471/1 474/472/1 475/468/1
f 472/473/1 474/472/1 471/471/1
f 472/473/1 473/474/1 474/472/1
f 372/469/1 400/475/1 401/470/1
f 373/476/1 400/475/1 372/469/1
f 373/476/1 399/477/1 400/475/1
f 374/478/1 399/477/1 373/476/1
f 374/478/1 398/479/1 399/477/1
f 375/480/1 398/479/1 374/478/1
f 375/480/1 397/481/1 398/479/1
f 376/220/1 397/481/1 375/480/1
f 376/220/1 396/482/1 397/481/1
f 377/483/1 396/482/1 376/220/1
f 377/483/1 395/484/1 396/482/1
f 377/483/1 394/485/1 395/484/1
f 378/486/1 394/485/1 377/483/1
f 378/486/1 393/487/1 394/485/1
f 379/488/1 393/487/1 378/486/1
f 379/488/1 392/489/1 393/487/1
f 379/488/1 391/490/1 392/489/1
f 380/491/1 391/490/1 379/488/1
f 380/491/1 390/492/1 391/490/1
f 380/491/1 389/493/1 390/492/1
f 380/491/1 388/494/1 389/493/1
f 380/491/1 387/495/1 388/494/1
f 381/496/1 387/495/1 380/491/1
f 381/496/1 386/497/1 387/495/1
f 382/498/1 386/497/1 381/496/1
f 383/499/1 386/497/1 382/498/1
f 384/500/1 386/497/1 383/499/1
f 385/501/1 386/497/1 384/500/1
f 550/502/1 548/503/1 549/504/1
f 550/502/1 547/128/1 548/503/1
f 551/505/1 547/128/1 550/502/1
f 551/505/1 546/506/1 547/128/1
f 552/507/1 546/506/1 551/505/1
f 552/507/1 545/508/1 546/506/1
f 553/509/1 545/508/1 552/507/1
f 553/509/1 544/510/1 545/508/1
f 554/112/1 544/510/1 553/509/1
f 554/112/1 543/511/1 544/510/1
f 555/512/1 543/511/1 554/112/1
f 555/512/1 542/513/1 543/511/1
f 556/514/1 598/515/1 555/512/1
f 598/515/1 542/513/1 555/512/1
f 556/514/1 597/516/1 598/515/1
f 599/517/1 542/513/1 598/515/1
f 556/514/1 596/24/1 597/516/1
f 600/518/1 542/513/1 599/517/1
f 556/514/1 595/519/1 596/24/1
f 601/520/1 542/513/1 600/518/1
f 601/520/1 541/521/1 542/513/1
f 556/514/1 594/522/1 595/519/1
f 557/523/1 594/522/1 556/514/1
f 602/524/1 541/521/1 601/520/1
f 557/523/1 593/525/1 594/522/1
f 603/23/1 541/521/1 602/524/1
f 557/523/1 592/526/1 593/525/1
f 604/527/1 541/521/1 603/23/1
f 557/523/1 591/528/1 592/526/1
f 605/529/1 541/521/1 604/527/1
f 558/530/1 591/528/1 557/523/1
f 605/529/1 540/136/1 541/521/1
f 558/530/1 590/531/1 591/528/1
f 606/532/1 540/136/1 605/529/1
f 558/530/1 589/1/1 590/531/1
f 607/533/1 540/136/1 606/532/1
f 559/534/1 589/1/1 558/530/1
f 607/533/1 539/535/1 540/136/1
f 559/534/1 588/536/1 589/1/1
f 608/537/1 539/535/1 607/533/1
f 559/534/1 587/538/1 588/536/1
f 609/539/1 539/535/1 608/537/1
f 560/540/1 587/538/1 559/534/1
f 560/540/1 586/541/1 587/538/1
f 609/539/1 538/542/1 539/535/1
f 610/3/1 538/542/1 609/539/1
f 560/540/1 610/3/1 586/541/1
f 560/540/1 538/542/1 610/3/1
f 561/103/1 538/542/1 560/540/1
f 561/103/1 537/543/1 538/542/1
f 562/544/1 536/545/1 561/103/1
f 536/545/1 537/543/1 561/103/1
f 562/544/1 535/546/1 536/545/1
f 563/547/1 535/546/1 562/544/1
f 563/547/1 534/548/1 535/546/1
f 563/547/1 533/81/1 534/548/1
f 564/549/1 533/81/1 563/547/1
f 564/549/1 532/550/1 533/81/1
f 565/551/1 532/550/1 564/549/1
f 565/551/1 531/552/1 532/550/1
f 513/553/1 585/554/1 512/45/1
f 565/551/1 530/555/1 531/552/1
f 514/556/1 585/554/1 513/553/1
f 515/557/1 585/554/1 514/556/1
f 566/558/1 530/555/1 565/551/1
f 566/558/1 529/559/1 530/555/1
f 516/560/1 585/554/1 515/557/1
f 517/561/1 585/554/1 516/560/1
f 566/558/1 528/562/1 529/559/1
f 518/563/1 585/554/1 517/561/1
f 566/558/1 527/564/1 528/562/1
f 519/99/1 585/554/1 518/563/1
f 567/565/1 527/564/1 566/558/1
f 520/566/1 585/554/1 519/99/1
f 567/565/1 526/153/1 527/564/1
f 521/567/1 585/554/1 520/566/1
f 567/565/1 525/568/1 526/153/1
f 522/569/1 585/554/1 521/567/1
f 523/570/1 585/554/1 522/569/1
f 567/565/1 524/571/1 525/568/1
f 524/571/1 585/554/1 523/570/1
f 567/565/1 585/554/1 524/571/1
f 568/55/1 585/554/1 567/565/1
f 568/55/1 584/572/1 585/554/1
f 569/573/1 584/572/1 568/55/1
f 569/573/1 583/574/1 584/572/1
f 569/573/1 582/60/1 583/574/1
f 570/575/1 582/60/1 569/573/1
f 570/575/1 581/576/1 582/60/1
f 570/575/1 580/577/1 581/576/1
f 571/578/1 580/577/1 570/575/1
f 571/578/1 579/579/1 580/577/1
f 571/578/1 578/580/1 579/579/1
f 572/581/1 578/580/1 571/578/1
f 572/581/1 577/582/1 578/580/1
f 572/581/1 576/583/1 577/582/1
f 572/581/1 575/83/1 576/583/1
f 573/584/1 575/83/1 572/581/1
f 573/584/1 574/585/1 575/83/1
f 624/586/1 622/587/1 623/588/1
f 624/586/1 621/589/1 622/587/1
f 624/586/1 620/590/1 621/589/1
f 625/591/1 620/590/1 624/586/1
f 625/591/1 619/592/1 620/590/1
f 625/591/1 618/593/1 619/592/1
f 625/591/1 617/594/1 618/593/1
f 626/595/1 617/594/1 625/591/1
f 626/595/1 616/596/1 617/594/1
f 626/595/1 615/597/1 616/596/1
f 626/595/1 614/598/1 615/597/1
f 627/599/1 614/598/1 626/595/1
f 627/599/1 613/600/1 614/598/1
f 627/599/1 612/601/1 613/600/1
f 627/599/1 611/45/1 612/601/1
f 628/602/1 611/45/1 627/599/1
f 628/602/1 700/603/1 611/45/1
f 700/603/1 701/604/1 611/45/1
f 701/604/1 702/605/1 611/45/1
f 702/605/1 703/606/1 611/45/1
f 703/606/1 704/607/1 611/45/1
f 704/607/1 705/608/1 611/45/1
f 705/608/1 706/609/1 611/45/1
f 706/609/1 707/610/1 611/45/1
f 707/610/1 708/3/1 611/45/1
f 629/611/1 698/612/1 628/602/1
f 698/612/1 699/613/1 628/602/1
f 699/613/1 700/603/1 628/602/1
f 630/614/1 696/615/1 629/611/1
f 696/615/1 697/616/1 629/611/1
f 697/616/1 698/612/1 629/611/1
f 630/614/1 695/617/1 696/615/1
f 630/614/1 694/618/1 695/617/1
f 630/614/1 693/619/1 694/618/1
f 631/620/1 693/619/1 630/614/1
f 631/620/1 692/621/1 693/619/1
f 631/620/1 691/622/1 692/621/1
f 631/620/1 690/623/1 691/622/1
f 632/624/1 690/623/1 631/620/1
f 632/624/1 689/625/1 690/623/1
f 632/624/1 688/626/1 689/625/1
f 633/627/1 688/626/1 632/624/1
f 633/627/1 687/628/1 688/626/1
f 633/627/1 686/629/1 687/628/1
f 634/630/1 686/629/1 633/627/1
f 634/630/1 685/631/1 686/629/1
f 635/632/1 685/631/1 634/630/1
f 635/632/1 684/633/1 685/631/1
f 635/632/1 683/634/1 684/633/1
f 636/635/1 683/634/1 635/632/1
f 636/635/1 682/636/1 683/634/1
f 637/637/1 682/636/1 636/635/1
f 637/637/1 681/638/1 682/636/1
f 637/637/1 680/639/1 681/638/1
f 638/640/1 680/639/1 637/637/1
f 638/640/1 679/641/1 680/639/1
f 638/640/1 678/642/1 679/641/1
f 639/643/1 678/642/1 638/640/1
f 639/643/1 677/644/1 678/642/1
f 661/645/1 659/646/1 660/647/1
f 639/643/1 676/648/1 677/644/1
f 662/649/1 659/646/1 661/645/1
f 640/650/1 676/648/1 639/643/1
f 663/651/1 659/646/1 662/649/1
f 640/650/1 675/652/1 676/648/1
f 664/653/1 659/646/1 663/651/1
f 665/654/1 659/646/1 664/653/1
f 666/655/1 659/646/1 665/654/1
f 640/650/1 674/656/1 675/652/1
f 667/657/1 659/646/1 666/655/1
f 668/658/1 659/646/1 667/657/1
f 640/650/1 673/659/1 674/656/1
f 669/660/1 659/646/1 668/658/1
f 670/661/1 659/646/1 669/660/1
f 640/650/1 672/662/1 673/659/1
f 671/663/1 659/646/1 670/661/1
f 641/664/1 672/662/1 640/650/1
f 672/662/1 659/646/1 671/663/1
f 641/664/1 659/646/1 672/662/1
f 642/665/1 659/646/1 641/664/1
f 643/666/1 659/646/1 642/665/1
f 644/667/1 659/646/1 643/666/1
f 644/667/1 658/668/1 659/646/1
f 644/667/1 657/669/1 658/668/1
f 644/667/1 656/670/1 657/669/1
f 645/671/1 656/670/1 644/667/1
f 645/671/1 655/672/1 656/670/1
f 645/671/1 654/673/1 655/672/1
f 645/671/1 653/674/1 654/673/1
f 645/671/1 652/675/1 653/674/1
f 646/676/1 652/675/1 645/671/1
f 646/676/1 651/677/1 652/675/1
f 646/676/1 650/678/1 651/677/1
f 646/676/1 649/679/1 650/678/1
f 647/680/1 649/679/1 646/676/1
f 647/680/1 648/681/1 649/679/1
f 747/682/1 745/683/1 746/684/1
f 748/685/1 745/683/1 747/682/1
f 748/685/1 744/686/1 745/683/1
f 749/687/1 744/686/1 748/685/1
f 750/688/1 744/686/1 749/687/1
f 750/688/1 743/689/1 744/686/1
f 751/690/1 743/689/1 750/688/1
f 751/690/1 742/691/1 743/689/1
f 752/692/1 742/691/1 751/690/1
f 753/693/1 742/691/1 752/692/1
f 753/693/1 741/694/1 742/691/1
f 754/695/1 741/694/1 753/693/1
f 754/695/1 740/696/1 741/694/1
f 755/697/1 740/696/1 754/695/1
f 756/698/1 740/696/1 755/697/1
f 756/698/1 739/699/1 740/696/1
f 757/700/1 739/699/1 756/698/1
f 757/700/1 738/701/1 739/699/1
f 758/702/1 738/701/1 757/700/1
f 759/703/1 760/704/1 758/702/1
f 760/704/1 761/705/1 758/702/1
f 761/705/1 762/706/1 758/702/1
f 762/706/1 763/707/1 758/702/1
f 763/707/1 764/708/1 758/702/1
f 764/708/1 765/709/1 758/702/1
f 765/709/1 766/710/1 758/702/1
f 766/710/1 767/711/1 758/702/1
f 767/711/1 768/712/1 758/702/1
f 768/712/1 769/713/1 758/702/1
f 769/713/1 738/701/1 758/702/1
f 769/713/1 770/714/1 738/701/1
f 770/714/1 771/715/1 738/701/1
f 771/715/1 737/716/1 738/701/1
f 771/715/1 772/717/1 737/716/1
f 772/717/1 736/718/1 737/716/1
f 773/719/1 736/718/1 772/717/1
f 774/720/1 736/718/1 773/719/1
f 775/721/1 736/718/1 774/720/1
f 776/722/1 736/718/1 775/721/1
f 777/723/1 736/718/1 776/722/1
f 777/723/1 735/724/1 736/718/1
f 778/725/1 735/724/1 777/723/1
f 779/726/1 735/724/1 778/725/1
f 780/727/1 735/724/1 779/726/1
f 780/727/1 734/728/1 735/724/1
f 781/729/1 734/728/1 780/727/1
f 782/730/1 734/728/1 781/729/1
f 782/730/1 733/731/1 734/728/1
f 783/732/1 733/731/1 782/730/1
f 784/733/1 733/731/1 783/732/1
f 785/734/1 882/3/1 784/733/1
f 882/3/1 733/731/1 784/733/1
f 786/735/1 882/3/1 785/734/1
f 787/736/1 882/3/1 786/735/1
f 788/737/1 882/3/1 787/736/1
f 789/738/1 882/3/1 788/737/1
f 789/738/1 881/739/1 882/3/1
f 846/740/1 733/731/1 882/3/1
f 789/738/1 880/741/1 881/739/1
f 790/742/1 880/741/1 789/738/1
f 790/742/1 879/743/1 880/741/1
f 791/744/1 879/743/1 790/742/1
f 791/744/1 878/745/1 879/743/1
f 792/746/1 878/745/1 791/744/1
f 792/746/1 877/747/1 878/745/1
f 792/746/1 876/748/1 877/747/1
f 793/749/1 876/748/1 792/746/1
f 793/749/1 875/750/1 876/748/1
f 794/751/1 875/750/1 793/749/1
f 794/751/1 874/752/1 875/750/1
f 794/751/1 873/753/1 874/752/1
f 795/754/1 873/753/1 794/751/1
f 795/754/1 872/755/1 873/753/1
f 795/754/1 871/756/1 872/755/1
f 796/757/1 871/756/1 795/754/1
f 796/757/1 870/758/1 871/756/1
f 797/759/1 870/758/1 796/757/1
f 797/759/1 869/760/1 870/758/1
f 797/759/1 868/761/1 869/760/1
f 798/762/1 868/761/1 797/759/1
f 798/762/1 867/763/1 868/761/1
f 798/762/1 866/764/1 867/763/1
f 847/765/1 733/731/1 846/740/1
f 799/766/1 866/764/1 798/762/1
f 848/767/1 733/731/1 847/765/1
f 799/766/1 865/768/1 866/764/1
f 849/769/1 733/731/1 848/767/1
f 710/770/1 845/771/1 709/45/1
f 849/769/1 732/772/1 733/731/1
f 799/766/1 864/773/1 865/768/1
f 711/774/1 845/771/1 710/770/1
f 850/775/1 732/772/1 849/769/1
f 850/775/1 731/776/1 732/772/1
f 712/777/1 845/771/1 711/774/1
f 800/778/1 864/773/1 799/766/1
f 800/778/1 863/779/1 864/773/1
f 850/775/1 730/780/1 731/776/1
f 851/781/1 730/780/1 850/775/1
f 713/782/1 845/771/1 712/777/1
f 851/781/1 729/783/1 730/780/1
f 852/784/1 729/783/1 851/781/1
f 714/785/1 845/771/1 713/782/1
f 800/778/1 862/786/1 863/779/1
f 852/784/1 728/787/1 729/783/1
f 715/788/1 845/771/1 714/785/1
f 853/789/1 728/787/1 852/784/1
f 853/789/1 727/790/1 728/787/1
f 716/791/1 845/771/1 715/788/1
f 800/778/1 861/792/1 862/786/1
f 853/789/1 726/793/1 727/790/1
f 854/794/1 726/793/1 853/789/1
f 717/795/1 845/771/1 716/791/1
f 854/794/1 725/796/1 726/793/1
f 801/797/1 861/792/1 800/778/1
f 718/798/1 845/771/1 717/795/1
f 801/797/1 860/799/1 861/792/1
f 855/800/1 725/796/1 854/794/1
f 855/800/1 724/801/1 725/796/1
f 719/802/1 845/771/1 718/798/1
f 855/800/1 723/803/1 724/801/1
f 720/804/1 845/771/1 719/802/1
f 856/805/1 723/803/1 855/800/1
f 856/805/1 722/806/1 723/803/1
f 721/807/1 845/771/1 720/804/1
f 856/805/1 721/807/1 722/806/1
f 801/797/1 859/808/1 860/799/1
f 856/805/1 845/771/1 721/807/1
f 857/809/1 845/771/1 856/805/1
f 801/797/1 858/810/1 859/808/1
f 858/810/1 845/771/1 857/809/1
f 801/797/1 821/811/1 858/810/1
f 821/811/1 845/771/1 858/810/1
f 802/812/1 821/811/1 801/797/1
f 802/812/1 820/813/1 821/811/1
f 822/814/1 845/771/1 821/811/1
f 803/815/1 820/813/1 802/812/1
f 803/815/1 819/816/1 820/813/1
f 823/817/1 845/771/1 822/814/1
f 823/817/1 844/818/1 845/771/1
f 804/819/1 819/816/1 803/815/1
f 804/819/1 818/820/1 819/816/1
f 824/821/1 844/818/1 823/817/1
f 824/821/1 843/822/1 844/818/1
f 804/819/1 817/823/1 818/820/1
f 825/824/1 843/822/1 824/821/1
f 805/825/1 817/823/1 804/819/1
f 825/824/1 842/826/1 843/822/1
f 805/825/1 816/827/1 817/823/1
f 826/828/1 842/826/1 825/824/1
f 826/828/1 841/829/1 842/826/1
f 806/830/1 816/827/1 805/825/1
f 806/830/1 815/831/1 816/827/1
f 827/832/1 841/829/1 826/828/1
f 827/832/1 840/833/1 841/829/1
f 806/830/1 814/834/1 815/831/1
f 828/835/1 840/833/1 827/832/1
f 828/835/1 839/836/1 840/833/1
f 807/837/1 814/834/1 806/830/1
f 807/837/1 813/838/1 814/834/1
f 829/839/1 839/836/1 828/835/1
f 829/839/1 838/840/1 839/836/1
f 807/837/1 812/841/1 813/838/1
f 829/839/1 837/842/1 838/840/1
f 830/843/1 837/842/1 829/839/1
f 808/844/1 812/841/1 807/837/1
f 830/843/1 836/845/1 837/842/1
f 808/844/1 811/846/1 812/841/1
f 831/847/1 836/845/1 830/843/1
f 831/847/1 835/848/1 836/845/1
f 808/844/1 810/849/1 811/846/1
f 832/850/1 835/848/1 831/847/1
f 809/851/1 810/849/1 808/844/1
f 832/850/1 834/852/1 835/848/1
f 833/853/1 834/852/1 832/850/1
f 921/104/1 923/98/1 920/113/1
f 923/98/1 919/120/1 920/113/1
f 923/98/1 918/118/1 919/120/1
f 923/98/1 917/115/1 918/118/1
f 923/98/1 916/112/1 917/115/1
f 923/98/1 915/110/1 916/112/1
f 923/98/1 914/105/1 915/110/1
f 923/98/1 913/106/1 914/105/1
f 923/98/1 912/122/1 913/106/1
f 923/98/1 924/95/1 912/122/1
f 924/95/1 925/93/1 912/122/1
f 925/93/1 911/127/1 912/122/1
f 921/104/1 960/3/1 923/98/1
f 926/54/1 911/127/1 925/93/1
f 927/55/1 911/127/1 926/54/1
f 928/41/1 911/127/1 927/55/1
f 929/36/1 911/127/1 928/41/1
f 929/36/1 910/130/1 911/127/1
f 930/35/1 910/130/1 929/36/1
f 931/40/1 910/130/1 930/35/1
f 931/40/1 909/137/1 910/130/1
f 932/85/1 909/137/1 931/40/1
f 933/82/1 909/137/1 932/85/1
f 933/82/1 908/143/1 909/137/1
f 934/76/1 908/143/1 933/82/1
f 935/71/1 908/143/1 934/76/1
f 935/71/1 907/151/1 908/143/1
f 936/66/1 907/151/1 935/71/1
f 937/63/1 907/151/1 936/66/1
f 937/63/1 906/146/1 907/151/1
f 938/60/1 906/146/1 937/63/1
f 938/60/1 905/136/1 906/146/1
f 939/57/1 905/136/1 938/60/1
f 940/52/1 905/136/1 939/57/1
f 940/52/1 904/125/1 905/136/1
f 941/49/1 904/125/1 940/52/1
f 942/47/1 904/125/1 941/49/1
f 942/47/1 903/91/1 904/125/1
f 943/44/1 903/91/1 942/47/1
f 943/44/1 902/80/1 903/91/1
f 944/6/1 902/80/1 943/44/1
f 921/104/1 959/4/1 960/3/1
f 945/9/1 902/80/1 944/6/1
f 921/104/1 958/8/1 959/4/1
f 921/104/1 957/12/1 958/8/1
f 921/104/1 883/45/1 957/12/1
f 883/45/1 956/17/1 957/12/1
f 946/13/1 902/80/1 945/9/1
f 883/45/1 955/21/1 956/17/1
f 883/45/1 954/25/1 955/21/1
f 946/13/1 901/70/1 902/80/1
f 947/16/1 901/70/1 946/13/1
f 883/45/1 953/32/1 954/25/1
f 883/45/1 952/31/1 953/32/1
f 883/45/1 951/33/1 952/31/1
f 948/20/1 901/70/1 947/16/1
f 883/45/1 950/29/1 951/33/1
f 883/45/1 949/24/1 950/29/1
f 883/45/1 948/20/1 949/24/1
f 883/45/1 901/70/1 948/20/1
f 883/45/1 900/77/1 901/70/1
f 883/45/1 899/84/1 900/77/1
f 883/45/1 898/92/1 899/84/1
f 921/104/1 922/101/1 883/45/1
f 884/50/1 898/92/1 883/45/1
f 884/50/1 897/123/1 898/92/1
f 885/62/1 897/123/1 884/50/1
f 886/69/1 897/123/1 885/62/1
f 887/79/1 897/123/1 886/69/1
f 888/90/1 897/123/1 887/79/1
f 888/90/1 896/135/1 897/123/1
f 889/126/1 896/135/1 888/90/1
f 890/134/1 896/135/1 889/126/1
f 891/139/1 896/135/1 890/134/1
f 892/144/1 896/135/1 891/139/1
f 892/144/1 895/155/1 896/135/1
f 893/150/1 895/155/1 892/144/1
f 894/153/1 895/155/1 893/150/1
f 974/854/1 972/855/1 973/856/1
f 974/854/1 971/857/1 972/855/1
f 975/858/1 971/857/1 974/854/1
f 975/858/1 970/859/1 971/857/1
f 975/858/1 969/860/1 970/859/1
f 976/861/1 969/860/1 975/858/1
f 976/861/1 968/862/1 969/860/1
f 976/861/1 967/863/1 968/862/1
f 977/864/1 967/863/1 976/861/1
f 977/864/1 966/865/1 967/863/1
f 977/864/1 965/866/1 966/865/1
f 978/867/1 965/866/1 977/864/1
f 978/867/1 964/868/1 965/866/1
f 978/867/1 963/869/1 964/868/1
f 979/870/1 963/869/1 978/867/1
f 979/870/1 962/871/1 963/869/1
f 979/870/1 961/45/1 962/871/1
f 980/153/1 961/45/1 979/870/1
f 980/153/1 1086/872/1 961/45/1
f 1086/872/1 1087/873/1 961/45/1
f 1087/873/1 1088/874/1 961/45/1
f 1088/874/1 1089/875/1 961/45/1
f 1089/875/1 1090/876/1 961/45/1
f 1090/876/1 1091/877/1 961/45/1
f 1091/877/1 1092/878/1 961/45/1
f 1092/878/1 1093/879/1 961/45/1
f 1093/879/1 1094/3/1 961/45/1
f 981/880/1 1084/881/1 980/153/1
f 1084/881/1 1085/882/1 980/153/1
f 1085/882/1 1086/872/1 980/153/1
f 982/883/1 1083/884/1 981/880/1
f 1083/884/1 1084/881/1 981/880/1
f 983/885/1 1081/886/1 982/883/1
f 1081/886/1 1082/887/1 982/883/1
f 1082/887/1 1083/884/1 982/883/1
f 983/885/1 1080/888/1 1081/886/1
f 983/885/1 1079/889/1 1080/888/1
f 983/885/1 1078/890/1 1079/889/1
f 983/885/1 1077/891/1 1078/890/1
f 983/885/1 1076/892/1 1077/891/1
f 984/893/1 1076/892/1 983/885/1
f 984/893/1 1075/24/1 1076/892/1
f 984/893/1 1074/894/1 1075/24/1
f 984/893/1 1073/895/1 1074/894/1
f 984/893/1 1072/896/1 1073/895/1
f 985/897/1 1072/896/1 984/893/1
f 985/897/1 1071/898/1 1072/896/1
f 985/897/1 1070/899/1 1071/898/1
f 985/897/1 1069/900/1 1070/899/1
f 986/901/1 1069/900/1 985/897/1
f 986/901/1 1068/902/1 1069/900/1
f 986/901/1 1067/903/1 1068/902/1
f 986/901/1 1066/904/1 1067/903/1
f 986/901/1 1065/905/1 1066/904/1
f 986/901/1 1064/906/1 1065/905/1
f 987/907/1 1064/906/1 986/901/1
f 987/907/1 1063/908/1 1064/906/1
f 987/907/1 1062/909/1 1063/908/1
f 987/907/1 1061/910/1 1062/909/1
f 988/911/1 1061/910/1 987/907/1
f 988/911/1 1060/912/1 1061/910/1
f 988/911/1 1059/913/1 1060/912/1
f 988/911/1 1058/914/1 1059/913/1
f 989/915/1 1058/914/1 988/911/1
f 989/915/1 1057/916/1 1058/914/1
f 990/917/1 1057/916/1 989/915/1
f 990/917/1 1056/60/1 1057/916/1
f 990/917/1 1055/918/1 1056/60/1
f 991/919/1 1055/918/1 990/917/1
f 991/919/1 1054/920/1 1055/918/1
f 992/921/1 1054/920/1 991/919/1
f 992/921/1 1053/922/1 1054/920/1
f 992/921/1 1052/923/1 1053/922/1
f 993/924/1 1052/923/1 992/921/1
f 993/924/1 1051/925/1 1052/923/1
f 994/926/1 1051/925/1 993/924/1
f 994/926/1 1050/927/1 1051/925/1
f 994/926/1 1049/928/1 1050/927/1
f 995/929/1 1049/928/1 994/926/1
f 995/929/1 1048/930/1 1049/928/1
f 996/931/1 1048/930/1 995/929/1
f 996/931/1 1047/932/1 1048/930/1
f 997/933/1 1047/932/1 996/931/1
f 997/933/1 1046/934/1 1047/932/1
f 1022/935/1 1020/936/1 1021/937/1
f 997/933/1 1045/938/1 1046/934/1
f 998/939/1 1045/938/1 997/933/1
f 1022/935/1 1019/940/1 1020/936/1
f 999/136/1 1045/938/1 998/939/1
f 1022/935/1 1018/112/1 1019/940/1
f 1000/941/1 1045/938/1 999/136/1
f 1000/941/1 1044/942/1 1045/938/1
f 1022/935/1 1017/943/1 1018/112/1
f 1001/944/1 1044/942/1 1000/941/1
f 1022/935/1 1016/945/1 1017/943/1
f 1002/946/1 1044/942/1 1001/944/1
f 1022/935/1 1015/947/1 1016/945/1
f 1003/948/1 1044/942/1 1002/946/1
f 1003/948/1 1043/949/1 1044/942/1
f 1022/935/1 1014/950/1 1015/947/1
f 1004/951/1 1043/949/1 1003/948/1
f 1005/952/1 1043/949/1 1004/951/1
f 1022/935/1 1013/953/1 1014/950/1
f 1006/954/1 1043/949/1 1005/952/1
f 1022/935/1 1012/955/1 1013/953/1
f 1007/956/1 1043/949/1 1006/954/1
f 1022/935/1 1011/957/1 1012/955/1
f 1008/958/1 1043/949/1 1007/956/1
f 1022/935/1 1010/959/1 1011/957/1
f 1009/960/1 1043/949/1 1008/958/1
f 1022/935/1 1009/960/1 1010/959/1
f 1009/960/1 1042/961/1 1043/949/1
f 1022/935/1 1042/961/1 1009/960/1
f 1022/935/1 1041/962/1 1042/961/1
f 1022/935/1 1040/963/1 1041/962/1
f 1023/964/1 1040/963/1 1022/935/1
f 1023/964/1 1039/965/1 1040/963/1
f 1024/966/1 1039/965/1 1023/964/1
f 1025/967/1 1039/965/1 1024/966/1
f 1025/967/1 1038/968/1 1039/965/1
f 1026/969/1 1038/968/1 1025/967/1
f 1027/970/1 1038/968/1 1026/969/1
f 1027/970/1 1037/55/1 1038/968/1
f 1028/971/1 1037/55/1 1027/970/1
f 1028/971/1 1036/972/1 1037/55/1
f 1029/973/1 1036/972/1 1028/971/1
f 1030/974/1 1036/972/1 1029/973/1
f 1030/974/1 1035/975/1 1036/972/1
f 1031/976/1 1035/975/1 1030/974/1
f 1032/977/1 1035/975/1 1031/976/1
f 1032/977/1 1034/978/1 1035/975/1
f 1033/979/1 1034/978/1 1032/977/1
